<svg xmlns="http://www.w3.org/2000/svg" xmlns:xlink="http://www.w3.org/1999/xlink" version="1.1" id="Layer_1" x="0px" y="0px" viewBox="0 0 1080 1080" enable-background="new 0 0 1080 1080" xml:space="preserve">
<ellipse opacity="0.5" fill="#F7F7F7" cx="549" cy="780.615" rx="328" ry="33.575"/>
<ellipse opacity="0.3" fill="#F7F7F7" cx="304.868" cy="750.127" rx="49.347" ry="6.626"/>
<polygon opacity="0.3" fill="#F7F7F7" points="578.582,622.61 283.293,646.591 283.293,275.605 578.582,299.586 "/>
<path opacity="0.6" fill="#FFBE55" d="M375.336,368.572c1.324,11.313,10.736,20.641,11.251,32.02  c0.615,13.585-11.24,24.026-21.706,32.709c-10.312,8.555-20.581,17.888-26.092,30.1c-5.511,12.213-5.094,28.047,4.379,37.522  c11.26,11.264,30.425,9.905,43.135,19.503c9.696,7.323,13.905,19.611,20.383,29.891c13.913,22.084,40.509,35.51,66.539,33.591  c7.184-0.53,14.995-2.598,19.014-8.576c4.85-7.214,2.212-17.092-2.13-24.622c-4.342-7.53-10.309-14.409-12.201-22.893  c-4.019-18.021,11.496-34.2,26.618-44.794c15.122-10.594,32.813-21.675,36.366-39.793c3.785-19.304-10.633-37.474-26.354-49.299  c-9.349-7.033-19.963-13.505-25.054-24.038c-4.177-8.642-3.961-18.777-7.271-27.786c-4.581-12.467-16.298-22.02-29.442-23.996  c-24.149-3.624-28.485,16.008-45.847,24.42C394.099,348.743,372.605,345.248,375.336,368.572z"/>
<g>
	<path fill="#FFE3CA" d="M623.943,739.942c-0.212,3.428-0.517,7.105-2.696,9.759c-2.569,3.13-6.957,3.925-10.963,4.513   c-5.838,0.857-11.676,1.715-17.514,2.572c-0.298,0.864,0.711,1.588,1.577,1.881c4.316,1.461,9.018,0.824,13.55,0.352   c5.252-0.547,10.53-0.848,15.811-0.901c2.35-0.024,5.138-0.234,6.331-2.259c0.89-1.51,0.483-3.407,0.274-5.148   c-0.636-5.306,0.857-10.711,0.098-16c-0.087-0.61-0.284-1.315-0.86-1.534c-0.293-0.111-0.62-0.064-0.927-0.002   C624.157,734.078,624.191,735.929,623.943,739.942z"/>
	<path fill="#0B4870" d="M625.538,753.69c-4.35,2.657-8.771,3.377-13.829,2.746c-0.309-0.038-2.007-0.412-2.316-0.445   c-0.18-0.97-0.081-1.921-0.878-1.89c-3.658,0.141-7.309,0.446-10.939,0.916c-1.153,0.149-5.532,0.251-5.994,1.148   c-0.412,0.8-0.148,1.821,0.433,2.507c0.581,0.686,1.421,1.096,2.262,1.417c4.146,1.58,8.727,1.393,13.159,1.184   c5.451-0.257,10.902-0.514,16.353-0.772c1.86-0.088,3.818-0.206,5.38-1.219c2.298-1.49,3.089-4.496,3.144-7.234   C632.413,747.067,627.109,752.731,625.538,753.69z"/>
	<path fill="#FFE3CA" d="M607.996,492.776c0,0,12.26-0.713,12.235-1.02c-0.284-3.571-3.511-8.865-1.835-12.031   c1.675-3.167,2.957-4.959,4.65-8.116c0.25-0.467,0.469-1.104,0.088-1.471c-0.313-0.302-0.822-0.202-1.239-0.078   c-2.241,0.666-4.452,1.435-6.623,2.305c-3.676,1.472-7.152,1.435-7.277,5.322C607.859,481.958,607.996,492.776,607.996,492.776z"/>
	<path fill="#FFE3CA" d="M538.546,749.095c-0.661,3.37-1.447,6.975-3.956,9.32c-2.958,2.765-7.413,2.976-11.461,3.033   c-5.9,0.083-11.8,0.165-17.7,0.248c-0.409,0.817,0.496,1.668,1.316,2.072c4.086,2.016,8.831,2.002,13.386,2.13   c5.279,0.149,10.551,0.544,15.792,1.185c2.332,0.285,5.124,0.443,6.573-1.407c1.081-1.381,0.926-3.314,0.948-5.067   c0.067-5.343,2.258-10.505,2.2-15.848c-0.007-0.616-0.108-1.341-0.651-1.634c-0.276-0.148-0.606-0.145-0.919-0.124   C539.529,743.31,539.319,745.149,538.546,749.095z"/>
	<path fill="#0B4870" d="M635.752,586.835c0,0-3.953,29.15-5.435,51.383s5.929,70.157,5.435,83.003   c-0.494,12.846-3.458,20.256-3.458,20.256H620.93c0,0-13.834-59.781-14.328-72.627c-0.494-12.846-8.893-78.556-8.893-78.556   L635.752,586.835z"/>
	<path fill="#0B4870" d="M484.349,480.066c0.139,1.318-1.759,1.686-2.112,0.409c-4.753-17.161-15.742-60.645-15.587-66.625   c0.097-3.773,2.792-6.515,2.792-6.515h3.413c0,0,2.792,2.792,3.103,6.515C476.173,416.445,482.539,462.854,484.349,480.066z"/>
	<path fill="#FFE3CA" d="M608.258,455.36c-1.344,2.52-3.001,5.424-5.832,5.799c-0.452,0.06-0.935,0.054-1.325,0.29   c-0.726,0.439-0.78,1.453-0.749,2.301c0.117,3.23,0.234,6.46,0.351,9.689c0.107,2.952,0.488,6.398,3.015,7.929   c1.812,1.098,4.112,0.786,6.192,0.386c1.665-0.32,3.335-0.677,4.896-1.339c4.857-2.058,8.1-6.871,9.607-11.926   c1.186-3.981,1.422-8.421-0.343-12.182C620.639,448.999,612.045,448.259,608.258,455.36z"/>
	<path fill="#0B4870" d="M630.306,585.516c-2.213,0.32-4.414,0.712-6.607,1.148c-0.388-0.287-0.91-0.409-1.398-0.501   c-15.262-2.883-31.047-2.09-45.572,3.411c-7.503,22.863-27.598,105.385-31.792,116.508c-4.958,13.149-5.543,28.097-8.687,41.793   c4.913,1.08,4.368,0.749,9.395,0.931c17.553-41.525,27.324-39.397,29.911-67.055c0.525-5.612,7.914-15.077,11.169-19.679   c15.424-21.807,41.634-52.292,45.703-58.751C636.065,597.551,643.303,583.638,630.306,585.516z"/>
	<path fill="#FFE3CA" d="M485.266,442.502c-0.26-0.999-0.607-2.056-1.432-2.678c-1.056-0.795-2.562-0.616-3.786-0.118   c-1.224,0.498-2.339,1.273-3.617,1.609c-2.296,0.605-5.02-0.215-6.92,1.207c-1.108,0.83-1.637,2.361-1.276,3.697   c0.186,0.691,0.579,1.306,0.87,1.961c0.992,2.232,0.813,4.953,2.257,6.924c1.096,1.497,2.912,2.253,4.635,2.939   c4.177,1.664,8.354,3.328,12.531,4.992c0.268,0.107,0.577,0.213,0.836,0.086c0.219-0.108,0.332-0.35,0.423-0.576   c1.749-4.352,0.999-6.456-1.193-9.979C486.694,449.513,486.158,445.928,485.266,442.502z"/>
	<path fill="#0B4870" d="M538.32,762.934c-4.662,2.062-9.139,2.194-14.07,0.905c-0.301-0.079-1.936-0.672-2.238-0.746   c-0.05-0.986,0.172-1.915-0.621-1.989c-3.644-0.341-7.304-0.518-10.965-0.53c-1.163-0.004-5.517-0.478-6.093,0.35   c-0.513,0.739-0.386,1.785,0.1,2.542c0.486,0.757,1.265,1.274,2.056,1.702c3.903,2.112,8.468,2.529,12.89,2.904   c5.437,0.462,10.875,0.923,16.312,1.385c1.855,0.157,3.812,0.298,5.494-0.501c2.474-1.175,3.653-4.051,4.068-6.758   C546.006,757.271,540.003,762.189,538.32,762.934z"/>
	<path fill="#FFBE55" d="M641.999,503.262c-5.76-5.141-12.302-10.59-20.022-10.479c-2.573,0.037-41.97-8.817-46.545-9.173   c-30.57-2.379-55.493-26.808-85.896-30.789c-3.02,0.964-4.017,5.055-2.784,7.976c1.233,2.921,3.953,4.897,6.571,6.685   c27.354,18.685,56.27,24.428,86.011,39.018c-6.851,17.719,7.32,39.144,6.152,43.538c-1.249,4.701-12.481,35.694-11.249,40.399   c11.083,3.41,19.912,3.864,31.469,4.825s23.933-1.123,33.735-7.319c-1.075-5.737-6.216-11.03-2.285-13.147   c11.254-7.157,22.179-12.555,29.607-23.633c1.433-2.137,2.718-4.453,3.104-6.997C670.931,537.155,650.209,510.59,641.999,503.262z    M635.356,562.329c1.444-6.462,5.644-38.176,5.644-38.176c3.327,1.73,18.667,19.847,18.667,19.847S638.62,560.151,635.356,562.329z   "/>
	<path fill="#F7F7F7" d="M473.304,407.188c-2.183,1.193-4.977,0.666-6.681-1.146c-0.987-1.049-1.697-2.479-1.024-4.211   c1.499-3.855,4.283-8.351,2.998-10.921c-1.285-2.57-1.285-2.355-1.285-2.57c0-0.214,7.084,3.984,8.137,7.495   C477.591,402.975,475.563,405.953,473.304,407.188z"/>
	<path fill="#FFE3CA" d="M482.475,431.282c-0.308-0.78-0.73-1.629-1.526-1.895c-0.952-0.319-1.999,0.414-2.387,1.34   c-0.389,0.926-0.294,1.974-0.192,2.973c0.281,2.768,0.562,5.537,0.843,8.305c0.16,1.574,0.51,3.427,1.953,4.077   c1.075,0.484,2.421,0.022,3.165-0.893c1.433-1.76,0.484-3.819,0.196-5.775C484.117,436.622,483.515,433.917,482.475,431.282z"/>
	<path fill="#FFBE55" d="M476.168,399.132c-0.141-0.997-0.349-2.065-0.719-3.298c-1.053-3.511-8.137-7.709-8.137-7.495   c0,0.072,0.004,0.102,0.053,0.199c0.017,0.032,0.034,0.066,0.052,0.1c0.134,0.248,0.442,0.795,1.179,2.27   c1.223,2.447-1.231,6.634-2.763,10.357c0.448,0.241,0.938,0.321,1.435,0.103c1.039-0.456,1.599-2.007,2.722-1.849   c1.585,0.223,0.976,3.225,2.466,3.808c0.922,0.361,1.855-0.557,2.227-1.475c0.372-0.918,0.54-1.995,1.303-2.626   C476.043,399.182,476.108,399.165,476.168,399.132z"/>
	<path fill="#0B4870" d="M632.93,455.628c-2.478-2.49-5.698-4.098-8.952-5.423c-2.523-1.027-5.172-1.921-7.895-1.866   c-2.723,0.055-5.557,1.218-6.998,3.529c-1.1,1.763-1.27,3.982-0.892,6.026c0.246,1.33,0.829,4.219,1.856,5.204   c0.866,0.829,2.242,0.264,2.974,1.481c0.505,0.84,0.444,1.907,0.188,2.853c-0.266,0.98-0.753,1.944-1.58,2.534   c-0.232,0.165-0.493,0.293-0.768,0.378c-1.331,0.413-2.205,1.671-2.013,3.051c0.299,2.151,1.096,4.234,2.331,6.02   c0.293,0.423,0.619,0.827,0.983,1.189c-0.086,0.616-0.251,1.237-0.336,1.852c-0.253,1.828,0.526,4.025,2.308,4.504   c-0.634-0.705-1.256-1.521-1.289-2.469c-0.033-0.948,0.827-1.959,1.745-1.72c0.734,0.191,1.096,1.021,1.211,1.77   c0.264,1.718-0.256,3.541-1.388,4.86c1.204-0.677,2.445-1.387,3.262-2.5c0.88-1.199,1.181-2.752,2.087-3.931   c0.195-0.253,0.417-0.48,0.649-0.698c0.105,0.143,0.213,0.285,0.312,0.43c0.727,1.061,0.798,1.762,0.231,3.465   c-0.095,0.286-0.686,1.278-0.686,1.278c0.127-0.115,3.104-2.35,1.034-5.816c0.51-0.093,1.016-0.202,1.51-0.358   c3.702-1.169,6.395-4.293,8.882-7.274c2.201-2.638,4.492-5.477,4.925-8.884C637.065,461.626,635.408,458.117,632.93,455.628z"/>
	<path fill="#0B4870" d="M630.93,453.907c-3.965,0.128-7.232,2.276-6.973,7.666c0.068,1.41,0.531,2.773,0.677,4.177   c0.59,5.664-3.846,10.417-6.503,15.453c-0.867,1.644-1.499,3.827-0.271,5.221c0.02,0.023,0.047,0.036,0.068,0.058   c0.683-1.129,1.03-2.463,1.837-3.512c0.195-0.253,0.417-0.48,0.649-0.698c0.105,0.143,0.213,0.285,0.312,0.43   c0.727,1.061,0.798,1.762,0.231,3.465c-0.095,0.286-0.686,1.278-0.686,1.278c0.127-0.115,3.104-2.35,1.034-5.816   c0.51-0.093,1.016-0.202,1.51-0.358c3.702-1.169,6.395-4.293,8.882-7.274c2.201-2.638,4.492-5.477,4.925-8.884   c0.443-3.485-1.215-6.994-3.693-9.484C632.306,455.001,631.636,454.431,630.93,453.907z"/>
	
		<ellipse transform="matrix(0.2099 -0.9777 0.9777 0.2099 51.3613 984.3104)" fill="#0B4870" cx="634.721" cy="460.375" rx="9.727" ry="9.727"/>
</g>
<polygon fill="#FFBE55" points="611.926,329.857 561.705,327.446 561.705,248.065 611.926,252.134 "/>
<polygon fill="#FFBE55" points="300.543,461.079 265.241,459.384 265.241,403.584 300.543,406.444 "/>
<polygon fill="#2A94F4" points="309.78,491.86 281.441,490.499 281.441,445.705 309.78,448.001 "/>
<polygon fill="#2A94F4" points="544.928,326.346 500.684,327.986 500.684,272.365 544.928,274.004 "/>
<polygon fill="#FFBE55" points="410.484,661.422 366.241,663.061 366.241,607.44 410.484,609.08 "/>
<g>
	<path opacity="0.5" fill="#F7F7F7" d="M299.607,635.352c-1.086-5.316-2.178-10.742-1.54-16.13c0.824-6.948,4.457-13.24,8.51-18.944   c2.458-3.459,6.526-7.18,10.364-5.371c1.504,0.709,2.525,2.145,3.341,3.595c5.806,10.318,4.254,22.983,3.535,34.801   c-0.494,8.12-0.543,16.427-3.259,24.095c-0.909,2.566-2.153,5.089-4.148,6.941c-1.995,1.852-4.856,2.935-7.496,2.27   c-5.961-1.501-7.427-9.631-7.557-14.788C301.212,646.06,300.784,641.11,299.607,635.352z"/>
	<path fill="#0B4870" d="M317.108,694.044c3.196,0.92,6.61,2.266,8.135,5.094c-1.998,2.969-4.32,5.741-6.917,8.256   c-3.849,3.727-8.899,7.058-14.359,6.517c-5.514-0.546-9.667-4.789-13.81-8.297c-3.597-3.046-8.942-5-12.196-8.146   c-4.522-4.37,1.51-5.146,5.68-5.732C294.794,690.167,306.312,690.936,317.108,694.044z"/>
	<path opacity="0.6" fill="#FFBE55" d="M301.134,705.181c-5.101-6.377-31.264-16.301-37.111-22.002   c-10.165-9.913-16.104-24.027-16.085-38.226c0.023-17.102,8.22-33.374,8.455-50.475c0.108-7.86-1.477-15.69-1.091-23.541   c0.387-7.851,3.257-16.228,9.946-20.357c9.637-5.949,23.123-0.016,28.909,9.719c5.786,9.735,5.758,21.785,4.727,33.063   c-1.031,11.278-2.878,22.8-0.17,33.796c4.386,17.81,19.935,31.146,24.813,48.828c1.872,6.786-15.875,21.042-16.07,28.079   c-0.221,7.99-0.581,18.486-4.092,25.667c-4.926,10.077,7.815,14.233-1.86,2.976C294.973,725.107,308.462,714.343,301.134,705.181z"/>
	<g>
		<g>
			<path fill="#0B4870" d="M303.049,714.398l-0.797-0.142c3.315-18.665-0.444-38.654-10.314-54.84     c-1.101-1.805-2.302-3.61-3.463-5.357c-3.269-4.917-6.651-10.002-8.28-15.77c-2.426-8.591-0.732-17.619,0.906-26.351     c0.429-2.284,0.872-4.646,1.23-6.95c2.759-17.73-0.095-33.587-8.037-44.65l0.658-0.472c8.066,11.236,10.971,27.305,8.179,45.245     c-0.361,2.318-0.804,4.686-1.235,6.977c-1.621,8.64-3.297,17.574-0.922,25.979c1.594,5.648,4.939,10.677,8.174,15.544     c1.165,1.751,2.371,3.564,3.48,5.384C302.601,675.346,306.4,695.54,303.049,714.398z"/>
		</g>
		<g>
			<path fill="#0B4870" d="M282.847,600.879c-5.033-5.996-9.71-10.579-15.162-14.862l0.5-0.636     c5.498,4.318,10.212,8.937,15.283,14.976L282.847,600.879z"/>
		</g>
		<g>
			<path fill="#0B4870" d="M284.502,646.342l-0.69-0.424c1.274-2.069,2.795-4.623,4.315-7.176c1.523-2.557,3.045-5.113,4.321-7.186     l0.69,0.424c-1.274,2.069-2.795,4.623-4.315,7.176C287.301,641.713,285.779,644.27,284.502,646.342z"/>
		</g>
		<g>
			<path fill="#0B4870" d="M301.257,682.659c-2.321-3.647-6.922-4.767-11.372-5.85l-1.202-0.296     c-6.611-1.647-12.897-4.311-18.683-7.917l0.429-0.687c5.714,3.56,11.922,6.191,18.451,7.819l1.198,0.294     c4.391,1.068,9.367,2.28,11.864,6.203L301.257,682.659z"/>
		</g>
		<g>
			<path fill="#0B4870" d="M279.5,621.76c-4.46-4.281-8.675-8.91-12.529-13.761l0.634-0.503c3.831,4.821,8.022,9.423,12.456,13.679     L279.5,621.76z"/>
		</g>
		<g>
			
				<rect x="278.984" y="576.504" transform="matrix(0.4371 -0.8994 0.8994 0.4371 -357.7527 582.1824)" fill="#0B4870" width="14.52" height="0.811"/>
		</g>
		<g>
			<path fill="#0B4870" d="M296.209,665.365l-0.751-0.304c1.819-4.487,3.914-8.916,6.227-13.164l0.712,0.386     C300.098,656.506,298.016,660.907,296.209,665.365z"/>
		</g>
	</g>
	<path fill="#2A94F4" d="M325.438,699.265c-16.157,4.636-33.999,3.119-49.142-4.177l8.68,54.272h26.854L325.438,699.265z"/>
	<path fill="#F7F7F7" d="M317.392,728.885l1.142-4.203c-0.679,0.217-1.362,0.418-2.055,0.587c-4.112,1.006-8.387,1.156-12.618,1.019   c-6.801-0.221-13.658-1.233-20.059-3.608c-1.15-0.427-2.246-0.924-3.325-1.448l0.72,4.504c0.418,0.179,0.836,0.358,1.257,0.527   C293.55,730.709,306.233,733.034,317.392,728.885z"/>
</g>
<path fill="#FFBE55" d="M733.045,374.535l-3.234-0.549c-0.337-1.088-0.77-2.136-1.299-3.137l1.906-2.666  c0.808-1.136,0.683-2.685-0.308-3.667l-2.868-2.868c-0.539-0.539-1.251-0.837-2.012-0.837c-0.596,0-1.164,0.183-1.646,0.53  l-2.675,1.905c-1.04-0.549-2.127-1.001-3.253-1.338l-0.539-3.195c-0.231-1.377-1.415-2.377-2.81-2.377h-4.052  c-1.396,0-2.579,1.001-2.811,2.377l-0.558,3.272c-1.078,0.337-2.127,0.78-3.128,1.319l-2.647-1.906  c-0.481-0.346-1.059-0.529-1.656-0.529c-0.76,0-1.482,0.298-2.011,0.837l-2.878,2.868c-0.982,0.982-1.117,2.531-0.308,3.667  l1.925,2.704c-0.53,1.01-0.953,2.059-1.28,3.147l-3.195,0.538c-1.377,0.231-2.378,1.415-2.378,2.811v4.052  c0,1.395,1.001,2.579,2.378,2.81l3.272,0.558c0.337,1.077,0.779,2.127,1.319,3.128l-1.896,2.637  c-0.808,1.136-0.683,2.685,0.308,3.667l2.868,2.868c0.539,0.539,1.252,0.838,2.012,0.838c0.596,0,1.164-0.183,1.646-0.529  l2.704-1.925c0.972,0.51,1.992,0.924,3.041,1.251l0.539,3.233c0.231,1.377,1.415,2.378,2.81,2.378h4.062  c1.396,0,2.58-1.001,2.81-2.378l0.548-3.233c1.088-0.337,2.137-0.77,3.138-1.299l2.666,1.905c0.481,0.346,1.059,0.53,1.655,0.53  c0.76,0,1.473-0.298,2.012-0.837l2.868-2.868c0.982-0.982,1.116-2.531,0.308-3.667l-1.905-2.676c0.53-1.01,0.972-2.059,1.299-3.137  l3.234-0.539c1.377-0.231,2.377-1.415,2.377-2.81v-4.052C735.422,375.95,734.422,374.766,733.045,374.535z M712.368,389.007  c-5.321,0-9.635-4.314-9.635-9.635c0-5.321,4.314-9.635,9.635-9.635c5.322,0,9.635,4.314,9.635,9.635  C722.003,384.693,717.689,389.007,712.368,389.007z"/>
<path opacity="0.4" fill="#2A94F4" d="M699.908,317.949l-2.646-0.449c-0.276-0.89-0.63-1.748-1.063-2.567l1.559-2.182  c0.661-0.929,0.559-2.197-0.252-3.001l-2.347-2.347c-0.441-0.441-1.024-0.685-1.646-0.685c-0.488,0-0.953,0.15-1.347,0.433  l-2.189,1.559c-0.851-0.449-1.74-0.819-2.662-1.095l-0.441-2.614c-0.189-1.127-1.158-1.945-2.299-1.945h-3.316  c-1.142,0-2.111,0.819-2.3,1.945l-0.456,2.678c-0.882,0.276-1.741,0.638-2.56,1.079l-2.166-1.56  c-0.394-0.283-0.867-0.433-1.355-0.433c-0.622,0-1.213,0.244-1.646,0.685l-2.355,2.347c-0.804,0.803-0.914,2.071-0.252,3.001  l1.575,2.213c-0.433,0.827-0.78,1.685-1.047,2.575l-2.614,0.441c-1.126,0.189-1.946,1.158-1.946,2.3v3.316  c0,1.142,0.819,2.11,1.946,2.3l2.678,0.457c0.276,0.882,0.638,1.74,1.079,2.56l-1.552,2.158c-0.661,0.929-0.559,2.197,0.252,3.001  l2.347,2.347c0.441,0.441,1.024,0.685,1.646,0.685c0.488,0,0.953-0.15,1.347-0.433l2.213-1.575c0.795,0.417,1.63,0.756,2.489,1.024  l0.441,2.646c0.189,1.126,1.158,1.945,2.3,1.945h3.324c1.142,0,2.111-0.819,2.3-1.945l0.449-2.646  c0.89-0.276,1.748-0.63,2.568-1.063l2.181,1.559c0.394,0.283,0.867,0.433,1.355,0.433c0.622,0,1.205-0.244,1.646-0.685l2.347-2.347  c0.803-0.803,0.913-2.071,0.252-3.001l-1.559-2.19c0.433-0.827,0.796-1.685,1.063-2.567l2.646-0.441  c1.126-0.189,1.945-1.158,1.945-2.3v-3.316C701.853,319.106,701.034,318.137,699.908,317.949z M682.987,329.791  c-4.355,0-7.885-3.53-7.885-7.885c0-4.355,3.53-7.885,7.885-7.885s7.885,3.53,7.885,7.885  C690.872,326.261,687.342,329.791,682.987,329.791z"/>
<polygon opacity="0.4" fill="#2A94F4" points="679.94,354.983 608.956,354.983 608.956,404.485 646.79,404.485 642.768,417.156   659.213,404.485 679.94,404.485 "/>
<g>
	<path fill="#F7F7F7" d="M632.839,380.574c0,1.523-1.234,2.757-2.757,2.757c-1.523,0-2.757-1.234-2.757-2.757   c0-1.523,1.234-2.757,2.757-2.757C631.604,377.817,632.839,379.051,632.839,380.574z"/>
	<path fill="#F7F7F7" d="M646.624,380.574c0,1.523-1.234,2.757-2.757,2.757c-1.523,0-2.757-1.234-2.757-2.757   c0-1.523,1.234-2.757,2.757-2.757C645.389,377.817,646.624,379.051,646.624,380.574z"/>
	<path fill="#F7F7F7" d="M660.409,380.574c0,1.523-1.234,2.757-2.757,2.757s-2.757-1.234-2.757-2.757   c0-1.523,1.234-2.757,2.757-2.757S660.409,379.051,660.409,380.574z"/>
</g>
<g>
	<g>
		<path fill="#F7F7F7" d="M464.493,821.761c-0.365,0-0.678-0.113-0.938-0.337c-0.259-0.223-0.389-0.541-0.389-0.952    c0-0.373,0.133-0.677,0.399-0.919c0.266-0.241,0.576-0.361,0.928-0.361c0.34,0,0.641,0.109,0.904,0.327    c0.263,0.219,0.395,0.535,0.395,0.952c0,0.404-0.129,0.72-0.386,0.947C465.15,821.646,464.846,821.761,464.493,821.761z"/>
	</g>
	<g>
		<path fill="#F7F7F7" d="M615.854,821.754c-0.367,0-0.677-0.116-0.934-0.339c-0.263-0.226-0.393-0.539-0.393-0.948    c0-0.373,0.133-0.678,0.401-0.921c0.265-0.237,0.574-0.36,0.926-0.36c0.344,0,0.644,0.108,0.905,0.323    c0.263,0.221,0.395,0.541,0.395,0.958c0,0.405-0.129,0.72-0.383,0.947C616.515,821.638,616.21,821.754,615.854,821.754"/>
	</g>
	<g>
		<path fill="#F7F7F7" d="M553.679,817.621c0.507,0,0.882,0.041,1.311,0.113l0.121-0.772c0,0-1.186-0.365-2.744-0.237l-0.122-0.42    c0.484-0.102,0.848-0.533,0.848-1.047c0-0.589-0.48-1.067-1.07-1.067s-1.069,0.478-1.069,1.067c0,0.514,0.363,0.945,0.846,1.047    l0.135,0.469c-1.655,0.227-2.972,0.873-2.972,0.873l0.233,0.714c1.001-0.333,1.869-0.536,2.657-0.621    C552.625,817.656,553.206,817.621,553.679,817.621z"/>
	</g>
</g>
<g>
	<path fill="#F7F7F7" d="M748.521,537.552c-0.396-0.349-0.813-0.692-1.307-0.878c-0.582-0.219-1.223-0.204-1.845-0.181   c-0.869,0.033-1.738,0.077-2.606,0.132c-0.408,0.026-0.896,0.107-1.058,0.483c-0.174,0.405,0.164,0.843,0.511,1.114   c1.072,0.836,2.452,1.195,3.536,2.016c1.086,0.822,1.817,2.066,2.969,2.792c0.334,0.21,0.714,0.376,1.108,0.362   c0.389-0.014,0.749-0.201,1.093-0.384c1.513-0.803,1.419-1.276,0.382-2.555C750.466,539.421,749.545,538.405,748.521,537.552z"/>
	<g>
		<g>
			<polygon fill="#FCD2B1" points="701.064,581.603 715.282,481.698 753.641,476.433 773.592,580.881    "/>
			<path fill="#FCD2B1" d="M730.713,736.408l-0.041,11.26c-0.009,2.291,0.303,4.571,0.925,6.776l0.979,3.468     c0.804,2.848-1.337,5.674-4.295,5.663c-7.67-0.028-20.779-0.007-24.157-0.001c-0.553,0.001-1.095-0.372-1.142-0.923     c-0.285-3.288,9.211-5.489,16.363-8.258c5.448-2.109,5.158-11.901,4.486-17.619c-0.253-2.16,1.548-3.999,3.716-3.819l0,0     C729.341,733.104,730.72,734.607,730.713,736.408z"/>
			<path fill="#FCD2B1" d="M783.426,733.249l3.88,12.882c0.171,0.569,0.427,1.109,0.759,1.602l2.751,4.085     c1.746,2.593,0.489,6.136-2.501,7.048c0,0-5.545,1.951-11.263,3.829c-5.852,1.923-13.213,0.316-13.213-1.228     c0-3.431,3.199-0.708,8.558-4.291c1.796-1.201,3.649-2.457,5.301-3.754c4.612-3.62,0.585-12.785-2.238-17.947     c-1.015-1.856,0.063-4.16,2.132-4.601l1.336-0.285C780.891,730.17,782.847,731.327,783.426,733.249z"/>
			<path fill="#0B4870" d="M743.794,582.57l-42.506-3.567c0,0-4.28,30.937,6.463,86.939c5.038,26.262,15.537,76.447,15.537,76.447     c2.602,1.139,5.248,1.425,7.943,0.753c0,0,0.797-22.137,1.285-45.976c0.468-22.863,0.594-47.293,2.05-55.286     C737.542,625.551,743.794,582.57,743.794,582.57z"/>
			<path fill="#0B4870" d="M735.02,583.109c-4.388,23.552-14.192,58.771,4.692,91.856c18.884,33.085,38.718,67.482,38.718,67.482     c2.555,0.104,4.873-0.822,7.026-2.457c0,0-3.311-14.999-8.097-32.513c-5.475-20.036-12.411-43.602-10.435-55.89     c3.703-23.029,7.957-53.698,6.668-68.592C772.303,568.101,737.328,570.724,735.02,583.109z"/>
			<path fill="#F7F7F7" d="M699.596,579.059l15.686-97.361l38.359-5.265l20.615,102.807c0.387,1.932-0.864,3.808-2.8,4.175     c-7.141,1.353-24.368,4.181-43.647,4.181c-14.392,0-22.48-2.798-26.16-4.57C700.158,582.307,699.333,580.693,699.596,579.059z"/>
			<path fill="#FFBE55" d="M741.658,482.497c0,7.014,1.275,13.96,3.67,20.552c4.686,12.896,11.717,37.282,7.539,58.766     c-6.016,30.937-13.75,43.444-3.724,50.654c10.026,7.21,29.254-4.821,29.809-8.831c0.555-4.01-3.742-53.275-8.612-74.619     c-4.87-21.344-18.51-52.027-18.51-52.027l-5.779,0.617C743.553,477.875,741.658,479.984,741.658,482.497L741.658,482.497z"/>
			<path fill="#FFBE55" d="M725.689,480.269c0,0-6.653,14.378-4.332,35.035c2.32,20.657,7.697,83.56-11.1,93.059     c-5.952,3.008-19.545-10.312-19.545-15.254s4.537-21.484,8.836-36.523c4.299-15.039,14.659-74.741,14.659-74.741L725.689,480.269     z"/>
			<g>
				<path fill="#FCD2B1" d="M731.044,435.709c8.561,0,11.755,6.094,11.918,17.367c0.061,4.222-1.838,8.405-3.367,11.076      c-1.136,1.984-1.447,4.334-0.799,6.527l1.88,6.362c1.278,5.902-1.525,9.139-5.663,10.315c-2.05,0.582-4.506,0.131-6.296-1.026      c-2.128-1.375-2.303-4.333-1.908-6.836l0.486-1.814c0.654-2.444-0.762-5.078-3.234-5.619c-6.592-1.442-7.536-8.313-9.302-18.985      C712.919,441.953,722.483,435.709,731.044,435.709z"/>
				<path fill="#FCD2B1" d="M738.243,453.284c0,2.614,0.973,4.733,3.49,4.733s4.132-3.595,4.132-6.208      c0-2.614-1.615-3.257-4.132-3.257S738.243,450.67,738.243,453.284z"/>
			</g>
		</g>
		<path fill="#FCD2B1" d="M739.284,464.758c0,0-6.394,8.79-14.35,7.599c0,0,1.652,0.79,2.054,2.074    C726.988,474.43,734.545,473.872,739.284,464.758z"/>
	</g>
	<path fill="#FFBE55" d="M716.52,481.533c0,0-9.013,1.567-32.526,30.958c-10.189,21.553-10.896,13.403-10.896,13.403   s2.302,13.721,8.964,10.586c6.662-3.135,27.405-25.164,27.405-25.164L716.52,481.533z"/>
	<path fill="#FFBE55" d="M678.332,512.119c-2.761,4.417-6.149,8.379-6.351,13.585s3.394,10.948,8.601,11.097   c4.312,0.123,8.251-9.368,8.251-9.368l18.674-41.005l-8.02-3.031C699.486,483.395,682.687,505.153,678.332,512.119z"/>
	<path fill="#FCD2B1" d="M706.739,486.19c0.123,0.179,0.245,0.358,0.368,0.537c2.782-3.219,5.378-6.599,7.771-10.117   c0.617-0.908,1.24-1.874,1.341-2.967c0.129-1.382-0.594-2.685-1.292-3.885c-0.802-1.379-1.561-3.187-2.363-4.566   c1.298-1.53,2.596-3.06,3.895-4.589c0.528-0.622,1.067-1.263,1.34-2.032c0.273-0.769,0.227-1.706-0.327-2.305   c-0.554-0.599-1.351-0.774-1.963-0.233c-2.834,2.506-15.282,23.533-15.598,26.494c-0.192,1.798-0.296,3.861,0.977,5.144   C702.431,489.226,705.13,487.678,706.739,486.19z"/>
	<path fill="#0B4870" d="M718.385,440.818c0,0,12.942,1.077,16.942-1.798c0,0,1.538,8.94,3.956,10.595   c2.419,1.655,1.025-1.931,3.417-1.023c0,0,1.876-10.696-6.624-13.946s-13.625-7.25-13.625-7.25l3.75,3.875l-6.125-1.75l3,2.875   l-11.75-0.625l3.202,1.5l-5.702,4.125l7.692-0.375l-8.319,4.75l8.319-1.625l-3.317,2.25L718.385,440.818z"/>
	<path fill="#FCD2B1" d="M675.588,529.185c-0.362-0.245-0.809-0.49-1.213-0.325c-0.284,0.116-0.454,0.402-0.642,0.645   c-2.046,2.637-7.094,0.876-9.018,3.603c-0.788,1.118-0.71,2.674-0.132,3.913c0.578,1.239,1.58,2.224,2.594,3.141   c2.607,2.358,9.503,3.201,9.503,3.201l8.679,2.58l0.402-3.749l-4.177-3.241c0,0,1.077-2.258,0.79-2.681   C680.26,533.154,677.316,530.358,675.588,529.185z"/>
	<path fill="#FCD2B1" d="M676.036,529.076c-0.351-0.394-0.725-0.784-1.193-1.028c-0.552-0.287-1.19-0.349-1.811-0.4   c-0.867-0.071-1.735-0.131-2.603-0.179c-0.409-0.023-0.902,0-1.108,0.354c-0.221,0.381,0.062,0.856,0.375,1.167   c0.965,0.957,2.292,1.479,3.27,2.423c0.98,0.946,1.558,2.267,2.615,3.126c0.306,0.249,0.664,0.459,1.057,0.492   c0.388,0.032,0.767-0.111,1.131-0.251c1.598-0.617,1.561-1.098,0.684-2.491C677.744,531.163,676.95,530.044,676.036,529.076z"/>
	<path fill="#FFBE55" d="M751.831,476.991c9.97,3.157,23.428,15.361,22.384,25.767c-1.713,17.083-5.315,41.842-12.395,53.577   c-3.191,5.289-11.942,3.353-18.073,2.608c-17.991-2.184-53.585-6.889-69.32-15.881c0.613-2.602,0.627-4.848,2.027-7.125   c16.224-0.706,54.046,0.972,69.583,5.698l4.056-23.184"/>
</g>
<path fill="#0B4870" d="M790.817,751.818c0,0-8.455,5.692-14.242,6.713c-5.787,1.021-7.83,0-7.83,0s-5.447-0.277-6.723,2.787  c-1.277,3.064,7.859,6.191,14.398,4.851c6.539-1.34,15.73-7.016,15.73-7.016S794.591,751.573,790.817,751.818z"/>
<path fill="#0B4870" d="M730.828,756.674c0,0-9.424,3.883-15.299,3.724c-5.875-0.159-7.671-1.569-7.671-1.569  s-5.281-1.362-7.146,1.383c-1.865,2.746,6.459,7.641,13.134,7.638c6.674-0.003,16.817-3.722,16.817-3.722  S734.575,757.19,730.828,756.674z"/>
</svg>