<?xml version="1.0" encoding="UTF-8" standalone="no"?>
<svg
   xmlns:dc="http://purl.org/dc/elements/1.1/"
   xmlns:cc="http://creativecommons.org/ns#"
   xmlns:rdf="http://www.w3.org/1999/02/22-rdf-syntax-ns#"
   xmlns:svg="http://www.w3.org/2000/svg"
   xmlns="http://www.w3.org/2000/svg"
   xmlns:sodipodi="http://sodipodi.sourceforge.net/DTD/sodipodi-0.dtd"
   xmlns:inkscape="http://www.inkscape.org/namespaces/inkscape"
   version="1.1"
   x="0px"
   y="0px"
   viewBox="0 0 600 600"
   style="enable-background:new 0 0 600 600;"
   xml:space="preserve"
   id="svg731"
   sodipodi:docname="Inspiration.svg"
   inkscape:version="1.0.2 (e86c870879, 2021-01-15)"><metadata
   id="metadata737"><rdf:RDF><cc:Work
       rdf:about=""><dc:format>image/svg+xml</dc:format><dc:type
         rdf:resource="http://purl.org/dc/dcmitype/StillImage" /></cc:Work></rdf:RDF></metadata><defs
   id="defs735" /><sodipodi:namedview
   pagecolor="#ffffff"
   bordercolor="#666666"
   borderopacity="1"
   objecttolerance="10"
   gridtolerance="10"
   guidetolerance="10"
   inkscape:pageopacity="0"
   inkscape:pageshadow="2"
   inkscape:window-width="1440"
   inkscape:window-height="826"
   id="namedview733"
   showgrid="false"
   inkscape:zoom="1.4118565"
   inkscape:cx="270.71727"
   inkscape:cy="377.67981"
   inkscape:window-x="0"
   inkscape:window-y="0"
   inkscape:window-maximized="1"
   inkscape:current-layer="svg731" />
<style
   type="text/css"
   id="style2">
	.st0{fill:#404B7C;}
	.st1{fill:#ECBDBB;}
	.st2{fill:none;stroke:#404B7C;stroke-width:1.0401611;stroke-linecap:round;stroke-linejoin:round;stroke-miterlimit:10;}
	.st3{fill:#F68D88;}
	.st4{fill:#9AB3DA;}
	.st5{fill:none;stroke:#ECBDBB;stroke-width:1.096442;stroke-linecap:round;stroke-linejoin:round;stroke-miterlimit:10;}
	.st6{fill:none;stroke:#D4E6FC;stroke-width:1.0433227;stroke-linecap:round;stroke-linejoin:round;stroke-miterlimit:10;}
	.st7{fill:none;stroke:#F68D88;stroke-width:1.0401611;stroke-linecap:round;stroke-linejoin:round;stroke-miterlimit:10;}
	.st8{fill:none;stroke:#404B7C;stroke-width:1.0361407;stroke-linecap:round;stroke-linejoin:round;stroke-miterlimit:10;}
	.st9{fill:#FFFFFF;}
	.st10{fill:#FFABAB;}
	.st11{fill:none;stroke:#ECBDBB;stroke-width:1.0433227;stroke-linecap:round;stroke-linejoin:round;stroke-miterlimit:10;}
	.st12{fill:#B0C8EA;}
	.st13{fill:none;stroke:#9AB3DA;stroke-width:1.0361407;stroke-linecap:round;stroke-linejoin:round;stroke-miterlimit:10;}
	.st14{fill:none;stroke:#ECBDBB;stroke-width:0.8894239;stroke-linecap:round;stroke-linejoin:round;stroke-miterlimit:10;}
	.st15{fill:none;stroke:#6B81BE;stroke-width:1.0433227;stroke-linecap:round;stroke-linejoin:round;stroke-miterlimit:10;}
	.st16{fill:#E9F3FF;}
	.st17{fill:none;stroke:#6B81BE;stroke-linecap:round;stroke-linejoin:round;stroke-miterlimit:10;}
	.st18{fill:none;stroke:#9AB3DA;stroke-width:1.0433227;stroke-linecap:round;stroke-linejoin:round;stroke-miterlimit:10;}
	.st19{fill:none;stroke:#404B7C;stroke-width:1.0509137;stroke-linecap:round;stroke-linejoin:round;stroke-miterlimit:10;}
	.st20{fill:none;stroke:#9AB3DA;stroke-width:1.0509137;stroke-linecap:round;stroke-linejoin:round;stroke-miterlimit:10;}
	.st21{fill:none;stroke:#ECBDBB;stroke-width:1.0509137;stroke-linecap:round;stroke-linejoin:round;stroke-miterlimit:10;}
	.st22{fill:none;stroke:#ECBDBB;stroke-width:1.0361407;stroke-linecap:round;stroke-linejoin:round;stroke-miterlimit:10;}
</style>









































<g
   id="WOMAN_1_HAIR_1_"
   style="stroke:none">
	<path
   class="st0"
   d="m 434.20496,126.98247 c 0,0 4.03234,19.42125 18.33349,24.04205 0,0 -1.83038,15.30866 -21.74194,17.06891 -19.91153,1.76025 -26.91565,-8.71538 -26.91565,-8.71538 0,0 10.14615,-7.45737 6.33963,-23.23247 -3.80649,-15.7751 19.95904,-20.86683 23.98447,-9.16311 z"
   id="path4"
   style="stroke:none" />
</g><g
   id="WOMAN_1_LEFT_ARM_1_"
   style="stroke:none">
	<g
   id="g23"
   style="stroke:none">
		<g
   id="g9"
   style="stroke:none">
			<path
   class="st1"
   d="m 498.3136,79.0056 -0.15225,-3.599678 -9.37171,-14.195381 c -0.51852,-0.579514 -0.57593,-1.437641 -0.13919,-2.081051 v -4e-6 c 0.47656,-0.702045 1.39899,-0.943233 2.15817,-0.564293 l 7.72086,4.954331 7.85449,-8.317067 6.51343,-9.460045 c 0.44568,-0.647251 1.29413,-0.877139 2.00555,-0.543403 v 0 c 0.78553,0.368469 1.13654,1.294029 0.79297,2.090713 l -0.48193,1.117409 v 0 c 0.87921,0.767239 1.26764,1.954373 1.01196,3.092926 l -0.11847,0.527435 0.37274,0.484322 c 0.34906,0.453591 0.56928,0.992981 0.63733,1.561276 l 0.63715,5.318683 c 0.22455,1.874882 -0.33966,3.758816 -1.55792,5.201573 l -2.08838,2.473327 -6.85401,4.70977 0.009,7.423439 z"
   id="path7"
   style="stroke:none" />
		</g>
		<g
   id="g19"
   style="stroke:none">
			<path
   class="st2"
   d="m 515.45728,56.450672 -0.44745,0.127064 c -0.93061,0.264229 -1.55994,1.130421 -1.52362,2.097095 l 0.0563,1.501652 c 0.0248,0.659119 -0.2619,1.291504 -0.77386,1.707348 l -1.83167,1.487743"
   id="path11"
   style="stroke:none" />
			<line
   class="st2"
   x1="507.73532"
   y1="55.305573"
   x2="509.12219"
   y2="64.414612"
   id="line13"
   style="stroke:none" />
			<path
   class="st2"
   d="m 514.43469,52.678554 -0.92846,0.42804 c -0.95624,0.440865 -1.43763,1.522194 -1.12525,2.527786 v 4e-6 c 0.0126,0.04068 0.024,0.08173 0.0341,0.123104 l 1.00043,4.083557"
   id="path15"
   style="stroke:none" />
			<path
   class="st2"
   d="m 513.94043,48.861408 -0.51807,0.235932 c -0.94714,0.431316 -1.43499,1.491714 -1.1463,2.491584 l 0.60901,1.864869"
   id="path17"
   style="stroke:none" />
		</g>
		<path
   class="st3"
   d="m 511.3671,77.804665 -14.43244,-0.934418 -13.12301,58.598843 -28.41236,18.88369 c 0,0 -10.52054,9.59354 -1.78082,20.38802 8.73971,10.79446 19.6665,1.66453 19.6665,1.66453 l 26.35126,-27.31985 c 3.45789,-3.58498 5.60196,-8.23386 6.08386,-13.19133 z"
   id="path21"
   style="fill:#ffffff;fill-opacity:1;stroke:none" />
	</g>
</g><g
   id="WOMAN_1_LEFT_LEG_1_"
   style="stroke:none">
	<g
   id="g44"
   style="stroke:none">
		<g
   id="g34"
   style="stroke:none">
			<path
   class="st1"
   d="m 402.47034,443.69626 c -0.43927,0.38486 -6.58634,11.92596 -6.58634,11.92596 l 6.12158,4.43964 7.5759,-9.74265 z"
   id="path26"
   style="stroke:none" />
			<path
   class="st3"
   d="m 404.47678,461.77139 -7.91694,-12.23407 -16.85427,10.22779 -4.4914,2.72619 6.69419,25.47321 13.91848,-4.83472 c 0,0 2.35553,-13.78769 8.64994,-21.3584 z"
   id="path28"
   style="stroke:none;fill:#dde3ff;fill-opacity:1" />
			<path
   class="st4"
   d="m 379.70773,458.63101 -6.31814,3.18247 9.49707,38.44931 c 0,0 9.12912,-1.3291 12.40097,-5.83017 3.27182,-4.50104 2.06903,-13.5261 2.06903,-13.5261 l -11.41287,3.70569 z"
   id="path30"
   style="stroke:none" />
			<path
   class="st5"
   d="m 398.22327,457.8992 c 0,0 -6.69522,8.70425 -8.38147,16.71066"
   id="path32"
   style="stroke:none" />
		</g>
		<g
   id="g42"
   style="stroke:none">
			<path
   class="st4"
   d="M 489.03674,263.14416 466.80432,381.4234 c -1.31991,7.9274 -5.2615,15.18268 -11.19369,20.60434 l -45.07535,54.13242 -10.39969,-11.07901 39.78915,-64.73475 -7.28131,-73.20617 c -0.18802,-6.15378 1.2096,-12.25247 4.05863,-17.71024 l 13.72162,-26.28582 h 38.61306 z"
   id="path36"
   style="stroke:none;fill:#9ac5da;fill-opacity:1" />
			<path
   class="st6"
   d="m 408.52737,441.54013 36.56635,-59.73715 -6.05716,-80.1698 c -0.04,-2.51779 0.59967,-4.99979 1.85168,-7.1846 l 8.74741,-15.26471"
   id="path38"
   style="stroke:none" />
			<line
   class="st6"
   x1="413.53537"
   y1="451.47601"
   x2="404.61221"
   y2="441.98492"
   id="line40"
   style="stroke:none" />
		</g>
	</g>
</g><g
   id="WOMAN_1_RIGHT_LEG_1_"
   style="stroke:none">
	<g
   id="g73"
   style="stroke:none">
		<g
   id="g55"
   style="stroke:none">
			<path
   class="st1"
   d="m 418.21735,452.65988 c -0.31064,0.49454 -2.89356,13.31299 -2.89356,13.31299 l 7.1369,2.49973 4.46714,-11.5047 z"
   id="path47"
   style="stroke:none" />
			<path
   class="st3"
   d="m 425.31808,469.4025 -11.09005,-9.45313 -13.21762,14.62772 -3.52207,3.89868 13.71149,22.48758 11.94995,-8.61963 c 0,0 -1.69333,-13.88455 2.1683,-22.94122 z"
   id="path49"
   style="stroke:none;fill:#dde3ff;fill-opacity:1" />
			<path
   class="st4"
   d="m 400.68759,473.4899 -5.14154,4.85919 20.11444,34.11673 c 0,0 8.36566,-3.88882 10.21085,-9.13855 1.84515,-5.24972 -1.89285,-13.55188 -1.89285,-13.55188 l -9.87278,6.82007 z"
   id="path51"
   style="stroke:none" />
			<path
   class="st5"
   d="m 418.21735,467.48419 c 0,0 -3.92087,10.25754 -3.24265,18.41144"
   id="path53"
   style="stroke:none" />
		</g>
		<g
   id="g71"
   style="stroke:none">
			<path
   class="st4"
   d="m 452.44183,273.34821 -0.3392,34.82498 9.91119,66.39291 c 1.00654,7.97321 -0.69122,16.05362 -4.8215,22.94754 l -27.67731,64.7771 -13.13781,-7.63516 19.57522,-73.42053 -27.94915,-68.05149 c -1.94318,-5.84195 -2.35138,-12.08545 -1.1854,-18.13064 l 5.61572,-29.11515 z"
   id="path57"
   style="stroke:none;fill:#9ac5da;fill-opacity:1" />
			<path
   class="st6"
   d="m 452.10263,308.17319 9.91119,66.39291 c 1.00654,7.97321 -0.69122,16.05362 -4.8215,22.94754"
   id="path59"
   style="stroke:none" />
			<path
   class="st6"
   d="m 459.25247,279.77402 -1.75912,22.94391 c -0.14545,1.89697 -1.32633,3.55865 -3.06995,4.31982 l -3.18933,1.39233 -6.7e-4,-31.3775"
   id="path61"
   style="stroke:none" />
			
				<ellipse
   transform="rotate(-78.642813,451.69916,382.93944)"
   class="st6"
   cx="451.69916"
   cy="382.93945"
   rx="12.834098"
   ry="8.1868172"
   id="ellipse63"
   style="stroke:none" />
			<path
   class="st6"
   d="m 423.40277,448.8588 17.91925,-67.70911 -28.77136,-75.07391 c -0.75967,-2.40079 -0.85788,-4.96204 -0.28427,-7.41395 l 4.56283,-22.69714"
   id="path65"
   style="stroke:none" />
			<line
   class="st6"
   x1="431.04739"
   y1="456.94345"
   x2="419.77914"
   y2="450.40662"
   id="line67"
   style="stroke:none" />
			<path
   class="st6"
   d="m 428.20966,278.14047 -3.29105,13.70737 c -1.21552,3.61731 -4.70444,5.97122 -8.51373,5.74411 l -3.83475,-0.22864"
   id="path69"
   style="stroke:none" />
		</g>
	</g>
</g><g
   id="WOMAN_1_BODY_1_"
   style="stroke:none">
	<g
   id="g84"
   style="stroke:none">
		<path
   class="st3"
   d="m 441.56244,155.46288 c 2.75806,-0.21688 10.43066,-1.09086 14.15518,-1.67727 8.39874,-1.32234 12.61102,3.9036 15.4512,11.91738 4.70337,13.2709 10.9252,31.51158 10.56418,34.15896 -0.5766,4.22849 -6.91931,14.41529 -6.91931,14.41529 l 20.758,50.16517 c 0,0 -14.22309,13.26206 -37.28754,13.64649 -23.06445,0.3844 -53.81705,-11.34003 -53.81705,-11.34003 0,0 15.76071,-43.05365 15.95291,-47.85875 0.1922,-4.8051 -11.91662,-30.17599 -12.49325,-40.93941 -0.5766,-10.76341 33.63568,-22.48783 33.63568,-22.48783 z"
   id="path76"
   style="fill:#ffffff;stroke:none;fill-opacity:1" />
		<path
   class="st5"
   d="m 459.19852,153.61794 c 6.1412,0.46255 9.55279,5.26391 11.9703,12.08505 0.89991,2.53914 1.85541,5.26022 2.80973,8.01921"
   id="path78"
   style="stroke:none" />
		<path
   class="st5"
   d="m 489.03674,261.36716 c 0,0 -14.03085,8.26477 -29.79156,9.6102 -15.76071,1.34542 -48.81976,-9.418 -48.81976,-9.418"
   id="path80"
   style="stroke:none" />
		<path
   class="st4"
   d="m 439.44818,154.11745 c 11.94742,-2.33559 15.12003,8.2007 15.12003,14.6075 0,0 -4.22849,-2.30646 -11.66037,-2.69086 0,0 -3.9722,1.92204 -7.9444,7.68815 0,0 -12.55731,-16.27325 4.48474,-19.60479 z"
   id="path82"
   style="stroke:none" />
	</g>
</g><g
   id="WOMAN_1_NECK_1_"
   style="stroke:none">
	<g
   id="g91"
   style="stroke:none">
		<polygon
   class="st1"
   points="434.71216,159.36737 442.14285,163.47636 445.72342,158.73109 443.09192,149.10031 441.62521,143.74025 432.01596,139.77145 432.58759,143.95595 "
   id="polygon87"
   style="stroke:none" />
		<path
   class="st0"
   d="m 432.01596,139.77145 0.57163,4.1845 c 3.61285,4.22761 8.4121,5.01488 10.50433,5.14436 l -1.46671,-5.36006 z"
   id="path89"
   style="stroke:none" />
	</g>
</g><g
   id="WOMAN_1_HEAD_1_"
   style="stroke:none">
	<g
   id="g110"
   style="stroke:none">
		<path
   class="st1"
   d="m 437.40814,119.56232 c 0,0 6.8392,5.19109 10.43271,13.96557 3.59351,8.77449 -3.07196,12.40299 -11.31634,12.10616 -8.24436,-0.29683 -16.51261,-8.79971 -16.51261,-8.79971 0,0 -6.56714,-7.55806 -2.1709,-13.84304 4.39624,-6.28497 12.79413,-8.22614 19.56714,-3.42898 z"
   id="path94"
   style="stroke:none" />
		<path
   class="st0"
   d="m 419.77905,125.4386 c 0,0 12.28791,3.87024 22.13297,-5.49601 0.32544,-11.45345 -19.89337,-18.0419 -25.58026,0.18661 -14.79071,12.11868 -0.69092,26.4775 8.2117,20.67947 0,0 2.25934,-6.39319 -4.76441,-15.37007 z"
   id="path96"
   style="stroke:none" />
		<g
   id="g108"
   style="stroke:none">
			<g
   id="g104"
   style="stroke:none">
				<path
   class="st1"
   d="m 430.79721,142.70197 -5.36124,-3.65833 c 0,0 -4.92443,-1.92458 -7.57168,1.54266 -2.64725,3.46723 4.71231,11.7853 12.93292,2.11567 z"
   id="path98"
   style="stroke:none" />
				<path
   class="st2"
   d="m 419.76056,142.33698 c 0,0 3.83646,-1.92229 8.07013,-0.60084"
   id="path100"
   style="stroke:none" />
				<path
   class="st2"
   d="m 424.15799,144.74869 c 0,0 -0.93277,-1.40183 -1.3486,-3.31983"
   id="path102"
   style="stroke:none" />
			</g>
			<path
   class="st7"
   d="m 427.34253,143.68246 c 1.57681,-0.60058 3.67902,1.07578 4.6954,3.74427 1.01636,2.66847 0.56202,5.31857 -1.0148,5.91916 -1.57684,0.60058 -3.67904,-1.07578 -4.6954,-3.74427 -0.39218,-1.02966 -0.5654,-2.05659 -0.53964,-2.96411"
   id="path106"
   style="stroke:none" />
		</g>
	</g>
</g><g
   id="WOMAN_1_FACE_1_"
   style="stroke:none">
	<g
   id="g125"
   style="stroke:none">
		<path
   class="st0"
   d="m 426.06018,131.17516 c 0,0 -0.92407,-4.10208 2.20322,-4.78486 0,0 -0.47879,-0.71394 0.0906,-1.19973 0.56943,-0.48578 2.1012,1.28605 2.1012,1.28605 0,0 -2.84607,1.94182 -4.39505,4.69854 z"
   id="path113"
   style="stroke:none" />
		<path
   class="st0"
   d="m 439.6824,122.44808 c 0,0 -2.59564,-2.83735 -3.6474,-0.61512 0,0 -0.49017,-0.51483 -0.91412,-0.27423 -0.73328,0.41614 0.52234,2.23601 0.52234,2.23601 0,0 1.88498,-1.47141 4.03918,-1.34666 z"
   id="path115"
   style="stroke:none" />
		<path
   class="st8"
   d="m 436.20071,130.08578 2.33228,3.02247 c 0,0 2.18884,-1.63533 2.64435,-0.0266 0.44742,1.58026 -1.5694,2.44479 -1.5694,2.44479"
   id="path117"
   style="stroke:none" />
		<path
   class="st8"
   d="m 429.94385,133.65239 c 0,0 0.26095,-2.69664 3.28811,-2.64377"
   id="path119"
   style="stroke:none" />
		<path
   class="st8"
   d="m 441.11551,125.81884 c 0,0 -2.04523,-0.52716 -2.86624,1.79523"
   id="path121"
   style="stroke:none" />
		<path
   class="st9"
   d="m 444.08908,138.47885 c 0,0 -3.10925,2.79393 -7.93628,2.05002 3.1308,-1.4937 5.77716,-3.14015 7.00101,-5.2352 z"
   id="path123"
   style="stroke:none" />
	</g>
</g><g
   id="WOMAN_1_RIGHT_ARM_1_"
   style="stroke:none">
	<g
   id="g132"
   style="stroke:none">
		<path
   class="st3"
   d="m 410.07257,173.24387 c -5.49475,3.3361 -21.56436,42.9505 -21.56436,42.9505 l -39.92081,50.07919 10.51486,7.12872 c 0,0 37.24753,-30.83168 40.99012,-35.82177 3.74255,-4.9901 23.52475,-33.68317 27.08911,-41.70298 3.56433,-8.0198 -2.13861,-31.72278 -17.10892,-22.63366 z"
   id="path128"
   style="fill:#ffffff;fill-opacity:1;stroke:none" />
		<path
   class="st5"
   d="m 421.14072,206.40735 c 2.80505,-4.47218 5.04974,-8.30005 6.04077,-10.52982 3.56433,-8.0198 -2.13861,-31.72278 -17.10892,-22.63366"
   id="path130"
   style="stroke:none" />
	</g>
</g><g
   id="PLANTS"
   style="stroke:none">
	<g
   id="g161"
   style="stroke:none">
		<g
   id="g139"
   style="stroke:none">
			<path
   class="st3"
   d="m 210.87984,531.06763 c 0,0 -2.61162,-31.62696 -31.33945,-38.34253 -28.72781,-6.71561 0,29.7185 0,29.7185 0,0 -23.87766,-18.89895 -38.42812,-13.30261 -14.55045,5.59631 -2.61161,17.26013 20.89296,22.2478 z"
   id="path135"
   style="stroke:none;fill:#dde3ff;fill-opacity:1" />
			<path
   class="st10"
   d="m 153.20697,493.09818 c 10.60666,8.52426 7.08868,13.64437 -1.86543,6.07601 -8.95413,-7.56835 -4.22498,-10.9707 1.86543,-6.07601 z"
   id="path137"
   style="stroke:none;fill:#9ab3da;fill-opacity:1" />
		</g>
		<g
   id="g147"
   style="stroke:none">
			<path
   class="st3"
   d="m 479.49078,497.97879 c -1.18005,0.97998 -2.40002,1.95001 -3.65002,2.92999 -2.22003,1.72998 -4.52002,3.45002 -6.85999,5.15003 -13.65002,9.95999 -28.35003,19.18002 -33.61999,25.32998 0,0 -4.88001,-29.62002 15.35998,-59.50998 2.40998,-3.55999 4.90998,-6.70001 7.46997,-9.45001 6.38001,-6.88 13.08002,-11.39001 19.52002,-14.20001 12.64002,-5.53003 24.22004,-4.5 30.18,-2 2.85003,13.07001 -12.76001,38.85999 -28.39997,51.75 z"
   id="path141"
   style="stroke:none;fill:#dde3ff;fill-opacity:1" />
			<path
   class="st10"
   d="m 475.84076,500.90878 c -2.22003,1.72998 -4.52002,3.45002 -6.85999,5.15003 2.02997,-8.41004 2.40998,-19.73999 -6,-28.35004 -4.67004,-4.76996 -5.66003,-10.13995 -4.79004,-15.27997 6.38001,-6.88 13.08002,-11.39001 19.52002,-14.20001 -2.41998,5.90997 -3.39001,13.71002 1.90003,21.76001 5.63,8.58002 1.53998,20.92999 -3.77002,30.91998 z"
   id="path143"
   style="stroke:none;fill:#f1f3ff;fill-opacity:1" />
			<path
   class="st11"
   d="m 500.76215,450.02783 c 0,0 -41.58414,20.67325 -62.58414,72.64014"
   id="path145"
   style="stroke:none" />
		</g>
		<g
   id="g155"
   style="stroke:none">
			<path
   class="st4"
   d="m 200.32504,497.42978 c 1.32212,1.00159 2.68686,1.99054 4.08452,2.98877 2.4818,1.76153 5.04947,3.50848 7.65938,5.23187 15.22673,10.09976 31.55199,19.34946 37.54204,25.73837 0,0 3.84047,-32.23294 -19.4681,-63.54373 -2.77539,-3.72928 -5.62774,-7.00049 -8.52606,-9.8475 -7.22446,-7.12387 -14.68008,-11.67212 -21.7727,-14.39646 -13.92163,-5.36309 -26.38123,-3.69088 -32.6987,-0.70227 -2.44727,14.25663 15.66168,41.36213 33.17962,54.53095 z"
   id="path149"
   style="stroke:none" />
			<path
   class="st12"
   d="m 204.40956,500.41855 c 2.4818,1.76153 5.04947,3.50848 7.65938,5.23187 -2.59924,-8.98691 -3.55718,-21.20776 5.11171,-30.91516 4.81436,-5.37842 5.62434,-11.2272 4.43617,-16.7377 -7.22446,-7.12387 -14.68008,-11.67212 -21.7727,-14.39646 2.89975,6.26734 4.32451,14.64652 -1.00112,23.59815 -5.66726,9.54062 -0.65228,22.68414 5.56656,33.2193 z"
   id="path151"
   style="stroke:none" />
			<path
   class="st6"
   d="m 175.02968,446.65829 c 0,0 45.92035,20.32312 71.11661,75.4459"
   id="path153"
   style="stroke:none" />
		</g>
		<g
   id="g159"
   style="stroke:none">
			<path
   class="st4"
   d="m 465.47504,531.38879 c 0,0 9.55279,-15.87793 22.33664,-27.22335 9.86102,-8.75147 26.49502,-11.60297 32.91085,-10.65247 -0.59405,6.77228 -6.22674,17.259 -15.24411,24.4216 -10.53805,8.37048 -27.05029,12.88532 -40.00338,13.45422 z"
   id="path157"
   style="stroke:none" />
		</g>
	</g>
</g><g
   id="WOMAN_1_RIGHT_ARM"
   style="stroke:none">
	<g
   id="g180"
   style="stroke:none">
		<path
   class="st3"
   d="m 167.65741,163.62044 -51.64572,-28.0403 -12.23315,20.50062 45.92315,29.51191 c 7.69403,4.94447 18.11585,2.01269 21.82433,-6.34749 0.6082,-1.37107 1.10438,-2.89568 1.44311,-4.58948 0.88391,-4.41978 -1.35057,-8.88463 -5.31172,-11.03526 z"
   id="path164"
   style="fill:#ffffff;fill-opacity:1;stroke:none" />
		<path
   class="st0"
   d="m 122.85696,135.96313 -7.90915,-5.61648 c 0,0 -11.19263,-0.45587 -16.975284,8.47353 -5.782661,8.92938 -1.002883,16.13255 -1.002883,16.13255 l 10.359497,8.29062 c 0,0 18.55322,-8.6072 15.52782,-27.28022 z"
   id="path166"
   style="stroke:none" />
		<g
   id="g178"
   style="stroke:none">
			<g
   id="g170"
   style="stroke:none">
				<path
   class="st1"
   d="m 113.2578,136.22897 c -3.43748,-11.73565 -5.49727,-25.10366 -6.96239,-39.176541 l -7.113914,0.802078 c -7.799561,35.148833 -1.120507,51.711323 -1.120507,51.711323 6.210401,1.79965 14.194341,-5.20713 15.196811,-13.33686 z"
   id="path168"
   style="stroke:none" />
			</g>
			<path
   class="st1"
   d="m 106.46758,102.5436 1.86348,-3.095991 c 1.09763,-1.823593 1.29174,-4.05275 0.51982,-6.036301 -1.17138,-3.01007 -2.87026,-7.22232 -3.57259,-8.206344 -1.12124,-1.570923 -2.97438,0.291015 -1.70438,4.105591 l -1.81105,-2.835488 c 0,0 0.15457,-5.222214 0.32306,-8.242493 0.0297,-0.532997 -0.27589,-1.022934 -0.76648,-1.23339 v 0 c -0.68815,-0.29522 -1.479734,0.0667 -1.70876,0.779609 -0.472138,1.469635 -1.200303,3.84037 -1.516396,5.417862 0,0 0.620407,-4.872085 0.861534,-7.521377 0.05631,-0.618676 -0.322571,-1.189759 -0.911858,-1.386429 v 0 c -0.742668,-0.247849 -1.537681,0.184891 -1.725196,0.945045 -0.441346,1.789154 -1.151062,4.978485 -1.343346,7.678101 l 0.3041,-7.223244 c 0.03072,-0.729591 -0.546257,-1.340919 -1.276405,-1.352417 v 0 c -0.638489,-0.01005 -1.188187,0.439347 -1.298241,1.06836 -0.319122,1.823906 -0.902313,5.581863 -0.848755,8.419815 l -0.859062,-6.342964 c -0.09779,-0.722069 -0.767609,-1.224419 -1.488174,-1.116105 v 0 c -0.590928,0.08883 -1.044732,0.564515 -1.105187,1.159012 -0.229141,2.253243 -0.635818,7.823929 0.382561,12.049591 l 10.687927,11.139767 z"
   id="path172"
   style="stroke:none" />
			<path
   class="st8"
   d="m 92.905556,85.820183 4.534897,4.958389 c 0,0 5.207937,2.354225 6.803097,5.379257"
   id="path174"
   style="stroke:none" />
			<line
   class="st8"
   x1="104.07785"
   y1="89.688797"
   x2="106.91216"
   y2="92.777283"
   id="line176"
   style="stroke:none" />
		</g>
	</g>
</g><g
   id="WOMAN_1_BACK_SHIRT"
   style="stroke:none">
	<path
   class="st4"
   d="m 240.61401,311.96613 c 0,0 -37.98889,37.11554 -82.55479,28.02398 -44.5659,-9.09155 -65.649483,-47.78067 -65.649483,-47.78067 l 29.677363,-10.71329 90.01564,23.82883 z"
   id="path183"
   style="stroke:none" />
</g><g
   id="WOMAN_1_RIGHT_LEG"
   style="stroke:none;fill:#404b7c;fill-opacity:1">
	<g
   id="g204"
   style="stroke:none;fill:#404b7c;fill-opacity:1">
		<g
   id="g194"
   style="stroke:none;fill:#404b7c;fill-opacity:1">
			<path
   class="st1"
   d="m 190.56059,455.75153 12.67801,11.09722 c 0,0 4.41425,-0.98867 5.77713,-6.04846 l -12.21321,-13.4003 z"
   id="path186"
   style="stroke:none;fill:#ffffff;fill-opacity:1" />
			<g
   id="g192"
   style="stroke:none;fill:#404b7c;fill-opacity:1">
				<path
   class="st0"
   d="m 224.00894,466.44611 c 3.49834,2.71844 7.08075,6.89856 10.72348,12.12194 l -2.52754,2.64618 c 0,0 -8.28127,-5.59646 -12.75656,-7.26855 -4.47528,-1.67212 0.53563,-8.88611 4.56062,-7.49957 z"
   id="path188"
   style="stroke:none;fill:#ffffff;fill-opacity:1" />
				<path
   class="st3"
   d="m 208.06776,458.15988 c 0,0 -1.30761,4.24509 -7.51026,7.86301 0,0 5.96112,21.30838 5.78417,26.48886 -0.17694,5.18045 -3.30447,13.90424 -4.19238,17.1044 -0.88791,3.2002 15.39757,-12.18509 18.32782,-16.6153 2.93025,-4.4302 1.20009,-12.15515 1.66249,-17.78585 0.4624,-5.63071 1.86939,-8.76886 1.86939,-8.76886 0,0 -7.82569,-5.88425 -15.94123,-8.28626 z"
   id="path190"
   style="stroke:none;fill:#ffffff;fill-opacity:1" />
			</g>
		</g>
		<g
   id="g202"
   style="stroke:none;fill:#404b7c;fill-opacity:1">
			<g
   id="g198"
   style="stroke:none;fill:#404b7c;fill-opacity:1">
				<path
   class="st0"
   d="m 146.03909,255.90808 c -16.33207,-1.29957 -25.4795,14.48963 -25.4795,14.48963 0,0 -8.66233,28.89859 -7.48043,43.61529 1.19052,14.72739 10.384,77.31143 10.384,77.31143 l 2.2931,18.87415 63.55928,49.12704 c 0,0 9.71031,-6.98086 11.34279,-13.0166 0,0 -18.76633,-20.30579 -27.90438,-31.6329 -5.43727,-6.75049 -11.64877,-12.37967 -17.70314,-17.31098 2.14327,-16.13287 6.16402,-49.6141 7.01602,-80.08667 1.18514,-42.05749 0.30539,-60.0805 -16.02774,-61.37039 z"
   id="path196"
   style="stroke:none;fill:#9ac5da;fill-opacity:1" />
			</g>
			<polyline
   class="st13"
   points="149.191452,323.3687134 145.5753021,402.7340393 191.5367126,446.8242188    "
   id="polyline200"
   style="stroke:none;fill:#9ac5da;fill-opacity:1" />
		</g>
	</g>
</g><g
   id="WOMAN_1_LEFT_LEG"
   style="stroke:none">
	<g
   id="g225"
   style="stroke:none">
		<g
   id="g215"
   style="stroke:none">
			<path
   class="st1"
   d="m 210.29535,474.45203 5.36339,15.97229 c 0,0 4.31143,1.36914 8.03723,-2.31559 l -3.8019,-17.72784 z"
   id="path207"
   style="stroke:none" />
			<g
   id="g213"
   style="stroke:none">
				<path
   class="st0"
   d="m 237.27348,485.29251 c 3.88951,2.12131 8.09676,5.67181 12.5311,10.2424 l -2.06976,3.01776 c 0,0 -9.07257,-4.19387 -13.75832,-5.12552 -4.68573,-0.93164 -0.89844,-8.85675 3.29698,-8.13464 z"
   id="path209"
   style="stroke:none;fill:#ffffff;fill-opacity:1" />
				<path
   class="st3"
   d="m 222.6172,479.67401 c 0,0 -3.01762,4.4 -8.55871,8.9671 0,0 9.30587,20.07441 9.96324,25.21607 0.65735,5.14166 -1.02855,14.25445 -1.39098,17.55566 -0.36244,3.30127 13.24076,-14.49975 15.42148,-19.34308 2.18073,-4.84329 -0.76762,-12.19009 -1.21551,-17.82199 -0.44791,-5.63186 0.43681,-8.95523 0.43681,-8.95523 0,0 -6.26038,-4.55105 -14.65633,-5.61853 z"
   id="path211"
   style="stroke:none;fill:#ffffff;fill-opacity:1" />
			</g>
		</g>
		<path
   class="st0"
   d="m 223.78046,471.38632 c -4.45002,4.39002 -16.35999,5.53003 -16.35999,5.53003 L 179.6873,408.46448 c -1.12866,-2.7858 -1.98988,-5.67258 -2.57207,-8.6214 l -2.19476,-11.11673 c 0,0 -17.73607,-63.36166 -20.02605,-77.95169 -2.27002,-14.58997 0.71288,-51.32672 0.71288,-51.32672 0,0 9.87317,-12.22161 26.25317,-12.14159 16.39002,0.08 24.10999,22.68001 26.04999,64.70998 1.14002,24.28003 0.16004,64.98999 -0.66998,82.90002 l 5.91998,23.78998 c 1,3.64001 1.84998,7.41003 2.44,11.29999 2.19001,14.38 8.18,41.38 8.18,41.38 z"
   id="path217"
   style="stroke:none;fill:#9ac5da;fill-opacity:1" />
		<path
   class="st13"
   d="m 159.60001,331.55283 c -2.27687,-9.06058 -4.07564,-16.76468 -4.70559,-20.77817 -1.72258,-11.07144 -0.42033,-34.89585 0.30794,-45.74295"
   id="path219"
   style="stroke:none" />
		<path
   class="st13"
   d="m 148.00334,298.29227 1.50403,15.60998 c 0.2401,2.49192 1.96315,4.59125 4.3604,5.31269 l 2.95329,0.88876"
   id="path221"
   style="stroke:none" />
		<polyline
   class="st13"
   points="194.0986176,314.3283691 195.9396362,400.0260315 215.2508698,470.3808899   "
   id="polyline223"
   style="stroke:none" />
	</g>
</g><g
   id="WOMAN_1_BODY"
   style="fill:#ffffff;stroke:none">
	<g
   id="g252"
   style="fill:#ffffff;stroke:none">
		<g
   id="g234"
   style="fill:#ffffff;stroke:none">
			<path
   class="st4"
   d="m 184.91862,165.97537 20.0711,22.76203 c 0,0 7.97694,118.4519 7.04419,118.32785 -0.93276,-0.12406 -32.58098,5.47561 -59.44602,-3.4766 -26.86504,-8.95221 -30.88861,-16.76498 -30.88861,-16.76498 l 23.29413,-72.84206 7.83334,-36.29544 z"
   id="path228"
   style="fill:#ffffff;stroke:none" />
			<path
   class="st8"
   d="m 212.0339,307.06525 c -0.93275,-0.12406 -32.58097,5.47561 -59.44601,-3.4766 -26.86504,-8.95221 -30.88861,-16.76498 -30.88861,-16.76498"
   id="path230"
   style="fill:#ffffff;stroke:none" />
			<path
   class="st8"
   d="m 198.9677,303.00702 c 0,0 -45.1438,-1.57437 -72.21869,-18.46494"
   id="path232"
   style="fill:#ffffff;stroke:none" />
		</g>
		<path
   class="st3"
   d="m 172.82294,256.91879 c 3.78262,43.77298 7.15374,73.71183 7.15374,73.71183 20.82766,1.24179 60.63733,-18.66449 60.63733,-18.66449 0,0 -26.46331,-38.9036 -26.96571,-66.81517 -0.50241,-27.91158 5.72398,-67.68792 5.72398,-67.68792 0,0 -21.10011,-11.48767 -28.14358,-11.54072 -0.2128,5.88235 -1.34567,30.19711 -5.71028,47.12086 -5.00629,19.36966 -12.69548,43.87561 -12.69548,43.87561 z"
   id="path236"
   style="fill:#dde3ff;stroke:none;fill-opacity:1" />
		<g
   id="g242"
   style="fill:#ffffff;stroke:none">
			<path
   class="st3"
   d="m 179.59418,164.37489 c 0,0 -5.36115,-0.38359 -15.80533,-0.29472 -4.48491,0.0382 -8.45752,2.92325 -9.86505,7.18175 l -3.58284,10.8399 c 0,0 -8.13114,15.56749 -8.95897,19.4126 -0.82782,3.84512 -0.65486,23.1326 -0.65486,23.1326 0,0 -22.40948,52.67869 -48.317394,67.56242 0,0 5.593087,12.03055 14.103634,21.90113 15.01451,-19.29267 28.05958,-41.64985 38.7946,-67.60155 0,0 18.37619,-47.76088 22.55287,-57.75264 4.17668,-9.99175 11.73334,-24.38149 11.73334,-24.38149 z"
   id="path238"
   style="fill:#dde3ff;stroke:none;fill-opacity:1" />
			<path
   class="st14"
   d="m 154.18829,170.18718 -3.84733,11.91464 c 0,0 -8.13114,15.56749 -8.95897,19.4126 -0.82782,3.84512 -0.65486,23.1326 -0.65486,23.1326 0,0 -3.11983,8.05321 -13.43144,26.46116"
   id="path240"
   style="fill:#ffffff;stroke:none" />
		</g>
		<g
   id="g250"
   style="fill:#ffffff;stroke:none">
			<path
   class="st3"
   d="m 187.85344,161.35577 c 6.1348,1.81392 9.7263,16.48166 10.41785,29.12488 l -7.87618,5.49175 5.36745,13.37059 c 0,0 -14.02059,24.92526 -22.93962,47.5758 0,0 7.76722,-37.78084 12.43094,-58.57148 2.51127,-21.65703 -7.33347,-23.76699 -18.06847,-4.51261 -10.76411,21.4559 -21.87743,52.6743 -21.87743,52.6743 0,0 3.444,-32.23843 7.40421,-49.32564 l 11.42531,-6.60179 -2.03401,-8.49739 c 0,0 14.07955,-24.1791 25.74995,-20.72841 z"
   id="path244"
   style="fill:#ffffff;stroke:none" />
			<path
   class="st14"
   d="m 146.03909,241.63847 c 0,0 2.71289,-27.3679 6.6731,-44.45511 l 11.42531,-6.60179 -2.03401,-8.49739 c 0,0 4.7696,-8.19093 11.05772,-14.35765"
   id="path246"
   style="fill:#ffffff;stroke:none" />
			<path
   class="st14"
   d="m 194.29892,169.56676 c 2.23001,5.77359 3.57645,13.67552 3.97237,20.91389 l -7.87618,5.49175 5.36745,13.37059 c 0,0 -10.70458,19.03019 -19.35695,38.94488"
   id="path248"
   style="fill:#ffffff;stroke:none" />
		</g>
	</g>
</g><g
   id="WOMAN_1_HAIR"
   style="stroke:none">
	<g
   id="g261"
   style="stroke:none">
		<path
   class="st0"
   d="m 206.89923,128.06192 c 0,0 5.5332,-8.11336 12.90852,-9.06221 7.37532,-0.94884 11.25605,7.00803 11.13764,16.07382 -0.11839,9.0658 -7.68575,15.87166 -16.59644,6.18106 -7.00035,-7.61306 -7.44972,-13.19267 -7.44972,-13.19267 z"
   id="path255"
   style="stroke:none" />
		<path
   class="st0"
   d="m 208.74998,128.43741 c 0,0 10.71552,7.57612 8.24259,17.86522 -2.47292,10.28909 -21.64848,16.24588 -30.7652,9.17355 -9.11673,-7.07234 -5.70453,-15.27716 -5.70453,-15.27716 0,0 -8.55284,-1.79507 -7.72893,-10.14629 0.82393,-8.35121 5.28116,-9.3273 9.61947,-7.94876 0,0 -0.4177,-10.54999 9.27111,-10.35835 9.6888,0.19165 16.32714,6.18306 17.06549,16.69179 z"
   id="path257"
   style="stroke:none" />
		<path
   class="st13"
   d="m 208.74998,128.43742 c 0.004,0.003 7.87681,5.57093 8.56519,13.64203"
   id="path259"
   style="stroke:none" />
	</g>
</g><g
   id="WOMAN_1_NECK"
   style="stroke:none">
	<g
   id="g272"
   style="stroke:none">
		<path
   class="st1"
   d="m 167.18954,193.83527 c 0,0 8.32624,-15.87795 10.65438,-20.63102 0.73546,-1.50715 1.57222,-4.38404 2.36806,-7.6044 1.22599,-5.33368 9.98761,-5.20752 9.6426,1.9746 -0.73773,3.49859 -1.37289,6.74264 -1.68754,8.90132 l -2.90956,21.87619 c 0,0 -6.45278,4.83733 -13.14939,4.46554 0,0 -4.12153,-3.07955 -4.91855,-8.98223 z"
   id="path264"
   style="stroke:none" />
		<g
   id="g270"
   style="stroke:none">
			<path
   class="st1"
   d="m 180.3053,165.1891 c 0.50162,-1.71177 0.99574,-3.5216 1.45308,-5.27635 1.36599,-5.27524 2.4382,-10.04175 2.4382,-10.04175 l 10.57704,-0.37205 c 0,0 -0.20087,0.70343 -0.53847,1.89239 -0.91508,3.24706 -2.82425,10.10398 -4.38057,16.18311 -5.63321,2.96797 -8.45379,-0.39641 -9.54928,-2.38535 z"
   id="path266"
   style="stroke:none" />
			<path
   class="st0"
   d="m 181.75839,159.9128 c 6.18955,-0.77835 10.16652,-4.96761 12.47676,-8.52147 0.33763,-1.18897 0.53846,-1.89237 0.53846,-1.89237 l -10.57702,0.37203 c 0,0 -1.0722,4.76654 -2.4382,10.04181 z"
   id="path268"
   style="stroke:none" />
		</g>
	</g>
</g><g
   id="WOMAN_1_HEAD"
   style="stroke:none">
	<g
   id="g291"
   style="stroke:none">
		<path
   class="st1"
   d="m 183.49483,130.64355 c 0,0 -5.38922,6.73763 -6.73592,16.16979 -1.34671,9.43217 6.03906,11.33089 13.99935,9.01709 7.96028,-2.3138 13.92866,-12.6293 13.92866,-12.6293 0,0 4.54288,-8.97715 -1.28415,-14.02153 -5.82703,-5.04439 -14.48649,-4.87356 -19.90794,1.46395 z"
   id="path275"
   style="stroke:none" />
		<path
   class="st0"
   d="m 202.11534,132.04013 c 0,0 -11.0227,6.78864 -22.91563,0.08 0,0 11.2657,-16.27131 24.97081,-6.09991 13.70511,10.17139 5.27183,21.22748 -2.92308,22.16627 0,0 -3.77144,-5.67457 0.8679,-16.14633 z"
   id="path277"
   style="stroke:none" />
		<g
   id="g289"
   style="stroke:none">
			<g
   id="g285"
   style="stroke:none">
				<path
   class="st1"
   d="m 195.6188,151.56699 4.32554,-4.88115 c 0,0 4.32565,-3.08458 7.75654,-0.35625 3.43089,2.72833 -1.69748,12.64059 -12.08208,5.2374 z"
   id="path279"
   style="stroke:none" />
				<path
   class="st2"
   d="m 206.28311,148.50108 c 0,0 -4.21025,-0.93092 -8.01094,1.39635"
   id="path281"
   style="stroke:none" />
				<path
   class="st2"
   d="m 202.59056,151.93089 c 0,0 0.56465,-1.59497 0.49883,-3.56596"
   id="path283"
   style="stroke:none" />
			</g>
			<path
   class="st7"
   d="m 199.22578,151.67401 c -1.68393,-0.19797 -3.32061,1.95169 -3.65564,4.80139 -0.33503,2.84972 0.75846,5.32036 2.44237,5.51834 1.68393,0.19797 3.32062,-1.95169 3.65564,-4.8014 0.12929,-1.0996 0.0459,-2.14276 -0.2021,-3.02069"
   id="path287"
   style="stroke:none" />
		</g>
	</g>
</g><g
   id="WOMAN_1_FACE"
   style="stroke:none">
	<g
   id="g306"
   style="stroke:none">
		<path
   class="st0"
   d="m 197.40385,139.1722 c 0,0 -0.10696,-4.22393 -3.32179,-4.12124 0,0 0.29122,-0.81323 -0.38293,-1.14674 -0.67415,-0.33351 -1.73155,1.76909 -1.73155,1.76909 0,0 3.25,1.19316 5.43627,3.49889 z"
   id="path294"
   style="stroke:none" />
		<path
   class="st0"
   d="m 181.98749,134.01389 c 0,0 1.83238,-3.40209 3.40289,-1.49506 0,0 0.35118,-0.62201 0.82337,-0.49168 0.81668,0.2254 0.0401,2.307 0.0401,2.307 0,0 -2.19803,-0.97082 -4.2664,-0.32026 z"
   id="path296"
   style="stroke:none" />
		<path
   class="st8"
   d="m 187.25558,140.60094 -1.53031,3.51777 c 0,0 -2.53437,-1.05592 -2.58313,0.62346 -0.0479,1.64966 2.12956,1.99677 2.12956,1.99677"
   id="path298"
   style="stroke:none" />
		<path
   class="st8"
   d="m 181.80531,136.95288 c 0,0 2.25743,-0.83168 3.38614,1.30693"
   id="path300"
   style="stroke:none" />
		<path
   class="st8"
   d="m 194.84808,141.75056 c 0,0 -1.36268,-2.5384 -4.07293,-1.51812"
   id="path302"
   style="stroke:none" />
		<path
   class="st9"
   d="m 181.63036,150.71616 c 0,0 3.71571,1.95881 8.2364,0.0486 -3.4174,-0.68662 -6.4003,-1.64103 -8.10727,-3.38187 z"
   id="path304"
   style="stroke:none" />
	</g>
</g><g
   id="WOMAN_1_LEFT_ARM"
   style="stroke:none">
	<g
   id="g317"
   style="stroke:none">
		<path
   class="st3"
   d="m 224.57071,183.30573 20.74667,46.94108 -21.12942,11.11182 -20.7348,-36.43996 c -4.54042,-7.97946 -3.53276,-18.14802 2.90705,-24.69142 2.70585,-2.74934 6.07529,-4.52219 10.10814,-3.69824 3.63716,0.74308 6.60166,3.38127 8.10236,6.77672 z"
   id="path309"
   style="fill:#ffffff;fill-opacity:1;stroke:none" />
		<path
   class="st14"
   d="m 212.10979,220.13211 -8.65663,-15.21344 c -4.54043,-7.97946 -3.53277,-18.14802 2.90705,-24.69142 1.89246,-1.92288 4.10955,-3.36812 6.65116,-3.78134"
   id="path311"
   style="stroke:none" />
		<path
   class="st0"
   d="m 245.30345,223.39085 5.18257,8.20003 c 0,0 -0.14731,11.20094 -9.37506,16.49452 -9.22774,5.29358 -16.16316,0.13298 -16.16316,0.13298 l -7.7209,-10.79078 c 0,0 9.59347,-18.06298 28.07655,-14.03675 z"
   id="path313"
   style="stroke:none" />
		<path
   class="st1"
   d="m 246.69489,235.44792 14.65499,31.06932 -7.12872,3.88047 c 0,0 -17.9406,-16.17751 -23.16832,-25.68245 0,0 2.80362,-10.9307 15.64205,-9.26734 z"
   id="path315"
   style="stroke:none" />
	</g>
</g><g
   id="ORNAMENT_10"
   style="stroke:none">
	<g
   id="g328"
   style="stroke:none">
		<line
   class="st15"
   x1="104.8589"
   y1="440.06296"
   x2="104.8589"
   y2="445.84283"
   id="line320"
   style="stroke:none" />
		<line
   class="st15"
   x1="104.8589"
   y1="452.01239"
   x2="104.8589"
   y2="457.79227"
   id="line322"
   style="stroke:none" />
		<line
   class="st15"
   x1="113.72356"
   y1="448.92761"
   x2="107.94367"
   y2="448.92761"
   id="line324"
   style="stroke:none" />
		<line
   class="st15"
   x1="101.77414"
   y1="448.92761"
   x2="95.994255"
   y2="448.92761"
   id="line326"
   style="stroke:none" />
	</g>
</g><g
   id="ORNAMENT_9"
   style="stroke:none">
	<g
   id="g339"
   style="stroke:none">
		<line
   class="st15"
   x1="525.66602"
   y1="302.59543"
   x2="525.66602"
   y2="308.37531"
   id="line331"
   style="stroke:none" />
		<line
   class="st15"
   x1="525.66602"
   y1="314.54483"
   x2="525.66602"
   y2="320.32474"
   id="line333"
   style="stroke:none" />
		<line
   class="st15"
   x1="534.53064"
   y1="311.46008"
   x2="528.75073"
   y2="311.46008"
   id="line335"
   style="stroke:none" />
		<line
   class="st15"
   x1="522.58124"
   y1="311.46008"
   x2="516.80133"
   y2="311.46008"
   id="line337"
   style="stroke:none" />
	</g>
</g><g
   id="ORNAMENT_8"
   style="stroke:none">
	<g
   id="g350"
   style="stroke:none">
		<line
   class="st15"
   x1="472.95953"
   y1="33.633701"
   x2="472.95953"
   y2="39.413582"
   id="line342"
   style="stroke:none" />
		<line
   class="st15"
   x1="472.95953"
   y1="45.583118"
   x2="472.95953"
   y2="51.362999"
   id="line344"
   style="stroke:none" />
		<line
   class="st15"
   x1="481.82419"
   y1="42.498348"
   x2="476.04431"
   y2="42.498348"
   id="line346"
   style="stroke:none" />
		<line
   class="st15"
   x1="469.87479"
   y1="42.498348"
   x2="464.09491"
   y2="42.498348"
   id="line348"
   style="stroke:none" />
	</g>
</g><g
   id="ORNAMENT_7"
   style="stroke:none">
	<g
   id="g361"
   style="stroke:none">
		<line
   class="st15"
   x1="259.48917"
   y1="199.11626"
   x2="259.48917"
   y2="203.87016"
   id="line353"
   style="stroke:none" />
		<line
   class="st15"
   x1="259.48917"
   y1="208.94455"
   x2="259.48917"
   y2="213.69844"
   id="line355"
   style="stroke:none" />
		<line
   class="st15"
   x1="266.78024"
   y1="206.40735"
   x2="262.02637"
   y2="206.40735"
   id="line357"
   style="stroke:none" />
		<line
   class="st15"
   x1="256.95197"
   y1="206.40735"
   x2="252.19807"
   y2="206.40735"
   id="line359"
   style="stroke:none" />
	</g>
</g><g
   id="ORNAMENT_6"
   style="stroke:none">
	<circle
   class="st15"
   cx="70.049751"
   cy="258.24228"
   r="4.5803947"
   id="circle364"
   style="stroke:none" />
</g><g
   id="ORNAMENT_5"
   style="stroke:none">
	<circle
   class="st15"
   cx="500.40607"
   cy="405.78598"
   r="4.5803947"
   id="circle367"
   style="stroke:none" />
</g><g
   id="ORNAMENT_4"
   style="stroke:none">
	<circle
   class="st16"
   cx="466.74957"
   cy="99.746483"
   r="6.2099867"
   id="circle370"
   style="stroke:none" />
</g><g
   id="ORNAMENT_3"
   style="stroke:none">
	<circle
   class="st16"
   cx="148.75812"
   cy="121.70932"
   r="7.3765845"
   id="circle373"
   style="stroke:none" />
</g><g
   id="ORNAMENT_2"
   style="stroke:none">
	<circle
   class="st16"
   cx="360.341"
   cy="216.62552"
   r="5.5169287"
   id="circle376"
   style="stroke:none" />
</g><g
   id="ORNAMENT_1"
   style="stroke:none">
	<g
   id="g387"
   style="stroke:none">
		<line
   class="st17"
   x1="106.91216"
   y1="45.962452"
   x2="106.91216"
   y2="49.18531"
   id="line379"
   style="stroke:none" />
		<line
   class="st17"
   x1="106.91216"
   y1="52.625443"
   x2="106.91216"
   y2="55.848301"
   id="line381"
   style="stroke:none" />
		<line
   class="st17"
   x1="111.85509"
   y1="50.905376"
   x2="108.63223"
   y2="50.905376"
   id="line383"
   style="stroke:none" />
		<line
   class="st17"
   x1="105.1921"
   y1="50.905376"
   x2="101.96924"
   y2="50.905376"
   id="line385"
   style="stroke:none" />
	</g>
</g><g
   id="BOX"
   style="stroke:none">
	<g
   id="g396"
   style="stroke:none">
		<path
   class="st0"
   d="m 361.25049,454.50632 h -95.91004 c -3.76001,0 -6.79998,3.04004 -6.79998,6.79004 v 62.78994 c 0,3.75 3.03997,6.78998 6.79998,6.78998 h 95.91004 c 3.75,0 6.78998,-3.03998 6.78998,-6.78998 v -62.78994 c 0,-3.75 -3.03998,-6.79004 -6.78998,-6.79004 z m -32.92999,26.39001 c -0.98005,0.97998 -2.33002,1.59003 -3.83002,1.59003 h -22.39002 c -2.98999,0 -5.41998,-2.42999 -5.41998,-5.42005 0,-1.5 0.60999,-2.84997 1.58997,-3.82995 0.98004,-0.98004 2.34002,-1.59003 3.83001,-1.59003 h 22.39002 c 2.98999,0 5.40997,2.42999 5.40997,5.41998 0,1.5 -0.60998,2.85004 -1.57995,3.83002 z"
   id="path390"
   style="stroke:none;fill:#82c9ed;fill-opacity:1" />
		<path
   class="st0"
   d="M 369.01587,462.37863 H 257.57031 c -2.21861,0 -4.01716,-1.79855 -4.01716,-4.01718 v -16.44092 c 0,-2.2186 1.79855,-4.01715 4.01716,-4.01715 h 111.44556 c 2.21863,0 4.01718,1.79855 4.01718,4.01715 v 16.44092 c 0,2.21863 -1.79855,4.01718 -4.01718,4.01718 z"
   id="path392"
   style="stroke:none;fill:#66c1e7;fill-opacity:1" />
		<line
   class="st18"
   x1="362.94"
   y1="462.37863"
   x2="257.57031"
   y2="462.37863"
   id="line394"
   style="stroke:none" />
	</g>
</g><g
   id="MAN_LEFT_UPPER_ARM"
   style="stroke:none">
	<path
   class="st4"
   d="m 343.56989,271.35928 c 12.82949,-0.74304 17.13436,7.33618 21.04132,20.40549 3.90698,13.06931 20.30301,69.80109 20.30301,69.80109 l -28.27723,8.84039 -16.33664,-56.07788 z"
   id="path399"
   style="stroke:none" />
</g><g
   id="MAN_BODY"
   style="stroke:none">
	<g
   id="g436"
   style="stroke:none">
		<g
   id="g414"
   style="stroke:none">
			<g
   id="g410"
   style="stroke:none">
				<path
   class="st4"
   d="m 345.41608,390.33047 c -1.8534,-6.18188 -3.30542,-11.96923 -3.85321,-16.35162 -2.13984,-17.11847 8.12078,-68.9939 2.00702,-102.61957 0,0 -26.84614,1.21302 -40.09968,3.08564 -17.72991,-2.4455 -42.48223,-3.03388 -42.48223,-3.03388 0,0 -4.40638,95.53699 -5.01777,101.65076 -0.18859,1.88623 -1.94927,7.586 -4.2929,14.56408 l 46.61316,21.91932 z"
   id="path402"
   style="stroke:none" />
				<circle
   class="st0"
   cx="294.89853"
   cy="369.40112"
   r="2.5983469"
   id="circle404"
   style="stroke:none" />
				<path
   class="st19"
   d="m 344.58868,321.7175 c 1.11316,-16.15061 1.59882,-33.1438 -0.51998,-47.3378"
   id="path406"
   style="stroke:none" />
				<path
   class="st19"
   d="m 256.5278,365.51553 c 1.14826,-16.83319 3.09158,-71.96505 4.05444,-87.5321"
   id="path408"
   style="stroke:none" />
			</g>
			<path
   class="st19"
   d="m 302.77557,405.5126 c -1.29074,-10.08306 -3.19735,-29.1268 -3.39767,-54.76599"
   id="path412"
   style="stroke:none" />
		</g>
		<g
   id="g434"
   style="stroke:none">
			<path
   class="st0"
   d="m 302.90616,270.42239 c 0,0 7.8768,1.02689 21.76864,7.48838 0,0 7.21106,8.16583 11.69275,20.74389 l -15.05764,4.02793 7.77475,12.9797 -29.70676,33.55588 -25.75455,-32.24869 7.53839,-16.20715 -15.02881,-1.89603 c 0,0 6.15061,-15.55664 9.76716,-19.66836 3.61654,-4.1117 20.85269,-9.19812 27.00607,-8.77555 z"
   id="path416"
   style="stroke:none" />
			<g
   id="g426"
   style="stroke:none">
				<path
   class="st9"
   d="m 303.47018,274.44492 c 4.51297,0.60571 13.83118,4.04617 18.53171,5.85885 -1.87384,9.21289 -10.4122,44.92438 -22.62127,62.58368 0,0 -13.14026,-41.91348 -18.97391,-62.95663 5.76758,-2.00617 18.36404,-6.11661 23.06347,-5.4859 z"
   id="path418"
   style="stroke:none" />
				<g
   id="g424"
   style="stroke:none">
					<path
   class="st0"
   d="m 292.89413,321.95212 c 0.53956,-6.3927 2.19141,-23.34241 5.3566,-34.94577 l 4.48871,-1.25754 3.3049,1.7793 c 0,0 3.34766,14.98022 4.16052,33.4519 -3.13275,8.20416 -6.77471,16.05036 -10.82424,21.90744 0,0 -2.85178,-9.09668 -6.48649,-20.93533 z"
   id="path420"
   style="stroke:none" />
					<path
   class="st20"
   d="m 305.73892,295.51184 c 0,0 -4.68152,-0.15951 -7.4173,0.16895"
   id="path422"
   style="stroke:none" />
				</g>
			</g>
			<g
   id="g432"
   style="stroke:none">
				<path
   class="st9"
   d="m 301.80841,287.59531 c 0,0 6.18198,2.46283 12.77582,8.16665 0,0 0.0294,-21.85232 -11.59815,-23.25155 -11.6275,-1.3992 -13.30734,21.78415 -13.30734,21.78415 0,0 2.75348,-3.23957 12.12967,-6.69925 z"
   id="path428"
   style="stroke:none" />
				<path
   class="st20"
   d="m 295.09158,276.44855 c -4.57657,6.30478 -5.41284,17.84601 -5.41284,17.84601 0,0 2.75348,-3.23957 12.12967,-6.69925 0,0 6.18198,2.46283 12.77582,8.16665 0,0 0.0151,-11.24682 -4.26956,-18.11996"
   id="path430"
   style="stroke:none" />
			</g>
		</g>
	</g>
</g><g
   id="MAN_RIGHT_ARM"
   style="stroke:none">
	<g
   id="g475"
   style="stroke:none">
		<g
   id="g447"
   style="stroke:none">
			<g
   id="g441"
   style="stroke:none">
				<path
   class="st4"
   d="m 276.92267,298.40189 c -1.06403,-32.01148 -23.86255,-36.89093 -27.05225,-10.87128 0,0 -2.80353,60.87595 -3.14221,82.82007 -0.0697,4.51318 2.83304,8.53241 7.1344,9.90063 l 2e-5,3e-5 c 3.3069,1.05188 6.92149,0.35724 9.60292,-1.84546 l 14.76236,-12.12686 z"
   id="path439"
   style="stroke:none" />
			</g>
			<g
   id="g445"
   style="stroke:none">
				<line
   class="st19"
   x1="277.77811"
   y1="342.88745"
   x2="277.01123"
   y2="303.00702"
   id="line443"
   style="stroke:none" />
			</g>
		</g>
		<g
   id="g473"
   style="stroke:none">
			<g
   id="g459"
   style="stroke:none">
				<path
   class="st1"
   d="m 334.72046,316.20633 c 0,0.72003 -0.81,2.41003 -2.58997,2.04999 -1.05005,-0.20996 -3.49005,-2.27997 -5.32,-3.94001 0.1,0.69001 0.16998,1.49006 0.0199,1.89002 -0.29998,0.78003 -2.35998,1.77002 -2.35998,1.77002 0,0 0.73999,1.83996 -0.22998,3.46997 -0.96002,1.64001 -2.78003,1.72003 -2.78003,1.72003 0,0 0.29004,1.56 -0.67999,3.19 -0.95996,1.63001 -4.59998,1.22998 -4.59998,1.22998 0,0 -2.81,3.81 -5.07001,4.16999 -2.25,0.35003 -4.83001,-0.75995 -4.83001,-0.75995 l -8.07001,7.01996 -4.10999,-13.28998 7.62,-5.85999 c 0,0 5.52002,-12.24005 7.63,-13.66003 2.09998,-1.40997 14.12,1.22998 16,1.85004 0.34101,0.11041 0.67438,0.24108 0.99952,0.38104 l 4.8e-4,-10e-4 0.009,0.005 c 0.67231,0.29022 1.29096,0.638 1.74121,1.05475 l 0.81,0.5 c 0,0 5.81,6.5 5.81,7.20996 z"
   id="path449"
   style="stroke:none" />
				<line
   class="st19"
   x1="314.19562"
   y1="308.81274"
   x2="325.41409"
   y2="312.37363"
   id="line451"
   style="stroke:none" />
				<line
   class="st19"
   x1="315.94919"
   y1="314.50757"
   x2="323.15036"
   y2="317.07126"
   id="line453"
   style="stroke:none" />
				<path
   class="st19"
   d="m 310.00333,306.60635 c -0.47525,1.25742 1.60397,2.62375 1.60397,2.62375 0,0 -2.03256,1.60398 -1.40244,2.67328 0.63016,1.06931 2.41745,2.41477 2.41745,2.41477 0,0 -1.66806,0.89312 -1.9057,2.2348 -0.23761,1.3417 2.01941,2.65735 2.01941,2.65735 0,0 -0.83169,1.84158 -0.71289,2.8515 0.11881,1.00989 2.38733,2.79208 2.38733,2.79208"
   id="path455"
   style="stroke:none" />
				<line
   class="st19"
   x1="315.20551"
   y1="320.46228"
   x2="320.95554"
   y2="322.7431"
   id="line457"
   style="stroke:none" />
			</g>
			<g
   id="g463"
   style="stroke:none">
				<polygon
   class="st9"
   points="296.50797,321.74948 287.93765,327.24524 300.2142,347.07675 308.54254,340.97388 "
   id="polygon461"
   style="stroke:none" />
			</g>
			<path
   class="st4"
   d="m 257.14883,367.60287 5.62565,11.53525 c 2.64395,-2.33648 40.74716,-31.61453 40.74716,-31.61453 l -13.24683,-23.60712 -25.2009,15.86869 c -9.35472,5.89056 -12.77087,17.88153 -7.92508,27.81771 z"
   id="path465"
   style="stroke:none" />
			<path
   class="st19"
   d="m 264.34103,377.85794 c 7.74894,-6.18262 39.18061,-30.33435 39.18061,-30.33435"
   id="path467"
   style="stroke:none" />
			<path
   class="st19"
   d="m 290.27481,323.91647 -25.2009,15.86869 c -4.63229,2.9169 -7.80844,7.32968 -9.24626,12.24807"
   id="path469"
   style="stroke:none" />
			<circle
   class="st0"
   cx="294.89853"
   cy="346.77155"
   r="2.5983469"
   id="circle471"
   style="stroke:none" />
		</g>
	</g>
</g><g
   id="MAN_LEFT_ARM"
   style="stroke:none">
	<g
   id="g508"
   style="stroke:none">
		<path
   class="st4"
   d="m 353.57892,348.4303 c 0,0 2.81491,16.38623 5.72064,20.9743 2.90576,4.58808 16.77133,8.90558 21.41602,0.90042 4.64468,-8.00515 2.05178,-14.27102 0.15017,-17.25033 -1.90161,-2.97934 -13.21747,-17.79404 -13.21747,-17.79404 -8.79074,-0.36829 -14.4602,3.18213 -14.06936,13.16965 z"
   id="path478"
   style="stroke:none" />
		<g
   id="g486"
   style="stroke:none">
			<circle
   class="st0"
   cx="360.341"
   cy="356.30933"
   r="2.5983469"
   id="circle480"
   style="stroke:none" />
			<path
   class="st19"
   d="m 353.57892,348.4303 c 0,0 2.81491,16.38623 5.72064,20.9743 2.90576,4.58808 16.77133,8.90558 21.41602,0.90042 4.64468,-8.00515 2.05178,-14.27102 0.15017,-17.25033 -1.90161,-2.97934 -13.21747,-17.79404 -13.21747,-17.79404 -8.79074,-0.36829 -14.4602,3.18213 -14.06936,13.16965 z"
   id="path482"
   style="stroke:none" />
			<path
   class="st9"
   d="m 355.12216,350.74661 c 0,0 3.47525,2.17658 8.73267,-0.58581 5.25741,-2.76236 3.56436,-13.18811 3.56436,-13.18811 l -3.10968,-4.09903 c 0,0 -4.99735,-2.33167 -10.07846,2.73977 -5.08109,5.07145 -2.62457,9.55729 -2.62457,9.55729 z"
   id="path484"
   style="stroke:none" />
		</g>
		<g
   id="g506"
   style="stroke:none">
			<g
   id="g492"
   style="stroke:none">
				<path
   class="st0"
   d="m 353.01324,364.00238 h -29.34652 c -1.73889,0 -3.14853,-1.40964 -3.14853,-3.1485 v -48.71289 c 0,-1.73886 1.40964,-3.1485 3.14853,-3.1485 h 29.34652 c 1.73887,0 3.1485,1.40964 3.1485,3.1485 v 48.71289 c 0,1.73886 -1.40963,3.1485 -3.1485,3.1485 z"
   id="path488"
   style="stroke:none;fill:#ffffff;fill-opacity:1" />
				<path
   class="st20"
   d="m 324.08255,312.43802 v 47.76239 c 0,0.7218 0.58511,1.30691 1.30692,1.30691 h 27.20794"
   id="path490"
   style="stroke:none" />
			</g>
			<g
   id="g504"
   style="stroke:none">
				<path
   class="st1"
   d="m 357.74048,347.52634 c -0.02,0 -0.04,0.01 -0.06,0.01 -0.34003,0.06 -2.10004,0.29998 -3.39001,-0.90003 -1.43,-1.33996 -3.56,-6.06 -3.56,-6.06 0,0 -7.66998,0.62 -8.73999,0 -1.07001,-0.63 -1.23999,-1.70001 -0.89002,-2.5 0.34003,-0.75 6.15003,-1.65997 6.88001,-1.76995 -0.78998,0.0799 -7.58002,0.72998 -8.92999,-0.28003 -1.41999,-1.07001 -1.07001,-3.02997 -0.18,-3.46997 0.83997,-0.42005 7.31,-1.62006 8.12,-1.77002 -0.76001,0.03 -6.73999,0.33996 -7.40003,0.33996 -0.71997,0 -2.84997,-0.44 -2.84997,-2.48999 0,-2.04999 2.66998,-2.40997 2.66998,-2.40997 -2.5,-0.44 -2.66998,-2.40003 -1.33996,-3.56 1.33996,-1.16003 8.78997,-2.60998 16.39996,-3.29999 3.91998,-0.36004 4.90002,0.52997 5.34003,1.43 0.44995,0.88995 4.45996,15.70001 4.45996,15.70001 0,0 1.35003,9.45996 -6.52997,11.02997 z"
   id="path494"
   style="stroke:none" />
				<path
   class="st19"
   d="m 357.91422,320.99957 c 0,0 1.54455,1.66336 0.11883,2.97031 -1.42575,1.30691 2.97028,2.91089 0.71286,4.93069 -2.25742,2.01981 2.49506,3.32673 0.41583,5.34653 -2.07919,2.01981 0.41587,3.80197 -1.30691,5.0495"
   id="path496"
   style="stroke:none" />
				<line
   class="st19"
   x1="340.80533"
   y1="325.81146"
   x2="354.34988"
   y2="324.20749"
   id="line498"
   style="stroke:none" />
				<line
   class="st19"
   x1="349.18155"
   y1="336.02927"
   x2="355.12216"
   y2="335.1976"
   id="line500"
   style="stroke:none" />
				<line
   class="st19"
   x1="348.52808"
   y1="330.1481"
   x2="354.23105"
   y2="329.31641"
   id="line502"
   style="stroke:none" />
			</g>
		</g>
	</g>
</g><g
   id="MAN_LEFT_LEG"
   style="fill:#e6ebff;stroke:none;fill-opacity:1">
	<g
   id="g549"
   style="fill:#e6ebff;stroke:none;fill-opacity:1">
		<path
   class="st0"
   d="m 378.4111,380.63605 c 0,0 -8.11075,-12.70496 -25.10083,-16.33267 l -16.94272,16.33267 z"
   id="path511"
   style="fill:#e6ebff;stroke:none;fill-opacity:1" />
		<path
   class="st3"
   d="m 403.63049,376.90634 -1.71002,15.37 c -25.16998,13.23999 -52.73999,43.01001 -74.01001,45.63 -2.02997,0.21002 -32.88095,-0.003 -32.88095,-0.003 l -2.72903,-9.36703 c 0,0 3.14996,-25.77002 28.70001,-39.56 13.66998,-7.38001 19.84997,-13.60004 54.22998,-30.33002 13.02002,-3.59997 26.27002,4.92999 28.40002,18.26001 z"
   id="path513"
   style="fill:#e6ebff;stroke:none;fill-opacity:1" />
		<g
   id="g519"
   style="fill:#e6ebff;stroke:none;fill-opacity:1">
			<path
   class="st4"
   d="m 302.50806,398.68033 42.94745,-2.83637 c 0,0 -0.93732,-21.25943 7.85476,-31.54058 0,0 -26.72818,15.32247 -50.80221,34.37695 z"
   id="path515"
   style="fill:#e6ebff;stroke:none;fill-opacity:1" />
			<path
   class="st19"
   d="m 353.31027,364.30338 c 0,0 -26.72818,15.32247 -50.80221,34.37695"
   id="path517"
   style="fill:#e6ebff;stroke:none;fill-opacity:1" />
		</g>
		<line
   class="st21"
   x1="314.76947"
   y1="418.12051"
   x2="376.14151"
   y2="382.11093"
   id="line521"
   style="fill:#e6ebff;stroke:none;fill-opacity:1" />
		<g
   id="g539"
   style="fill:#e6ebff;stroke:none;fill-opacity:1">
			<g
   id="g527"
   style="fill:#e6ebff;stroke:none;fill-opacity:1">
				<path
   class="st1"
   d="m 391.38379,474.33301 c 0,0 -0.26029,12.06793 -0.29483,15.44516 -0.0262,5.59439 -0.0759,13.06418 -0.0439,13.2572 0.05,0.30157 -5.60043,2.99911 -5.60043,2.99911 l -6.62475,-1.37973 -0.91959,-9.72601 -1.75882,-18.02435 z"
   id="path523"
   style="fill:#ecbdbb;stroke:none;fill-opacity:1" />
				<path
   class="st0"
   d="m 391.38379,474.33301 c 0,0 -0.26029,12.06793 -0.29483,15.44516 -3.06253,1.18979 -8.60019,3.37292 -13.18863,5.15057 l -1.75882,-18.02435 z"
   id="path525"
   style="fill:#404b7c;stroke:none;fill-opacity:1" />
			</g>
			<path
   class="st3"
   d="m 373.48688,485.95105 22.98938,-0.1846 c 0,0 6.69943,-81.90146 6.40921,-91.4715 -0.0569,-1.87561 0.20328,-6.80313 0.63046,-13.89035 0.80191,-13.30514 -11.12558,-23.81738 -24.22235,-21.33853 l -14.98407,5.01941 c -0.13535,11.1683 0.11197,28.66089 0.13592,29.05572 0.0585,0.96494 9.04145,92.80985 9.04145,92.80985 z"
   id="path529"
   style="fill:#e6ebff;stroke:none;fill-opacity:1" />
			<line
   class="st21"
   x1="364.61121"
   y1="394.91483"
   x2="366.40811"
   y2="413.44849"
   id="line531"
   style="fill:#e6ebff;stroke:none;fill-opacity:1" />
			<polyline
   class="st21"
   points="364.3095093,389.0532532 378.4634705,381.6013184 383.7103577,478.299408    "
   id="polyline533"
   style="fill:#e6ebff;stroke:none;fill-opacity:1" />
			<line
   class="st21"
   x1="375.17166"
   y1="480.20041"
   x2="394.53799"
   y2="480.20041"
   id="line535"
   style="fill:#e6ebff;stroke:none;fill-opacity:1" />
			<path
   class="st21"
   d="m 380.37579,358.70157 c -3.527,5.34244 -2.24023,13.2521 3.33692,18.59839 5.62787,5.39493 13.67911,6.31466 18.86371,2.44461"
   id="path537"
   style="fill:#e6ebff;stroke:none;fill-opacity:1" />
		</g>
		<g
   id="g547"
   style="fill:#e6ebff;stroke:none;fill-opacity:1">
			<path
   class="st0"
   d="m 376.93732,498.96301 c 0,0 8.89639,2.87696 16.28766,0.82297 0,0 12.59838,9.59671 20.67211,12.75851 8.0737,3.16175 15.76075,5.49823 15.43354,18.33295 l -58.57114,-1.49322 c 0,0 -0.60474,-20.25858 6.17783,-30.42121 z"
   id="path541"
   style="fill:#ffffff;stroke:none;fill-opacity:1" />
			<path
   class="st20"
   d="m 401.91913,513.60492 c 0,0 -7.07422,-4.38495 -13.49634,-10.35864"
   id="path543"
   style="fill:#e6ebff;stroke:none;fill-opacity:1" />
			<path
   class="st3"
   d="m 401.1644,522.20892 c 0,0 3.14071,-9.24646 9.63986,-12.2915 0,0 10.75491,3.9436 15.27252,6.65796 4.51761,2.71441 4.67905,8.37555 4.52713,14.33453 l -60.9649,-0.0325 0.20254,-7.94525 z"
   id="path545"
   style="fill:#ffffff;stroke:none;fill-opacity:1" />
		</g>
	</g>
</g><g
   id="MAN_RIGHT_LEG"
   style="fill:#e6ebff;stroke:none;fill-opacity:1">
	<g
   id="g600"
   style="fill:#e6ebff;stroke:none;fill-opacity:1">
		<g
   id="g570"
   style="fill:#e6ebff;stroke:none;fill-opacity:1">
			<path
   class="st3"
   d="m 289.72443,391.5018 c 30.02273,14.98523 30.01818,30.03998 21.96594,40.45865 -5.6359,7.29217 -15.70099,7.24597 -24.91477,7.03128 -4.44284,-0.10355 -10.46838,-1.08627 -13.90869,-2.62769 -21.48495,-9.62619 -44.93811,-23.51699 -63.91211,-38.98669 l -2.20068,-15.30682 c 1.70816,-13.39548 15.45935,-20.87 28.58311,-17.68827 34.89913,15.62281 40.48757,20.18186 54.3872,27.11954 z"
   id="path552"
   style="fill:#e6ebff;stroke:none;fill-opacity:1" />
			<path
   class="st21"
   d="m 299.75235,399.27032 1.3244,15.40534 4.94638,4.91778 c 0,0 0.35645,9.8743 -1.78216,16.46836"
   id="path554"
   style="fill:#e6ebff;stroke:none;fill-opacity:1" />
			<path
   class="st21"
   d="m 305.60742,402.19928 c 0.22379,5.89447 0.48166,13.78763 0.41571,17.39416"
   id="path556"
   style="fill:#e6ebff;stroke:none;fill-opacity:1" />
			<g
   id="g566"
   style="fill:#e6ebff;stroke:none;fill-opacity:1">
				<g
   id="g560"
   style="fill:#e6ebff;stroke:none;fill-opacity:1">
					<path
   class="st4"
   d="m 262.01221,376.13638 c 2.75134,2.9812 8.68078,10.27881 10.65558,20.62049 l 29.84027,1.92346 c -12.38379,-8.4577 -28.81684,-16.90918 -40.49585,-22.54395 z"
   id="path558"
   style="fill:#e6ebff;stroke:none;fill-opacity:1" />
				</g>
				<g
   id="g564"
   style="fill:#e6ebff;stroke:none;fill-opacity:1">
					<path
   class="st19"
   d="m 302.50806,398.68033 c -11.4047,-7.789 -26.24366,-15.57276 -37.6409,-21.15601"
   id="path562"
   style="fill:#e6ebff;stroke:none;fill-opacity:1" />
				</g>
			</g>
			<line
   class="st21"
   x1="296.10446"
   y1="423.21826"
   x2="234.73242"
   y2="387.20868"
   id="line568"
   style="fill:#e6ebff;stroke:none;fill-opacity:1" />
		</g>
		<g
   id="g598"
   style="fill:#e6ebff;stroke:none;fill-opacity:1">
			<g
   id="g586"
   style="fill:#e6ebff;stroke:none;fill-opacity:1">
				<path
   class="st1"
   d="m 266.55334,475.82257 c 0,0 6.08924,10.42227 7.75986,13.35758 2.74027,4.87738 6.41196,11.38266 6.47775,11.56695 0.10273,0.2879 6.35215,-0.0987 6.35215,-0.0987 l 5.88659,-1.15329 -5.18927,-12.11881 -6.71466,-16.70962 z"
   id="path572"
   style="fill:#ecbdbb;stroke:none;fill-opacity:1" />
				<g
   id="g582"
   style="fill:#e6ebff;stroke:none;fill-opacity:1">
					<path
   class="st0"
   d="m 278.41153,498.96301 c 0,0 9.2673,-1.43542 15.86139,0 0,0 3.56433,11.77204 2.49502,29.05921 H 265.0452 v -10.5149 c 0,0 6.77227,-7.32626 13.36633,-18.54431 z"
   id="path574"
   style="fill:#e6ebff;stroke:none;fill-opacity:1" />
					<path
   class="st20"
   d="m 278.41153,498.96301 c 0,0 9.2673,-1.43542 15.86139,0 0,0 3.56433,11.77204 2.49502,29.05921 H 265.0452 v -10.5149 c 0,0 6.77227,-7.32626 13.36633,-18.54431 z"
   id="path576"
   style="fill:#ffffff;stroke:none;fill-opacity:1" />
					<path
   class="st20"
   d="m 286.45627,501.82416 c 0,0 -6.61902,11.58417 -12.85663,16.93072"
   id="path578"
   style="fill:#747fb2;stroke:none;fill-opacity:1" />
					<path
   class="st3"
   d="m 258.39899,530.87744 h 39.98016 v -6.41962 h -14.99722 c 0,0 -2.86713,-14.1683 -14.70096,-14.1683 -13.43776,0 -10.28198,20.58792 -10.28198,20.58792 z"
   id="path580"
   style="fill:#ffffff;stroke:none;fill-opacity:1" />
				</g>
				<path
   class="st0"
   d="m 266.55334,475.82257 c 0,0 6.08924,10.42227 7.75986,13.35758 3.25492,-0.44758 8.65296,-1.12903 13.52722,-1.8039 l -6.71466,-16.70962 z"
   id="path584"
   style="fill:#404b7c;stroke:none;fill-opacity:1" />
			</g>
			<path
   class="st3"
   d="m 287.84042,477.28497 -20.1849,11.00525 c 0,0 -45.63791,-68.33676 -50.03267,-76.84299 -0.86131,-1.66714 -3.48216,-5.84793 -7.29802,-11.83547 -7.16367,-11.24064 -1.84381,-26.223 10.80824,-30.4177 l 0.28804,-0.0536 c 9.17012,-1.70624 18.39546,2.67771 22.87375,10.85984 3.44034,6.2857 6.26926,11.56002 6.36839,11.76699 0.41753,0.87189 37.17717,85.51767 37.17717,85.51767 z"
   id="path588"
   style="fill:#e6ebff;stroke:none;fill-opacity:1" />
			<path
   class="st21"
   d="m 255.95303,403.90225 c 3.62955,8.33914 7.83567,18.01715 13.64289,31.38242"
   id="path590"
   style="fill:#e6ebff;stroke:none;fill-opacity:1" />
			<polyline
   class="st21"
   points="253.4756012,398.2060852 232.8046875,386.6990662 275.1873474,475.562439    "
   id="polyline592"
   style="fill:#e6ebff;stroke:none;fill-opacity:1" />
			<line
   class="st21"
   x1="283.57449"
   y1="473.07663"
   x2="266.64618"
   y2="482.4834"
   id="line594"
   style="fill:#e6ebff;stroke:none;fill-opacity:1" />
			<path
   class="st21"
   d="m 220.01006,369.40112 c 5.67796,2.9567 8.39514,10.49564 6.11694,17.87784 -2.29892,7.4494 -8.88985,12.16406 -15.30155,11.2995"
   id="path596"
   style="fill:#e6ebff;stroke:none;fill-opacity:1" />
		</g>
	</g>
</g><g
   id="MAN_NECK"
   style="stroke:none">
	<g
   id="g607"
   style="stroke:none">
		<path
   class="st1"
   d="m 298.65701,280.53305 c 0,0 3.49274,1.96146 7.81168,-0.13644 l 0.4895,-11.13938 0.54514,-12.22564 -11.72632,-8.25806 -0.10535,-0.0759 0.0725,0.75463 0.58429,6.20864 z"
   id="path603"
   style="stroke:none" />
		<path
   class="st0"
   d="m 296.32846,255.66093 c 0.96326,4.78411 3.56928,11.44948 10.62973,13.5963 l 0.54514,-12.22564 -11.72632,-8.25806 c -0.024,0.2603 -0.0274,0.48172 -0.0328,0.67876 -0.0146,0.6156 0.0205,0.98072 0.0228,1.00509 0,0 -0.0305,2.23859 0.56149,5.20355 z"
   id="path605"
   style="stroke:none" />
	</g>
</g><g
   id="MAN_HEAD"
   style="stroke:none">
	<g
   id="g658"
   style="stroke:none">
		<g
   id="g630"
   style="stroke:none">
			<path
   class="st0"
   d="m 321.56009,241.22124 c 0,0 -2.80808,11.66273 -9.91184,16.40242 -7.10376,4.73965 -3.22631,-19.31104 -3.22631,-19.31104 z"
   id="path610"
   style="stroke:none" />
			<g
   id="g616"
   style="stroke:none">
				<path
   class="st1"
   d="m 315.11041,247.30386 c 0,0 3.31253,-3.10933 5.85694,-0.63099 2.5444,2.47834 -1.57593,9.78505 -8.24054,9.20225 z"
   id="path612"
   style="stroke:none" />
				<path
   class="st19"
   d="m 319.27393,248.73106 c 0,0 -2.30689,0.42659 -4.63593,3.68822"
   id="path614"
   style="stroke:none" />
			</g>
			<path
   class="st1"
   d="m 303.10178,228.52306 c 5.86383,-0.65604 11.47497,2.38542 13.0534,8.6266 1.03989,4.11171 0.0407,9.49771 -1.0263,14.62451 -2.13135,10.24127 -9.44758,17.58896 -18.49134,9.93463 -9.04379,-7.65433 -13.42471,-30.96059 6.46424,-33.18574 z"
   id="path618"
   style="stroke:none" />
			<path
   class="st0"
   d="m 293.99918,258.86682 -2.02158,-4.98263 0.73886,-5.88945 2.59494,-3.55715 c 0,0 7.76557,-0.0391 4.39157,-8.85535 0,0 10.28974,10.32859 19.80091,8.93888 9.51391,-1.37764 15.72784,-13.02158 13.81732,-16.16101 -1.81711,-3.00862 -6.04331,0.74849 -6.37928,1.05363 0.422,-0.70529 8.63837,-14.24051 2.1464,-21.32876 -6.65918,-7.2656 -22.41937,7.66578 -31.53256,16.72625 -1.39551,1.38459 -2.76191,2.67379 -4.06986,3.88623 0.69644,-2.27742 1.73853,-5.92749 2.51007,-9.70585 1.26181,-6.23688 -7.8197,-3.6899 -5.89908,12.68799 0,0 -7.20587,-8.26929 -10.88684,-5.67691 -3.10562,2.16899 2.94626,6.6692 8.35156,8.12127 -4.20346,3.96749 -6.99899,7.2705 -6.96264,11.14308 0.0619,6.47939 13.40021,13.59978 13.40021,13.59978 z"
   id="path620"
   style="stroke:none" />
			<g
   id="g628"
   style="stroke:none">
				<path
   class="st1"
   d="m 292.92728,249.21712 c 0,0 -1.8302,-4.07308 -6.49311,-2.74205 -4.66287,1.33104 -1.34634,11.66964 8.11432,9.13525 z"
   id="path622"
   style="stroke:none" />
				<path
   class="st19"
   d="m 292.45312,252.91904 c 0,0 -1.75704,-3.98413 -5.78027,-4.01487"
   id="path624"
   style="stroke:none" />
				<path
   class="st19"
   d="m 288.69244,252.88107 c 0,0 -0.0701,-1.61055 1.14899,-3.00146"
   id="path626"
   style="stroke:none" />
			</g>
		</g>
		<g
   id="g656"
   style="stroke:none">
			<path
   class="st0"
   d="m 295.32138,244.0957 c 0,0 1.96985,-3.80156 4.85382,-2.28291 0,0 0.0951,-0.87015 0.85727,-0.87521 0.76215,-0.005 0.79364,2.37962 0.79364,2.37962 0,0 -3.49045,-0.35341 -6.50473,0.7785 z"
   id="path632"
   style="stroke:none" />
			<path
   class="st0"
   d="m 312.69287,244.03795 c 0,0 -1.22781,-3.71823 -3.13159,-2.09258 0,0 -0.24063,-0.68266 -0.7348,-0.63598 -0.85471,0.0807 -0.44733,2.29493 -0.44733,2.29493 0,0 2.36465,-0.58068 4.31372,0.43363 z"
   id="path634"
   style="stroke:none" />
			<g
   id="g640"
   style="stroke:none">
				
					<ellipse
   transform="rotate(-87.134532,299.58471,249.41428)"
   class="st0"
   cx="299.58472"
   cy="249.41428"
   rx="1.987475"
   ry="1.6075166"
   id="ellipse636"
   style="stroke:none" />
				<circle
   class="st9"
   cx="299.97391"
   cy="248.72777"
   r="0.42745331"
   id="circle638"
   style="stroke:none" />
			</g>
			<g
   id="g646"
   style="stroke:none">
				
					<ellipse
   transform="rotate(-87.134532,309.04261,249.88768)"
   class="st0"
   cx="309.0426"
   cy="249.88768"
   rx="1.987475"
   ry="1.6075166"
   id="ellipse642"
   style="stroke:none" />
				<circle
   class="st9"
   cx="309.43179"
   cy="249.20117"
   r="0.42745331"
   id="circle644"
   style="stroke:none" />
			</g>
			<path
   class="st19"
   d="m 305.48248,253.82751 c 0,0 1.8787,0.79737 1.39176,2.156 -0.56427,1.57429 -2.82569,0.87553 -2.82569,0.87553"
   id="path648"
   style="stroke:none" />
			<circle
   class="st19"
   cx="299.46091"
   cy="249.46878"
   r="4.455934"
   id="circle650"
   style="stroke:none" />
			<circle
   class="st19"
   cx="310.46835"
   cy="249.73074"
   r="4.455934"
   id="circle652"
   style="stroke:none" />
			<path
   class="st19"
   d="m 304.93646,260.02448 c 0,0 -3.66516,1.08938 -6.9378,-2.65522"
   id="path654"
   style="stroke:none" />
		</g>
	</g>
</g><g
   id="WOMAN_2_RIGHT_HAND"
   style="stroke:none">
	<g
   id="g669"
   style="stroke:none">
		<path
   class="st1"
   d="m 335.46323,267.3342 c -5.46808,5.8627 -6.29703,12.23764 -4.99009,13.42575 1.30692,1.18811 2.49503,-0.59406 2.49503,-0.59406 0,0 0.35645,2.37622 2.25745,2.37622 1.90097,0 2.61386,-2.0495 2.61386,-2.0495 0,0 0.1188,2.16834 1.90097,2.76239 1.78219,0.59406 3.32675,-2.8515 3.32675,-2.8515 0,0 0,3.68317 2.49506,3.32675 2.49502,-0.35644 3.56433,-8.07922 7.48513,-9.98019 3.92078,-1.901 1.66336,3.56433 1.54456,6.53464 -0.11881,2.9703 2.85147,3.92081 4.63367,-0.35645 1.78216,-4.27722 1.0693,-11.40591 -2.25745,-13.66336 -3.32672,-2.25741 -6.89108,-0.59405 -6.89108,-0.59405 0,0 -2.25742,-1.57425 -4.57425,0.1188 0,0 -1.87128,-1.78216 -4.901,0.26734 0,0 -2.25742,-1.81189 -5.13861,1.27722 z"
   id="path661"
   style="stroke:none" />
		<path
   class="st8"
   d="m 343.0672,279.57184 c 0,0 0.83166,-5.34653 4.69305,-10.21784"
   id="path663"
   style="stroke:none" />
		<path
   class="st8"
   d="m 338.0177,279.57184 c 0,0 1.00989,-6.53467 5.22772,-10.81189"
   id="path665"
   style="stroke:none" />
		<path
   class="st8"
   d="m 333.26523,279.15601 c 0,0 1.42572,-6.59409 6,-10.57428"
   id="path667"
   style="stroke:none" />
	</g>
</g><g
   id="WOMAN_1_LEFT_HAND"
   style="stroke:none">
	<g
   id="g680"
   style="stroke:none">
		<path
   class="st1"
   d="m 276.38907,266.51868 c 5.46811,5.8627 6.29703,12.23761 4.99011,13.42575 -1.30694,1.18811 -2.49506,-0.59409 -2.49506,-0.59409 0,0 -0.35644,2.37625 -2.25741,2.37625 -1.901,0 -2.61386,-2.0495 -2.61386,-2.0495 0,0 -0.11881,2.16831 -1.901,2.76236 -1.78217,0.59406 -3.32672,-2.85147 -3.32672,-2.85147 0,0 0,3.68317 -2.49506,3.32672 -2.49506,-0.35641 -3.56436,-8.07919 -7.48514,-9.98019 -3.92081,-1.901 -1.66339,3.56436 -1.54455,6.53467 0.1188,2.97027 -2.85151,3.92077 -4.63369,-0.35645 -1.78216,-4.27722 -1.0693,-11.40594 2.25743,-13.66336 3.32673,-2.25744 6.89109,-0.59405 6.89109,-0.59405 0,0 2.25744,-1.57428 4.57428,0.1188 0,0 1.87127,-1.78219 4.90097,0.26734 0,0 2.25744,-1.81189 5.13861,1.27722 z"
   id="path672"
   style="stroke:none" />
		<path
   class="st8"
   d="m 268.78513,278.75629 c 0,0 -0.8317,-5.34653 -4.69309,-10.21781"
   id="path674"
   style="stroke:none" />
		<path
   class="st8"
   d="m 273.83463,278.75629 c 0,0 -1.00992,-6.53464 -5.22773,-10.81186"
   id="path676"
   style="stroke:none" />
		<path
   class="st8"
   d="m 278.5871,278.34045 c 0,0 -1.42575,-6.59405 -6,-10.57425"
   id="path678"
   style="stroke:none" />
	</g>
</g><g
   id="BULB"
   style="stroke:none">
	<g
   id="g707"
   style="stroke:none">
		<circle
   class="st0"
   cx="338.79984"
   cy="168.1304"
   r="10.686135"
   id="circle683"
   style="stroke:none" />
		<path
   class="st3"
   d="m 326.95929,89.770203 c 7.07672,8.185211 10.14654,18.357357 9.48755,28.253267 -0.0767,1.23963 -0.21549,2.46476 -0.41806,3.68935 -0.13318,0.84033 -0.29395,1.67417 -0.48236,2.50157 -0.22595,0.99232 -0.43122,1.98571 -0.54688,2.99684 -0.69513,6.07594 -0.0737,13.91279 5.26746,20.69804 l -21.29514,16.76308 c -4.26492,-5.41796 -9.88287,-8.06894 -15.06128,-9.30071 -1.99292,-0.47406 -4.03503,-0.73474 -6.0834,-0.71089 -1.56354,0.0182 -3.12338,-0.0604 -4.66867,-0.22848 -0.84116,-0.086 -1.68518,-0.20774 -2.53372,-0.35135 -9.20432,-1.59275 -17.86325,-6.45531 -24.1001,-14.37834 -13.9634,-17.73854 -10.18442,-43.77773 8.81207,-56.710705 16.30347,-11.099556 38.72308,-8.141701 51.62253,6.778328 z"
   id="path685"
   style="fill:#fdfbfa;fill-opacity:1;stroke:none" />
		<g
   id="g701"
   style="stroke:none">
			<line
   class="st22"
   x1="260.9386"
   y1="69.218651"
   x2="268.5126"
   y2="78.840355"
   id="line687"
   style="stroke:none;stroke-opacity:1" />
			<line
   class="st22"
   x1="239.30096"
   y1="107.7908"
   x2="251.46016"
   y2="109.23875"
   id="line689"
   style="stroke:none;stroke-opacity:1" />
			<line
   class="st22"
   x1="251.27545"
   y1="150.36555"
   x2="260.89716"
   y2="142.79155"
   id="line691"
   style="stroke:none;stroke-opacity:1" />
			<line
   class="st22"
   x1="289.8476"
   y1="172.0032"
   x2="291.29553"
   y2="159.84401"
   id="line693"
   style="stroke:none;stroke-opacity:1" />
			<line
   class="st22"
   x1="303.51337"
   y1="57.244156"
   x2="302.06543"
   y2="69.403358"
   id="line695"
   style="stroke:none;stroke-opacity:1" />
			<line
   class="st22"
   x1="342.08551"
   y1="78.881805"
   x2="332.46381"
   y2="86.455811"
   id="line697"
   style="stroke:none;stroke-opacity:1" />
			<line
   class="st22"
   x1="354.06"
   y1="121.45657"
   x2="341.90082"
   y2="120.00862"
   id="line699"
   style="stroke:none;stroke-opacity:1" />
		</g>
		<path
   class="st22"
   d="m 305.61954,130.57326 c 0,0 -12.03458,1.00424 -17.38278,-8.35831 -5.34821,-9.36255 14.30538,-10.65643 13.80264,-2.67946 -0.63306,10.0448 -12.43662,-10.00657 -1.76673,-12.92604 7.92072,-2.16724 11.82901,11.21678 9.76056,19.87964"
   id="path703"
   style="stroke:none;stroke-opacity:1" />
		<path
   class="st4"
   d="m 350.80496,158.68022 -24.01025,18.90036 c -1.07581,0.84686 -2.63446,0.66126 -3.48129,-0.41455 l -9.59955,-12.19485 c -0.84684,-1.07581 -0.66126,-2.63445 0.41458,-3.48131 l 24.01025,-18.90036 c 1.07581,-0.84686 2.63443,-0.66126 3.4813,0.41456 l 9.59951,12.19484 c 0.84687,1.07582 0.66126,2.63446 -0.41455,3.48131 z"
   id="path705"
   style="stroke:none" />
	</g>
</g>
<g
   id="GROUND">
	<g
   id="g728">
		<g
   id="g714">
			
			
		</g>
		<g
   id="g720">
			
			
		</g>
		<g
   id="g726">
			
			
		</g>
	</g>
</g>
</svg>
