<svg xmlns="http://www.w3.org/2000/svg" xmlns:xlink="http://www.w3.org/1999/xlink" version="1.1" x="0px" y="0px" width="500px" height="421px" viewBox="0 0 500 421" enable-background="new 0 0 500 421" xml:space="preserve">
<g id="BACKGROUND">
</g>
<g id="DESIGNED_BY_FREEPIK">
	<path fill="#CCE9FF" d="M121.273,292.109l251.835-2.912c0,0,19.812-1.718,9.742,14.107c-10.07,15.827-63.623,22.07-94.104,35.31   c-31.479,13.672-51.605-6.52-83.736-8.021c-32.129-1.504-70.655-10.934-79.954-21.095   C112.408,295.676,110.604,292.553,121.273,292.109z"/>
	<g>
		<path fill="#CCE9FF" d="M223.202,120.007c-1.67,0.63-3.57,0.96-5.539,1.12c1.6-0.63,3.34-0.859,5-1.04    C222.833,120.067,223.013,120.047,223.202,120.007z"/>
		<path fill="#CCE9FF" d="M189.151,87.297c-1.6,0.63-3.34,0.86-5,1.04c-0.18,0.021-0.359,0.04-0.559,0.08    C185.272,87.787,187.173,87.457,189.151,87.297z"/>
		<path fill="#CCE9FF" d="M223.212,120.007h-0.01c-0.189,0.04-0.369,0.061-0.539,0.08c-1.66,0.181-3.4,0.41-5,1.04    c-0.682,0.26-1.33,0.601-1.941,1.04c-2.189,1.57-3.98,3.84-6.199,5.41c-0.641,0.44-1.34,0.86-2.09,1.24    c-4.65,2.35-11.1,3.12-14.891-0.9c-2.1-2.229-3.16-4.11-5.91-5.37c-2.66-1.21-5.52-1.72-8.209-2.83    c-4.311-1.77-6.771-8.26-5.051-13.25c0.311-0.89,0.711-1.649,1.16-2.34c-0.66-1.09-1.26-2.229-1.529-3.57    c-1.48-7.329,6.309-11.43,10.59-12.14c0.199-0.04,0.379-0.06,0.559-0.08c1.66-0.18,3.4-0.41,5-1.04    c0.682-0.27,1.33-0.609,1.941-1.05c2.189-1.56,3.969-3.84,6.199-5.4c0.631-0.449,1.34-0.859,2.08-1.239    c4.65-2.36,11.109-3.13,14.9,0.899c2.1,2.23,3.16,4.11,5.91,5.36c2.66,1.22,5.51,1.729,8.209,2.83    c4.311,1.78,6.771,8.27,5.041,13.26c-0.301,0.89-0.711,1.65-1.16,2.34c0.67,1.101,1.27,2.221,1.539,3.57    C235.282,115.207,227.481,119.297,223.212,120.007z"/>
		<g>
			<polygon fill="#DADADA" points="245.63,291.98 245.63,292.143 245.378,292.143    "/>
			<path fill="#2A94F4" d="M245.63,292.143v11.078h-6.506c-0.197-0.342-2.326-4.123,0.02-5.527     C241.603,296.217,245.63,292.143,245.63,292.143z"/>
			<g>
				<rect x="236.571" y="220.314" fill="#F2F2F2" width="8.293" height="31.852"/>
			</g>
			<circle fill="#2A94F4" cx="240.718" cy="220.314" r="7.908"/>
			<g>
				<rect x="261.31" y="220.314" fill="#F2F2F2" width="8.293" height="31.852"/>
			</g>
			<g>
				<rect x="236.571" y="255.838" fill="#F2F2F2" width="8.293" height="31.85"/>
			</g>
			<g>
				<rect x="261.31" y="255.838" fill="#F2F2F2" width="8.293" height="31.85"/>
			</g>
			<circle fill="#2A94F4" cx="265.457" cy="220.314" r="7.909"/>
			<g>
				<path fill="#FFBE55" d="M240.716,203.562c-0.104,0-0.197,0-0.295,0.016v-0.016H240.716z"/>
				<path fill="#FFBE55" d="M243.815,208.311c0,1.711-1.387,3.098-3.1,3.098c-0.943,0-1.791-0.428-2.363-1.092l1.086-1.088      l0.982-0.98v-3.014c0.098-0.008,0.199-0.016,0.295-0.016C242.429,205.219,243.815,206.605,243.815,208.311z"/>
				<path fill="#FFBE55" d="M256.181,219.162c0,1.006-0.484,1.902-1.229,2.457l-1.094-1.094l-0.697-0.689l-0.744,0.744l-1.111,1.104      c-0.793-0.555-1.309-1.482-1.309-2.521c0-1.713,1.381-3.1,3.092-3.1C254.794,216.062,256.181,217.449,256.181,219.162z"/>
				<path fill="#FFBE55" d="M267.509,210.633c-0.547,0.475-1.26,0.775-2.053,0.775c-1.705,0-3.092-1.387-3.092-3.098      c0-1.705,1.387-3.092,3.092-3.092v3.361L267.509,210.633z"/>
				<g>
					<path fill="#40ADB2" d="M256.181,219.162c0,1.006-0.484,1.902-1.229,2.457c-0.516,0.396-1.164,0.635-1.863,0.635       c-0.666,0-1.283-0.215-1.783-0.57c-0.793-0.555-1.309-1.482-1.309-2.521c0-1.713,1.381-3.1,3.092-3.1       C254.794,216.062,256.181,217.449,256.181,219.162z"/>
					<g>
						<path fill="#0B4870" d="M256.181,219.162c0,1.006-0.484,1.902-1.229,2.457c-0.516,0.396-1.164,0.635-1.863,0.635        c-0.666,0-1.283-0.215-1.783-0.57c-0.793-0.555-1.309-1.482-1.309-2.521c0-1.713,1.381-3.1,3.092-3.1        C254.794,216.062,256.181,217.449,256.181,219.162z"/>
						<circle fill="#2A94F4" cx="253.088" cy="219.158" r="1.573"/>
					</g>
				</g>
				<g>
					<g>
						<path fill="#0E538C" d="M270.212,208.311c0-2.625-2.133-4.748-4.756-4.748h-24.74c-0.104,0-0.197,0-0.295,0.016        c-2.486,0.143-4.453,2.211-4.453,4.732c0,1.221,0.459,2.33,1.213,3.178l-0.031,0.031l12.938,11.383l0.029-0.031        c0.816,0.65,1.848,1.039,2.973,1.039c1.158,0,2.229-0.42,3.053-1.102l0.07,0.07l12.486-11.057l-0.016-0.018        C269.624,210.934,270.212,209.689,270.212,208.311z M240.716,211.408c-0.943,0-1.791-0.428-2.363-1.092        c-0.451-0.539-0.729-1.246-0.729-2.006c0-1.609,1.229-2.934,2.797-3.076c0.098-0.008,0.199-0.016,0.295-0.016        c1.713,0,3.1,1.387,3.1,3.092C243.815,210.021,242.429,211.408,240.716,211.408z M254.952,221.619        c-0.516,0.396-1.164,0.635-1.863,0.635c-0.666,0-1.283-0.215-1.783-0.57c-0.793-0.555-1.309-1.482-1.309-2.521        c0-1.713,1.381-3.1,3.092-3.1c1.705,0,3.092,1.387,3.092,3.1C256.181,220.168,255.696,221.064,254.952,221.619z         M265.456,211.408c-1.705,0-3.092-1.387-3.092-3.098c0-1.705,1.387-3.092,3.092-3.092c1.711,0,3.092,1.387,3.092,3.092        c0,0.918-0.396,1.752-1.039,2.322C266.962,211.107,266.249,211.408,265.456,211.408z"/>
						<path fill="#40ADB2" d="M268.548,208.311c0,0.918-0.396,1.752-1.039,2.322c-0.547,0.475-1.26,0.775-2.053,0.775        c-1.705,0-3.092-1.387-3.092-3.098c0-1.705,1.387-3.092,3.092-3.092C267.167,205.219,268.548,206.605,268.548,208.311z"/>
						<g>
							<path fill="#0B4870" d="M268.548,208.311c0,0.918-0.396,1.752-1.039,2.322c-0.547,0.475-1.26,0.775-2.053,0.775         c-1.705,0-3.092-1.387-3.092-3.098c0-1.705,1.387-3.092,3.092-3.092C267.167,205.219,268.548,206.605,268.548,208.311z"/>
							<circle fill="#2A94F4" cx="265.456" cy="208.312" r="1.574"/>
						</g>
					</g>
					<g>
						<path fill="#40ADB2" d="M243.815,208.311c0,1.711-1.387,3.098-3.1,3.098c-0.943,0-1.791-0.428-2.363-1.092        c-0.451-0.539-0.729-1.246-0.729-2.006c0-1.609,1.229-2.934,2.797-3.076c0.098-0.008,0.199-0.016,0.295-0.016        C242.429,205.219,243.815,206.605,243.815,208.311z"/>
						<g>
							<path fill="#0B4870" d="M243.815,208.311c0,1.711-1.387,3.098-3.1,3.098c-0.943,0-1.791-0.428-2.363-1.092         c-0.451-0.539-0.729-1.246-0.729-2.006c0-1.609,1.229-2.934,2.797-3.076c0.098-0.008,0.199-0.016,0.295-0.016         C242.429,205.219,243.815,206.605,243.815,208.311z"/>
							<circle fill="#2A94F4" cx="240.717" cy="208.312" r="1.573"/>
						</g>
					</g>
				</g>
			</g>
			<circle fill="#2A94F4" cx="265.456" cy="253.693" r="5.893"/>
			<circle fill="#2A94F4" cx="240.717" cy="253.693" r="5.894"/>
			<path fill="#2A94F4" d="M269.647,199.576c0,2.23-1.809,4.039-4.041,4.039h-25.039c-2.232,0-4.037-1.809-4.037-4.039l0,0     c0-2.232,1.805-4.041,4.037-4.041h25.039C267.839,195.535,269.647,197.344,269.647,199.576L269.647,199.576z"/>
			<path fill="#2A94F4" d="M246.927,289.143c0,1.66-0.857,3-1.912,3h-8.596c-1.061,0-1.912-1.34-1.912-3     c0-0.828,0.209-1.578,0.559-2.125c0.346-0.539,0.828-0.875,1.354-0.875h8.596C246.069,286.143,246.927,287.486,246.927,289.143z"/>
			<path fill="#2A94F4" d="M271.665,289.143c0,1.66-0.857,3-1.914,3h-8.592c-1.061,0-1.914-1.34-1.914-3     c0-0.828,0.209-1.578,0.559-2.125c0.348-0.539,0.828-0.875,1.355-0.875h8.592C270.808,286.143,271.665,287.486,271.665,289.143z"/>
			<path fill="#F2F2F2" d="M245.63,292.143c0,0-4.027,4.074-6.486,5.551c-2.346,1.404-0.217,5.186-0.02,5.527     c0.012,0.018,0.02,0.023,0.02,0.023s-7.34,0-11.125,0c-3.781,0-4.82-1.824-2.168-5.424c2.652-3.602,10.119-5.678,10.119-5.678     H245.63z"/>
			<circle fill="#0E538C" cx="242.265" cy="299.855" r="1.547"/>
			<g>
				<g>
					<path fill="#2A94F4" d="M260.722,292.143v11.078h6.506c0.199-0.342,2.33-4.123-0.018-5.527       C264.749,296.217,260.722,292.143,260.722,292.143z"/>
					<path fill="#F2F2F2" d="M260.722,292.143c0,0,4.027,4.074,6.488,5.551c2.348,1.404,0.217,5.186,0.018,5.527       c-0.01,0.018-0.018,0.023-0.018,0.023s7.338,0,11.125,0c3.781,0,4.818-1.824,2.166-5.424       c-2.652-3.602-10.117-5.678-10.117-5.678H260.722z"/>
				</g>
				<circle fill="#0E538C" cx="263.843" cy="299.855" r="1.547"/>
			</g>
			<g>
				<path fill="#F2F2F2" d="M302.706,166.164l-0.764,24.066l-6.219,1.154l0.805-25.416c0.057-1.699,1.49-3.045,3.189-2.99      C301.413,163.033,302.761,164.465,302.706,166.164z"/>
				<path fill="#F2F2F2" d="M300.987,190.629L283.7,167.623c-1.021-1.359-2.969-1.635-4.326-0.613l0,0      c-1.359,1.02-1.635,2.967-0.615,4.326l18.045,21.869"/>
				<circle fill="#2A94F4" cx="297.811" cy="188.477" r="5.258"/>
				<circle fill="#2A94F4" cx="278.581" cy="168.858" r="5.576"/>
				<path fill="#F2F2F2" d="M229.354,168.191c-1.549-0.705-3.387-0.016-4.092,1.531l-12.301,27.043      c1.555,1.33,3.184,2.564,4.795,3.822c0.285-0.27,0.525-0.592,0.695-0.967l12.438-27.34      C231.591,170.736,230.901,168.893,229.354,168.191z"/>
				<path fill="#F2F2F2" d="M225.032,221.941l-5.051-23.545l-6.326-0.023l5.336,24.863c0.355,1.66,2.008,2.73,3.668,2.373      C224.321,225.252,225.388,223.602,225.032,221.941z"/>
				<circle fill="#2A94F4" cx="228.417" cy="170.186" r="5.574"/>
				<path fill="#F2F2F2" d="M264.472,195.672h-21.178c-3.938,0-7.385-2.639-8.41-6.441l-5.58-20.682      c-1.492-5.533,2.676-10.979,8.412-10.979h32.334c5.734,0,9.904,5.445,8.41,10.979l-5.578,20.682      C271.854,193.033,268.407,195.672,264.472,195.672z"/>
				<path fill="#2A94F4" d="M212.052,198.721c0.627,2.836,3.434,4.627,6.27,4c2.834-0.627,4.623-3.434,3.996-6.27      c-0.623-2.836-3.43-4.627-6.268-4C213.214,193.078,211.423,195.887,212.052,198.721z"/>
				<path fill="#2A94F4" d="M294.868,156.236c0,0.686-0.557,1.24-1.242,1.24c-0.359,0-0.688-0.154-0.914-0.398      c-0.047-0.066-0.102-0.145-0.156-0.217c-0.004-0.006-0.004-0.006-0.012-0.01c-0.812-1.096-1.898-2.613-1.924-2.904      c-0.035-0.465,0.701-0.729,1.328-0.619c0.428,0.076,1.629,1.176,2.352,1.861c0.131,0.125,0.25,0.238,0.338,0.328      c0.008,0.006,0.016,0.012,0.021,0.025C294.79,155.74,294.868,155.979,294.868,156.236z"/>
				<path fill="#2A94F4" d="M304.038,150.102c0,0.014,0,0.023-0.008,0.035c-0.09,0.406-0.406,0.723-0.807,0.812      c-0.078,0.018-0.16,0.029-0.246,0.029c-0.201,0-0.398-0.059-0.559-0.16c-0.307-0.18-0.512-0.508-0.514-0.885      c0,0-0.006,0,0-0.004c0.023-0.139,0.057-0.301,0.096-0.48c0.207-1.02,0.555-2.572,0.744-2.789      c0.281-0.316,0.938-0.537,1.141-0.363c0,0,0.484,0.246,0.566,1.131C304.513,147.994,304.239,149.26,304.038,150.102z"/>
				<path fill="#2A94F4" d="M306.261,152.098c-0.025,0.059-0.049,0.113-0.072,0.174c-0.174,0.34-0.531,0.566-0.936,0.566      c-0.588,0-1.061-0.471-1.061-1.057c0-0.096,0.014-0.191,0.043-0.281c0-0.006,0-0.012,0.008-0.018l0.172-0.346      c0.389-0.752,1.109-1.93,1.756-1.775C306.171,149.361,307.288,149.488,306.261,152.098z"/>
				<path fill="#2A94F4" d="M308.519,154.609c-0.055,0.09-0.115,0.174-0.174,0.25c-0.008,0.014-0.018,0.023-0.031,0.037      c-0.197,0.197-0.471,0.322-0.768,0.322c-0.385,0-0.719-0.191-0.916-0.484c-0.111-0.174-0.186-0.389-0.186-0.615      c0-0.225,0.074-0.436,0.186-0.609c0.049-0.07,0.102-0.129,0.16-0.184c1.412-1.512,2.08-0.842,2.08-0.842      C309.515,152.879,309.038,153.857,308.519,154.609z"/>
				<path fill="#2A94F4" d="M300.8,149.355c-0.008,0.113-0.021,0.234-0.027,0.352c-0.07,0.264-0.244,0.479-0.477,0.611      c0,0.004-0.008,0.004-0.014,0.004c-0.162,0.055-0.359,0.107-0.562,0.121h-0.018c-0.506-0.049-0.895-0.473-0.906-0.986v-0.035      c-0.008-1.512,0.07-4.914,0.914-5.232C299.71,144.189,301.296,143.115,300.8,149.355z"/>
				<circle fill="#0B4870" cx="295.393" cy="158.012" r="1.231"/>
				<circle fill="#0B4870" cx="300.127" cy="151.312" r="1.233"/>
				<path fill="#0C1B32" d="M299.565,149.055c0.205-0.012,0.4-0.066,0.562-0.119c-0.145,0.078-0.307,0.127-0.484,0.127      C299.62,149.062,299.591,149.062,299.565,149.055z"/>
				<path fill="#0C1B32" d="M308.519,154.561c-0.043,0.098-0.096,0.18-0.174,0.252C308.403,154.734,308.464,154.65,308.519,154.561z      "/>
				<circle fill="#0B4870" cx="302.332" cy="152.092" r="1.231"/>
				<path fill="#0B4870" d="M305.364,153.725c0,0.682-0.551,1.232-1.232,1.232c-0.68,0-1.232-0.551-1.232-1.232      c0-0.678,0.553-1.23,1.232-1.23C304.813,152.494,305.364,153.047,305.364,153.725z"/>
				<path fill="#0B4870" d="M307.261,155.875c0,0.68-0.549,1.232-1.232,1.232c-0.68,0-1.232-0.553-1.232-1.232      s0.553-1.232,1.232-1.232C306.712,154.643,307.261,155.195,307.261,155.875z"/>
				<path fill="#F2F2F2" d="M297.171,154.688c0,0-1.496,3.328-2.609,3.736c-1.111,0.404,3.023,6.174,7.463,4.477      c0,0,4.057-4.822,4.15-5.859c0,0-1.297-0.293-1.066-2.031l-0.178-0.193l-0.029-0.031c0,0-2.096,0.127-1.52-2.016l-0.197-0.166      c0,0-1.766,0.697-1.809-1.045l-0.229-0.127c0,0-1.25,1.254-2.232,0.469l-0.182,0.027      C298.733,151.928,297.974,153.998,297.171,154.688z"/>
				<g>
					<path fill="#2A94F4" d="M241.976,147.883h-0.645c-2.771,0-5.02-2.248-5.02-5.02l0,0c0-2.771,2.248-5.02,5.02-5.02h0.645       V147.883z"/>
					<path fill="#2A94F4" d="M265.788,147.883h0.645c2.771,0,5.02-2.248,5.02-5.02l0,0c0-2.771-2.248-5.02-5.02-5.02h-0.645V147.883       z"/>
				</g>
				<path fill="#F2F2F2" d="M264.919,134.059c-0.986-4.479-5.627-7.729-11.037-7.729l0,0l0,0c-5.41,0-10.049,3.25-11.035,7.729      l-2.197,9.977c-0.564,2.559,0.361,5.189,2.49,7.078l1.139,1.01c1.621,1.438,3.873,2.252,6.227,2.252h3.377h3.377      c2.355,0,4.605-0.814,6.225-2.252l1.141-1.01c2.127-1.889,3.053-4.52,2.492-7.078L264.919,134.059z"/>
				<path fill="#0E538C" d="M261.433,136.047c-0.674-3.064-3.85-5.289-7.551-5.289l0,0l0,0c-3.701,0-6.877,2.225-7.553,5.289      l-1.502,6.824c-0.385,1.752,0.25,3.553,1.703,4.844l0.781,0.691c1.109,0.984,2.648,1.541,4.262,1.541h2.309h2.311      c1.609,0,3.152-0.557,4.26-1.541l0.781-0.691c1.455-1.291,2.088-3.092,1.701-4.844L261.433,136.047z"/>
				<path fill="#2A94F4" d="M230.046,229.363c-0.26-0.635,0.045-1.359,0.68-1.619c0.33-0.135,0.695-0.115,0.996,0.025      c0.068,0.041,0.148,0.094,0.227,0.139c0.008,0.004,0.008,0.004,0.014,0.008c1.168,0.701,2.746,1.695,2.881,1.957      c0.209,0.418-0.371,0.938-0.992,1.078c-0.428,0.09-1.953-0.475-2.883-0.834c-0.17-0.066-0.324-0.127-0.439-0.176      c-0.008-0.004-0.018-0.006-0.025-0.014C230.304,229.795,230.144,229.602,230.046,229.363z"/>
				<path fill="#2A94F4" d="M227.161,237.98c-0.031-0.111-0.066-0.225-0.107-0.338c-0.031-0.271,0.047-0.535,0.211-0.744      c-0.002-0.008,0.004-0.008,0.012-0.012c0.127-0.109,0.291-0.234,0.473-0.322l0.018-0.008c0.488-0.146,1.008,0.098,1.213,0.568      l0.012,0.035c0.58,1.395,1.799,4.572,1.139,5.186C230.13,242.346,229.065,243.941,227.161,237.98z"/>
				<path fill="#2A94F4" d="M223.763,238.252c-0.021-0.111-0.043-0.23-0.07-0.348c-0.002-0.273,0.105-0.525,0.293-0.715      c-0.002-0.006,0.004-0.008,0.004-0.008c0.146-0.098,0.322-0.203,0.514-0.271l0.018-0.004c0.5-0.096,0.99,0.207,1.143,0.697      l0.008,0.035c0.426,1.451,1.281,4.744,0.559,5.279C226.229,242.918,224.997,244.389,223.763,238.252z"/>
				<path fill="#2A94F4" d="M220.966,237.133c-0.002-0.115-0.002-0.234-0.01-0.354c0.041-0.27,0.186-0.504,0.404-0.662      c-0.002-0.004,0.004-0.004,0.01-0.006c0.154-0.072,0.344-0.148,0.543-0.184l0.018-0.002c0.512-0.014,0.945,0.363,1.016,0.873      l0.006,0.035c0.184,1.498,0.5,4.889-0.299,5.303C222.653,242.137,221.2,243.389,220.966,237.133z"/>
				<path fill="#2A94F4" d="M218.284,236.229c-0.002-0.115-0.004-0.234-0.012-0.354c0.041-0.27,0.186-0.502,0.402-0.66      c-0.002-0.004,0.006-0.006,0.006-0.006c0.16-0.072,0.35-0.15,0.551-0.186h0.018c0.508-0.014,0.945,0.363,1.016,0.869      l0.004,0.037c0.182,1.5,0.502,4.891-0.301,5.301C219.968,241.23,218.515,242.484,218.284,236.229z"/>
				<circle fill="#0B4870" cx="228.887" cy="227.919" r="1.232"/>
				<circle fill="#0B4870" cx="227.044" cy="235.912" r="1.232"/>
				<path fill="#0C1B32" d="M228.419,237.789c-0.184,0.088-0.344,0.213-0.473,0.322c0.102-0.125,0.232-0.23,0.398-0.299      C228.366,237.805,228.394,237.793,228.419,237.789z"/>
				<path fill="#0C1B32" d="M211.907,230.936c-0.041,0.094-0.096,0.18-0.172,0.25C211.794,231.107,211.853,231.025,211.907,230.936z      "/>
				<circle fill="#0B4870" cx="224.707" cy="236.028" r="1.234"/>
				<path fill="#0B4870" d="M221.282,235.664c-0.258-0.629,0.043-1.35,0.674-1.607c0.629-0.258,1.348,0.045,1.607,0.676      c0.258,0.627-0.045,1.35-0.672,1.605C222.259,236.598,221.54,236.293,221.282,235.664z"/>
				<circle fill="#0B4870" cx="219.854" cy="233.928" r="1.232"/>
				<path fill="#F2F2F2" d="M228.685,230.936c0,0-0.061-2.914,0.814-3.711c0.877-0.797-5.137-4.57-8.602-1.316      c0,0-1.928,6.002-1.621,6.994c0,0,1.312-0.219,1.758,1.477l0.236,0.111l0.039,0.02c0,0,1.891-0.912,2.17,1.289l0.246,0.078      c0,0,1.371-1.314,2.07,0.283l0.258,0.029c0,0,0.684-1.633,1.887-1.281l0.16-0.094      C228.101,234.814,228.204,231.877,228.685,230.936z"/>
				<path fill="#2A94F4" d="M220.017,225.98c-0.303-0.738,0.051-1.58,0.789-1.883l3.004-1.23c0.738-0.301,1.582,0.051,1.883,0.789      l0,0c0.303,0.738-0.051,1.582-0.789,1.883l-3.004,1.232C221.161,227.072,220.317,226.719,220.017,225.98L220.017,225.98z"/>
				<path fill="#0E538C" d="M262.835,156.197c0,1.357-1.098,2.459-2.457,2.459h-12.992c-1.357,0-2.457-1.102-2.457-2.459l0,0      c0-1.355,1.1-2.457,2.457-2.457h12.992C261.737,153.74,262.835,154.842,262.835,156.197L262.835,156.197z"/>
				<g>
					<circle fill="#2A94F4" cx="250.738" cy="137.91" r="0.905"/>
					<circle fill="#2A94F4" cx="257.025" cy="137.91" r="0.905"/>
					<path fill="#2A94F4" d="M252.155,142.068c0.025,1.035,0.869,1.863,1.91,1.863s1.883-0.828,1.91-1.863H252.155z"/>
				</g>
			</g>
			<path fill="#2A94F4" d="M302.399,163.434c0,0.736-0.598,1.334-1.336,1.334h-3.002c-0.734,0-1.332-0.598-1.332-1.334l0,0     c0-0.738,0.598-1.336,1.332-1.336h3.002C301.802,162.098,302.399,162.695,302.399,163.434L302.399,163.434z"/>
		</g>
		<circle fill="#CCE9FF" cx="218.98" cy="127.675" r="3.083"/>
		<circle fill="#CCE9FF" cx="225.452" cy="134.305" r="1.949"/>
		<circle fill="#CCE9FF" cx="231.144" cy="137.035" r="1.162"/>
		<g id="Design">
			<g id="lightbulb">
				<g>
					<path fill="#FFBE55" d="M209.858,102.147l0.01,0.005c0,1.789-1.49,4.432-2.09,5.426c-0.492,0.822-0.883,2.741-1.004,3.383       c-0.119-0.043-0.248-0.065-0.389-0.065h-5.963c-0.119,0-0.236,0.017-0.344,0.051c-0.135-0.653-0.559-2.553-1.047-3.368       c-0.598-0.994-2.088-3.644-2.088-5.434l0.008-0.001c-0.006-0.116-0.008-0.23-0.008-0.346c0-3.569,2.908-6.462,6.459-6.462       c3.627,0,6.465,2.893,6.465,6.462C209.868,101.913,209.864,102.031,209.858,102.147z"/>
					<g>
						<path fill="#D3D3D3" d="M207.376,111.788v0.152h-7.941v-0.152c0-0.427,0.27-0.729,0.645-0.842        c0.107-0.034,0.225-0.051,0.344-0.051h5.963c0.141,0,0.27,0.022,0.389,0.065C207.13,111.083,207.376,111.378,207.376,111.788z        "/>
						<path fill="#2A94F4" d="M206.47,105.993l-0.375,0.813l-0.059,0.131l-0.262,0.563c-0.004,0.013-0.01,0.027-0.014,0.039        c-0.008,0.024-0.018,0.052-0.023,0.079c-0.004,0.015-0.006,0.029-0.008,0.045c-0.006,0.013-0.008,0.027-0.01,0.041        c-0.004,0.015-0.006,0.027-0.006,0.043c-0.002,0.013-0.004,0.026-0.004,0.039c-0.004,0.027-0.006,0.054-0.006,0.074v3.034        h-0.557v-3.034c0-0.178,0.053-0.381,0.125-0.541l0.627-1.302h-0.746c-0.018,0-0.041,0-0.064,0.002        c-0.008,0-0.018,0.001-0.025,0.004c-0.006,0-0.01,0-0.016,0.002c-0.01,0.003-0.02,0.007-0.023,0.015        c-0.006,0.003-0.008,0.004-0.01,0.008v0.002l-0.529,0.887c-0.086,0.147-0.219,0.215-0.367,0.21        c-0.15-0.008-0.273-0.106-0.346-0.261l-0.371-0.796l-0.361,0.79c-0.072,0.154-0.199,0.247-0.346,0.252        c-0.15,0.009-0.283-0.074-0.369-0.22l-0.527-0.862c-0.021-0.035-0.098-0.032-0.139-0.032h-0.75l0.625,1.303        c0.072,0.159,0.129,0.362,0.129,0.54v3.034h-0.486v-3.034c0-0.096-0.07-0.273-0.111-0.36l-0.711-1.513        c-0.066-0.145-0.066-0.29,0.012-0.413c0.076-0.121,0.205-0.185,0.365-0.185h0.928c0.236,0,0.492,0.141,0.609,0.345        l0.393,0.666l0.383-0.838c0.127-0.278,0.178-0.387,0.357-0.387h0.002c0.014,0,0.025,0,0.039,0.003        c0.141,0.014,0.193,0.108,0.295,0.332c0.01,0.017,0.018,0.034,0.025,0.051l0.188,0.399l0.203,0.441l0.387-0.668        c0.121-0.204,0.377-0.345,0.613-0.345h0.928c0.041,0,0.08,0.006,0.119,0.013c0.016,0.004,0.033,0.008,0.049,0.014        c0.014,0.006,0.031,0.012,0.045,0.021c0.01,0.003,0.02,0.008,0.027,0.014c0.012,0.006,0.023,0.013,0.033,0.021        c0.01,0.006,0.02,0.014,0.031,0.024c0.012,0.012,0.025,0.024,0.039,0.038c0.012,0.013,0.02,0.025,0.029,0.043        C206.534,105.7,206.536,105.849,206.47,105.993z"/>
					</g>
					<g>
						<path fill="#D3D3D3" d="M207.37,115.493c-0.115,2.083-1.812,3.75-3.967,3.75c-2.082,0-3.842-1.667-3.961-3.75H207.37z"/>
						<rect x="199.435" y="113.194" fill="#D3D3D3" width="7.941" height="1.044"/>
					</g>
					<path fill="#F2F2F2" d="M207.933,112.184v0.748c0,0.135-0.166,0.263-0.303,0.263h-8.449c-0.135,0-0.232-0.128-0.232-0.263       v-0.748c0-0.135,0.098-0.243,0.232-0.243h8.449C207.767,111.94,207.933,112.049,207.933,112.184z"/>
					<path fill="#F2F2F2" d="M207.933,114.473v0.745c0,0.137-0.166,0.275-0.303,0.275h-8.449c-0.135,0-0.232-0.139-0.232-0.275       v-0.745c0-0.14,0.098-0.234,0.232-0.234h8.449C207.767,114.238,207.933,114.333,207.933,114.473z"/>
					<g>
						<path fill="#F4C342" d="M203.44,92.851c-0.412,0-0.732-0.334-0.732-0.745v-2.188c0-0.411,0.32-0.745,0.732-0.745        s0.732,0.334,0.732,0.745v2.188C204.173,92.517,203.853,92.851,203.44,92.851z"/>
					</g>
					<g>
						<g>
							<path fill="#FFBE55" d="M203.44,92.851c-0.412,0-0.732-0.334-0.732-0.745v-2.188c0-0.411,0.32-0.745,0.732-0.745         s0.732,0.334,0.732,0.745v2.188C204.173,92.517,203.853,92.851,203.44,92.851z"/>
						</g>
					</g>
					<g>
						<path fill="#F89B36" d="M215.085,102.396h-2.188c-0.41,0-0.744-0.318-0.744-0.729c0-0.414,0.334-0.732,0.744-0.732h2.188        c0.412,0,0.748,0.318,0.748,0.732C215.833,102.077,215.497,102.396,215.085,102.396z"/>
					</g>
					<g>
						<g>
							<path fill="#FFBE55" d="M215.085,102.396h-2.188c-0.41,0-0.744-0.318-0.744-0.729c0-0.414,0.334-0.732,0.744-0.732h2.188         c0.412,0,0.748,0.318,0.748,0.732C215.833,102.077,215.497,102.396,215.085,102.396z"/>
						</g>
					</g>
					<g>
						<g>
							<path fill="#FFBE55" d="M193.913,102.396h-2.188c-0.412,0-0.746-0.318-0.746-0.729c0-0.414,0.334-0.732,0.746-0.732h2.188         c0.41,0,0.744,0.318,0.744,0.732C194.657,102.077,194.323,102.396,193.913,102.396z"/>
						</g>
					</g>
					<g>
						<g>
							<path fill="#FFBE55" d="M196.692,95.63c-0.189,0-0.381-0.071-0.527-0.218l-1.547-1.545c-0.289-0.292-0.289-0.764,0-1.057         c0.291-0.29,0.766-0.29,1.057,0l1.547,1.547c0.289,0.293,0.289,0.764,0,1.055C197.077,95.559,196.886,95.63,196.692,95.63z"/>
						</g>
					</g>
					<g>
						<path fill="#F89B36" d="M210.118,95.63c-0.189,0-0.383-0.071-0.527-0.218c-0.291-0.291-0.291-0.762,0-1.053l1.547-1.549        c0.291-0.29,0.764-0.29,1.053,0c0.293,0.293,0.293,0.765,0,1.057l-1.545,1.545C210.499,95.559,210.31,95.63,210.118,95.63z"/>
					</g>
					<g>
						<g>
							<path fill="#FFBE55" d="M210.118,95.63c-0.189,0-0.383-0.071-0.527-0.218c-0.291-0.291-0.291-0.762,0-1.053l1.547-1.549         c0.291-0.29,0.764-0.29,1.053,0c0.293,0.293,0.293,0.765,0,1.057l-1.545,1.545C210.499,95.559,210.31,95.63,210.118,95.63z"/>
						</g>
					</g>
				</g>
			</g>
		</g>
	</g>
</g>
</svg>