<?xml version="1.0" encoding="UTF-8" standalone="no"?>
<svg
   xmlns:dc="http://purl.org/dc/elements/1.1/"
   xmlns:cc="http://creativecommons.org/ns#"
   xmlns:rdf="http://www.w3.org/1999/02/22-rdf-syntax-ns#"
   xmlns:svg="http://www.w3.org/2000/svg"
   xmlns="http://www.w3.org/2000/svg"
   xmlns:sodipodi="http://sodipodi.sourceforge.net/DTD/sodipodi-0.dtd"
   xmlns:inkscape="http://www.inkscape.org/namespaces/inkscape"
   version="1.1"
   x="0px"
   y="0px"
   viewBox="0 0 600 600"
   style="enable-background:new 0 0 600 600;"
   xml:space="preserve"
   id="svg554"
   sodipodi:docname="team.svg"
   inkscape:version="1.0.2 (e86c870879, 2021-01-15)"><metadata
   id="metadata560"><rdf:RDF><cc:Work
       rdf:about=""><dc:format>image/svg+xml</dc:format><dc:type
         rdf:resource="http://purl.org/dc/dcmitype/StillImage" /></cc:Work></rdf:RDF></metadata><defs
   id="defs558" /><sodipodi:namedview
   pagecolor="#ffffff"
   bordercolor="#666666"
   borderopacity="1"
   objecttolerance="10"
   gridtolerance="10"
   guidetolerance="10"
   inkscape:pageopacity="0"
   inkscape:pageshadow="2"
   inkscape:window-width="1440"
   inkscape:window-height="826"
   id="namedview556"
   showgrid="false"
   inkscape:zoom="1.4118565"
   inkscape:cx="444.77254"
   inkscape:cy="290.45284"
   inkscape:window-x="0"
   inkscape:window-y="0"
   inkscape:window-maximized="1"
   inkscape:current-layer="svg554" />
<style
   type="text/css"
   id="style2">
	.st0{fill:#9AB3DA;}
	.st1{fill:#404B7C;}
	.st2{fill:none;stroke:#C9DCF7;stroke-width:0.726702;stroke-linecap:round;stroke-linejoin:round;stroke-miterlimit:10;}
	.st3{fill:#FFFFFF;}
	.st4{fill:#E9F3FF;}
	.st5{fill:none;stroke:#404B7C;stroke-linecap:round;stroke-linejoin:round;stroke-miterlimit:10;}
	.st6{fill:none;stroke:#404B7C;stroke-width:0.8465766;stroke-linecap:round;stroke-linejoin:round;stroke-miterlimit:10;}
	.st7{fill:#ECBDBB;}
	.st8{fill:none;stroke:#9AB3DA;stroke-width:0.8465766;stroke-linecap:round;stroke-linejoin:round;stroke-miterlimit:10;}
	.st9{fill:none;stroke:#9AB3DA;stroke-linecap:round;stroke-linejoin:round;stroke-miterlimit:10;}
	.st10{fill:#F68D88;}
	.st11{fill:none;stroke:#ECBDBB;stroke-linecap:round;stroke-linejoin:round;stroke-miterlimit:10;}
	.st12{fill:none;stroke:#ECBDBB;stroke-width:0.726702;stroke-linecap:round;stroke-linejoin:round;stroke-miterlimit:10;}
	.st13{fill:none;stroke:#F68D88;stroke-width:0.8465766;stroke-linecap:round;stroke-linejoin:round;stroke-miterlimit:10;}
</style>
<g
   id="PUZZLE_5"
   style="stroke:none">
	<g
   id="g12"
   style="stroke:none">
		<path
   class="st0"
   d="M330.7018127,333.6199951c0,7.4500122,6.039978,13.4899902,13.4899902,13.4899902    c4.5999756,0,8.6599731-2.2999878,11.0999756-5.8200073v43.1600342H253.6218109V341.289978    c2.4399872,3.5200195,6.4999847,5.8200073,11.0900116,5.8200073c7.4499512,0,13.4899902-6.039978,13.4899902-13.4899902    s-6.0400391-13.4899902-13.4899902-13.4899902c-4.5900269,0-8.6500244,2.2999878-11.0900116,5.8200073v-43.1700439h43.1599579    c-3.5199585,2.4400024-5.8199463,6.5-5.8199463,11.1000366c0,7.4499512,6.039978,13.4899902,13.4899902,13.4899902    c7.4499512,0,13.4899902-6.0400391,13.4899902-13.4899902c0-4.6000366-2.2999878-8.6600342-5.8200073-11.1000366h43.1699829    v43.1700439c-2.4400024-3.5200195-6.5-5.8200073-11.0999756-5.8200073    C336.7417908,320.1300049,330.7018127,326.1699829,330.7018127,333.6199951z"
   id="path4"
   style="stroke:none;fill:#e2f6ff;fill-opacity:1" />
		<rect
   x="253.6218109"
   y="282.7799683"
   class="st1"
   width="19.6264648"
   height="9.5292969"
   id="rect6"
   style="stroke:none" />
		<path
   class="st1"
   d="M279.4875183,310.3463745h-25.8657074v15.6036377    c2.4399872-3.5200195,6.4999847-5.8200073,11.0900116-5.8200073c4.7191772,0,8.8666992,2.4277954,11.2774658,6.0982056h3.49823    V310.3463745z"
   id="path8"
   style="stroke:none" />
		<path
   class="st1"
   d="M339.1307068,282.7799683h-17.3778687l5.2648926,13.2729492h-9.2667236    c-1.0414429,6.4143677-6.5907593,11.3170776-13.2991943,11.3170776c-4.9564209,0-9.2767334-2.6813965-11.621582-6.6647339    l-11.0766602,25.5229492h16.222168l6.8056641-16.3359375h27.6796875l4.8106079,12.1521606    c2.0239868-1.2127075,4.3890991-1.9144287,6.920105-1.9144287c4.5999756,0,8.6599731,2.2999878,11.0999756,5.8200073v-5.9310303    L339.1307068,282.7799683z"
   id="path10"
   style="stroke:none" />
	</g>
</g>
<g
   id="PUZZLE_2"
   style="stroke:none">
	<g
   id="g25"
   style="stroke:none">
		<path
   class="st0"
   d="M330.7018127,231.9400024c0,7.4500122,6.039978,13.4899902,13.4899902,13.4899902    c4.5899658,0,8.6499634-2.2999878,11.0899658-5.8200073v43.1699829h-43.1599731    c3.5200195,2.4400024,5.8200073,6.5,5.8200073,11.1000366c0,7.4499512-6.0400391,13.4899902-13.4899902,13.4899902    c-7.4500122,0-13.4899902-6.0400391-13.4899902-13.4899902c0-4.6000366,2.2999878-8.6600342,5.8199463-11.1000366h-43.1699677    v-43.1699829c2.4399872,3.5200195,6.4999847,5.8200073,11.1000214,5.8200073    c7.4499512,0,13.4899902-6.039978,13.4899902-13.4899902s-6.0400391-13.4899902-13.4899902-13.4899902    c-4.6000366,0-8.6600342,2.2999878-11.1000214,5.8199463v-43.1599731h101.6699677v43.1599731    c-2.4400024-3.5199585-6.5-5.8199463-11.0899658-5.8199463    C336.7417908,218.4500122,330.7018127,224.4899902,330.7018127,231.9400024z"
   id="path15"
   style="stroke:none;fill:#e2f6ff;fill-opacity:1" />
		<rect
   x="253.6118011"
   y="276.4274292"
   class="st1"
   width="19.6364746"
   height="6.3525391"
   id="rect17"
   style="stroke:none" />
		<path
   class="st1"
   d="M267.9710999,245.027771c-0.2901611,0.0718994-0.5836182,0.1327515-0.8804932,0.1849365    c-0.098999,0.0178223-0.197998,0.0350342-0.2976685,0.0506592c-0.1117554,0.0169678-0.2208862,0.0426636-0.3334961,0.0567627    c-0.1428223,0.0179443-0.2837524,0.0248413-0.4258423,0.0383301c-0.1137695,0.0112305-0.227356,0.0224609-0.34198,0.0308228    c-0.237915,0.0167847-0.473877,0.0249023-0.7092896,0.02948c-0.0906982,0.0018311-0.1793823,0.0112305-0.2705078,0.0112305    c-0.0327148,0-0.0643921-0.0037842-0.0970459-0.0040283c-0.3051758-0.0021973-0.6074219-0.015625-0.9074097-0.0377197    c-0.0441895-0.0032959-0.0892944-0.0030518-0.1333618-0.0067749c-0.3607788-0.0300903-0.7167969-0.0761108-1.0689697-0.1340332    c-0.0219727-0.0036621-0.043457-0.0088501-0.0654297-0.0126343c-0.335144-0.0568848-0.6653442-0.1273804-0.9916382-0.2084961    c-0.0220337-0.0055542-0.0437012-0.0117798-0.0656738-0.0174561c-1.7456665-0.4434204-3.3555908-1.2236938-4.7553711-2.2738037    h-3.0151215v15.8818359h24.2873383v-15.8818359h-5.1135254c-1.3994141,1.0527344-3.0066528,1.833313-4.7423096,2.2738647    C268.0191956,245.0150757,267.9952698,245.0217285,267.9710999,245.027771z"
   id="path19"
   style="stroke:none" />
		<path
   class="st1"
   d="M304.4518127,307.3699951c6.7084351,0,12.2577515-4.90271,13.2991943-11.3170776h-7.1824951    l4.3841553-10.6051636c-0.8157959-1.0145264-1.7576294-1.9238281-2.8308716-2.6677856h3.9337158l2.9075317-7.0332031    l2.7897949,7.0332031h17.3778687l-18.8063354-43.3344727h-0.9082031l-26.5859375,61.2597656    C295.1750793,304.6885986,299.4953918,307.3699951,304.4518127,307.3699951z"
   id="path21"
   style="stroke:none" />
		<path
   class="st2"
   d="M352.6793213,282.7799683h-40.5575256c3.5200195,2.4400024,5.8200073,6.5,5.8200073,11.1000366    c0,7.4499512-6.0400391,13.4899902-13.4899902,13.4899902c-7.4500122,0-13.4899902-6.0400391-13.4899902-13.4899902    c0-4.6000366,2.2999878-8.6600342,5.8199463-11.1000366h-40.1308594"
   id="path23"
   style="stroke:none" />
	</g>
</g>
<g
   id="PUZZLE_6"
   style="stroke:none">
	<g
   id="g36"
   style="stroke:none">
		<path
   class="st0"
   d="M456.9618225,282.7799683v85.0392151c0,9.184967-7.4458618,16.6308289-16.6307983,16.6308289h-85.0392456    V341.289978c-2.7449646,3.9599915-7.5402527,6.3759155-12.848053,5.710083    c-6.0829773-0.7630615-10.9724426-5.7306519-11.654541-11.8232422c-0.9121094-8.1467896,5.4398499-15.046814,13.4026184-15.046814    c4.5999756,0,8.6599731,2.2999878,11.0999756,5.8200073v-43.1700439h43.1600342    c-3.9689636,2.7399292-6.3868408,7.5648804-5.7055054,12.883728c0.778717,6.0791016,5.7576294,10.9538879,11.8498535,11.6223755    c8.1332092,0.8924561,15.015625-5.4535217,15.015625-13.4060669c0-4.6000366-2.2999878-8.6700439-5.8200073-11.1000366    H456.9618225z"
   id="path28"
   style="stroke:none;fill:#e2f6ff;fill-opacity:1" />
		<path
   class="st3"
   d="M357.9864807,326.2282104l-2.6947021-6.2092285v5.9310303    c-2.4400024-3.5200195-6.5-5.8200073-11.0999756-5.8200073c-2.5310059,0-4.8961182,0.7017212-6.920105,1.9144287    l1.656189,4.1837769H357.9864807z"
   id="path30"
   style="stroke:none" />
		<path
   class="st1"
   d="M376.2189026,326.2282104v-37.3222656l26.2050781,36.1875h0.2265625l27.2255859-38.6831055v39.8178711    h16.4492188v-43.4482422h-31.6013794l-0.3364868,0.4658813c3.1729126,2.4651489,5.2243042,6.3058472,5.2243042,10.6341553    c0,7.9525146-6.8824463,14.2985229-15.015625,13.4060669c-6.0922241-0.6685181-11.071167-5.5432739-11.8498535-11.6223755    c-0.3878174-3.0275879,0.2310181-5.8935547,1.565979-8.3076172l-3.2266235-4.5761108h-30.7485962v43.4482422H376.2189026z"
   id="path32"
   style="stroke:none" />
		<path
   class="st2"
   d="M355.2917786,379.9703064V341.289978c-2.7449646,3.9599915-7.5402527,6.3759155-12.848053,5.710083    c-6.0829773-0.7630615-10.9724426-5.7306519-11.654541-11.8232422c-0.9121094-8.1467896,5.4398499-15.046814,13.4026184-15.046814    c4.5999756,0,8.6599731,2.2999878,11.0999756,5.8200073v-40.5022583"
   id="path34"
   style="stroke:none" />
	</g>
</g>
<g
   id="PUZZLE_4"
   style="stroke:none">
	<g
   id="g47"
   style="stroke:none">
		<path
   class="st0"
   d="M278.1200256,335.1264648c-0.6599426,6.0904236-5.5241089,11.0725098-11.5986633,11.8651733    c-5.3196411,0.6941833-10.143219-1.7253113-12.8995514-5.7016602v43.1600342h-85.0491791    c-9.1849518,0-16.6308136-7.4458618-16.6308136-16.6308289v-85.0392151h43.1699829    c-3.9689636,2.7398987-6.3868408,7.5648499-5.7055359,12.883667c0.778717,6.0791016,5.7575836,10.9539185,11.8497925,11.6224365    c8.1332397,0.8925171,15.0157776-5.4534912,15.0157776-13.4060669c0-4.6000366-2.3000488-8.6700439-5.8200073-11.1000366    h43.1699829v43.1700439c2.4399872-3.5200195,6.4999847-5.8200073,11.0900116-5.8200073    C272.6581421,320.1300049,279.0003967,327.0016174,278.1200256,335.1264648z"
   id="path39"
   style="stroke:none;fill:#e2f6ff;fill-opacity:1" />
		<path
   class="st1"
   d="M189.2917938,293.8800049c0-4.6000366,2.2999878-8.6700439,5.8200073-11.1000366h-14.6921997v43.4482422    h16.4492188v-20.2363281C192.3863983,303.7988281,189.2917938,299.2061157,189.2917938,293.8800049z"
   id="path41"
   style="stroke:none" />
		<path
   class="st1"
   d="M264.7118225,320.1300049c-4.5900269,0-8.6500244,2.2999878-11.0900116,5.8200073v-15.6036377h-16.2211914    v-18.0371094h16.2211914v-9.5292969h-0.0100098h-32.6604004v43.4482422h55.0378876    C273.5785217,322.5578003,269.4309998,320.1300049,264.7118225,320.1300049z"
   id="path43"
   style="stroke:none" />
		<path
   class="st2"
   d="M253.6118622,379.9703064V341.289978c2.7449799,3.9599915,7.5402374,6.3759155,12.8480682,5.710083    c6.0829773-0.7630615,10.9724426-5.7306519,11.654541-11.8232422c0.9121094-8.1467896-5.4398804-15.046814-13.4026489-15.046814    c-4.5999756,0-8.6599731,2.2999878-11.0999603,5.8200073v-40.5022583"
   id="path45"
   style="stroke:none" />
	</g>
</g>
<g
   id="ORNAMENT_14"
   style="stroke:none">
	<circle
   class="st4"
   cx="214.7453766"
   cy="440.5596619"
   r="8.6655359"
   id="circle50"
   style="stroke:none" />
</g>
<g
   id="ORNAMENT_13"
   style="stroke:none">
	<circle
   class="st4"
   cx="193.1502991"
   cy="429.4182434"
   r="2.4758675"
   id="circle53"
   style="stroke:none" />
</g>
<g
   id="ORNAMENT_12"
   style="stroke:none">
	<circle
   class="st4"
   cx="428.8858948"
   cy="137.9425964"
   r="3.7165968"
   id="circle56"
   style="stroke:none" />
</g>
<g
   id="ORNAMENT_11"
   style="stroke:none">
	<circle
   class="st4"
   cx="323.6572876"
   cy="139.5072632"
   r="6.0521207"
   id="circle59"
   style="stroke:none" />
</g>
<g
   id="ORNAMENT_10"
   style="stroke:none">
	<circle
   class="st4"
   cx="339.2408752"
   cy="149.2450409"
   r="2.0350888"
   id="circle62"
   style="stroke:none" />
</g>
<g
   id="ORNAMENT_9"
   style="stroke:none">
	<circle
   class="st4"
   cx="297.4801636"
   cy="127.7382889"
   r="1.7107557"
   id="circle65"
   style="stroke:none" />
</g>
<g
   id="ORNAMENT_8"
   style="stroke:none">
	<circle
   class="st4"
   cx="155.7354126"
   cy="140.9663849"
   r="4.8141866"
   id="circle68"
   style="stroke:none" />
</g>
<g
   id="ORNAMENT_7"
   style="stroke:none">
	<circle
   class="st4"
   cx="140.433197"
   cy="132.1530609"
   r="2.09761"
   id="circle71"
   style="stroke:none" />
</g>
<g
   id="ORNAMENT_6"
   style="stroke:none">
	<g
   id="g82"
   style="stroke:none">
		<line
   class="st5"
   x1="204.0026398"
   y1="106.7541046"
   x2="204.0026398"
   y2="110.4169998"
   id="line74"
   style="stroke:none" />
		<line
   class="st5"
   x1="210.1235046"
   y1="112.875"
   x2="206.4606323"
   y2="112.875"
   id="line76"
   style="stroke:none" />
		<line
   class="st5"
   x1="204.0026398"
   y1="118.9958954"
   x2="204.0026398"
   y2="115.3330002"
   id="line78"
   style="stroke:none" />
		<line
   class="st5"
   x1="197.8817139"
   y1="112.875"
   x2="201.544632"
   y2="112.875"
   id="line80"
   style="stroke:none" />
	</g>
</g>
<g
   id="ORNAMENT_5"
   style="stroke:none">
	<g
   id="g93"
   style="stroke:none">
		<line
   class="st5"
   x1="424.4335632"
   y1="106.7541046"
   x2="424.4335632"
   y2="110.4169998"
   id="line85"
   style="stroke:none" />
		<line
   class="st5"
   x1="430.5544128"
   y1="112.875"
   x2="426.891571"
   y2="112.875"
   id="line87"
   style="stroke:none" />
		<line
   class="st5"
   x1="424.4335632"
   y1="118.9958954"
   x2="424.4335632"
   y2="115.3330002"
   id="line89"
   style="stroke:none" />
		<line
   class="st5"
   x1="418.3126526"
   y1="112.875"
   x2="421.9755554"
   y2="112.875"
   id="line91"
   style="stroke:none" />
	</g>
</g>
<g
   id="ORNAMENT_4"
   style="stroke:none">
	<g
   id="g104"
   style="stroke:none">
		<line
   class="st5"
   x1="289.4274292"
   y1="397.1497498"
   x2="289.4274292"
   y2="399.7166748"
   id="line96"
   style="stroke:none" />
		<line
   class="st5"
   x1="293.7168884"
   y1="401.439209"
   x2="291.1499634"
   y2="401.439209"
   id="line98"
   style="stroke:none" />
		<line
   class="st5"
   x1="289.4274292"
   y1="405.7286377"
   x2="289.4274292"
   y2="403.1617126"
   id="line100"
   style="stroke:none" />
		<line
   class="st5"
   x1="285.1380005"
   y1="401.439209"
   x2="287.704895"
   y2="401.439209"
   id="line102"
   style="stroke:none" />
	</g>
</g>
<g
   id="ORNAMENT_3"
   style="stroke:none">
	<g
   id="g115"
   style="stroke:none">
		<line
   class="st5"
   x1="154.9694519"
   y1="408.5323181"
   x2="154.9694519"
   y2="412.1952209"
   id="line107"
   style="stroke:none" />
		<line
   class="st5"
   x1="161.0903625"
   y1="414.6531982"
   x2="157.427475"
   y2="414.6531982"
   id="line109"
   style="stroke:none" />
		<line
   class="st5"
   x1="154.9694519"
   y1="420.7741089"
   x2="154.9694519"
   y2="417.1112061"
   id="line111"
   style="stroke:none" />
		<line
   class="st5"
   x1="148.8485718"
   y1="414.6531982"
   x2="152.5114746"
   y2="414.6531982"
   id="line113"
   style="stroke:none" />
	</g>
</g>
<g
   id="ORNAMENT_2"
   style="stroke:none">
	<g
   id="g126"
   style="stroke:none">
		<line
   class="st5"
   x1="341.1183472"
   y1="436.2044373"
   x2="341.1183472"
   y2="441.1027222"
   id="line118"
   style="stroke:none" />
		<line
   class="st5"
   x1="349.3036194"
   y1="444.3897095"
   x2="344.4053345"
   y2="444.3897095"
   id="line120"
   style="stroke:none" />
		<line
   class="st5"
   x1="341.1183472"
   y1="452.5749817"
   x2="341.1183472"
   y2="447.6766968"
   id="line122"
   style="stroke:none" />
		<line
   class="st5"
   x1="332.9330444"
   y1="444.3897095"
   x2="337.8313293"
   y2="444.3897095"
   id="line124"
   style="stroke:none" />
	</g>
</g>
<g
   id="ORNAMENT_1"
   style="stroke:none">
	<g
   id="g137"
   style="stroke:none">
		<line
   class="st5"
   x1="365.063385"
   y1="135.0927124"
   x2="365.063385"
   y2="137.2237854"
   id="line129"
   style="stroke:none" />
		<line
   class="st5"
   x1="368.6244812"
   y1="138.6538391"
   x2="366.4934387"
   y2="138.6538391"
   id="line131"
   style="stroke:none" />
		<line
   class="st5"
   x1="365.063385"
   y1="142.2149506"
   x2="365.063385"
   y2="140.0838928"
   id="line133"
   style="stroke:none" />
		<line
   class="st5"
   x1="361.5022583"
   y1="138.6538391"
   x2="363.6333313"
   y2="138.6538391"
   id="line135"
   style="stroke:none" />
	</g>
</g>
<g
   id="GROUND"
   style="stroke:none">
	<g
   id="g158"
   style="stroke:none">
		<line
   class="st6"
   x1="364.8654785"
   y1="470.3291016"
   x2="318.5756531"
   y2="470.3291016"
   id="line140"
   style="stroke:none" />
		<line
   class="st6"
   x1="553.1743774"
   y1="470.3291016"
   x2="429.8712769"
   y2="470.3291016"
   id="line142"
   style="stroke:none" />
		<line
   class="st6"
   x1="187.1235504"
   y1="470.3291016"
   x2="112.5645065"
   y2="470.3291016"
   id="line144"
   style="stroke:none" />
		<line
   class="st6"
   x1="346.2595215"
   y1="476.5215149"
   x2="160.9763489"
   y2="476.5215149"
   id="line146"
   style="stroke:none" />
		<line
   class="st6"
   x1="418.0218811"
   y1="484.7623901"
   x2="232.738739"
   y2="484.7623901"
   id="line148"
   style="stroke:none" />
		<line
   class="st6"
   x1="182.481308"
   y1="484.7623901"
   x2="134.7189331"
   y2="484.7623901"
   id="line150"
   style="stroke:none" />
		<line
   class="st6"
   x1="500.4219055"
   y1="484.7623901"
   x2="452.6595154"
   y2="484.7623901"
   id="line152"
   style="stroke:none" />
		<line
   class="st6"
   x1="322.0953064"
   y1="494.8613892"
   x2="274.3329163"
   y2="494.8613892"
   id="line154"
   style="stroke:none" />
		<line
   class="st6"
   x1="106.7520905"
   y1="476.5215149"
   x2="76.5642853"
   y2="476.5215149"
   id="line156"
   style="stroke:none" />
	</g>
</g>
<g
   id="MAN_LEFT_ARM"
   style="stroke:none">
	<g
   id="g177"
   style="stroke:none">
		<g
   id="g163"
   style="stroke:none">
			<path
   class="st7"
   d="M485.4057007,218.9008942l4.7292175,7.5939178l-12.3023376,2.3137512     c0,0-1.9143677,3.2510071-3.7166748,4.2486267c-1.7938232,1.0023651-8.8502502,2.1581116-8.8502502,2.1581116l-2.89151,3.7862244     c-0.3239136,0.425415-0.8990784,0.5558777-1.3764954,0.3263245c-0.5671387-0.2901154-0.7807007-0.9781952-0.4734192-1.5358582     l2.2454529-4.0751038l-3.2837219,4.8227081c-0.3720703,0.5331573-1.0802612,0.7021332-1.6465149,0.3901062     c-0.5576172-0.307251-0.7940369-0.9743347-0.5601196-1.5612335l2.1267395-5.3819275l-3.008606,4.8512115     c-0.3330078,0.5435028-1.0374146,0.7257538-1.6036072,0.4137726c-0.5233154-0.2883606-0.7567139-0.9202576-0.541748-1.4728241     l1.9072266-5.0443573l-2.7509155,3.997879c-0.2981873,0.4396057-0.8780518,0.5786743-1.3499451,0.3186493     c-0.4975586-0.2741699-0.6871948-0.9043427-0.4082947-1.4104919l6.2589111-11.3587952     c6.5104065-1.9711151,10.6924744-3.1673126,10.6924744-3.1673126l7.0095825,2.8670349L485.4057007,218.9008942z"
   id="path161"
   style="stroke:none" />
		</g>
		<g
   id="g169"
   style="stroke:none">
			<polygon
   class="st3"
   points="493.8597717,232.2839203 486.4242554,233.7936554 479.2911072,219.6046753 486.2487183,217.8316193         "
   id="polygon165"
   style="stroke:none" />
			<polygon
   class="st8"
   points="493.8597717,232.2839203 486.4242554,233.7936554 479.2911072,219.6046753 486.2487183,217.8316193         "
   id="polygon167"
   style="stroke:none" />
		</g>
		<g
   id="g175"
   style="stroke:none">
			<path
   class="st0"
   d="M559.2611694,177.5566406c2.4272461,4.7678986,2.335022,11.4897308-3.2443848,18.1369476     c-6.8679199,8.1811371-16.7388916,17.2961578-24.5457153,23.5293732     c-3.4291992,2.7438507-6.458313,4.9326782-8.6600342,6.2216492l0.0217896,0.0848694     c-3.385498,3.1080017-28.9294128,9.6890869-28.9294128,9.6890869l-9.7909851-18.1051483l31.6975708-11.6255188     c5.0760498-6.5994263,23.0766602-29.6739349,29.4096069-33.4211273     C550.2115479,169.1206818,556.4379272,172.0040283,559.2611694,177.5566406z"
   id="path171"
   style="stroke:none" />
			<circle
   class="st1"
   cx="497.6591492"
   cy="229.0820923"
   r="1.8551501"
   id="circle173"
   style="stroke:none" />
		</g>
	</g>
</g>
<g
   id="PUZZLE_3"
   style="stroke:none">
	<g
   id="g196"
   style="stroke:none">
		<path
   class="st0"
   d="M455.0959167,277.4259338l-42.3166504-8.5412903    c3.3484192,3.4710083,4.7638855,8.6789856,3.0436707,13.7578735c-1.9661255,5.8048706-7.8110657,9.5982056-13.9151306,9.0481262    c-8.1490173-0.734375-13.639801-8.3166199-12.0663757-16.1119385c0.9101257-4.5091248,3.9699097-8.0436096,7.901123-9.729126    l-42.3166504-8.5412903l8.5412903-42.3166046c-3.488678,3.3525238-8.6958313,4.7698059-13.7730408,3.0366058    c-5.7975464-1.9790955-9.5796204-7.8251343-9.0213318-13.9256744c0.7447815-8.1382141,8.3210449-13.6189728,16.110199-12.0467834    c4.4992371,0.9081421,8.0238953,3.9659424,9.7192383,7.8990784l8.5393066-42.306778l83.367981,16.8272095    c9.0033569,1.8172607,14.8288574,10.5891266,13.0115967,19.5924988L455.0959167,277.4259338z"
   id="path180"
   style="stroke:none;fill:#e2f6ff;fill-opacity:1" />
		<path
   class="st3"
   d="M389.5701599,277.4088135c-0.4297485,6.113678,3.4954529,11.8709412,9.3379517,13.72229    c7.7997437,2.4715881,15.7939758-2.3999939,17.355011-10.1977844c0.8496094-4.2441101-0.407959-8.4127502-3.0352478-11.4527588    l-14.5571899,13.5018311l-5.9342651-13.4122009C390.9535522,271.6752625,389.7842102,274.3639832,389.5701599,277.4088135z"
   id="path182"
   style="stroke:none" />
		<polygon
   class="st1"
   points="453.2660522,232.7321472 453.0439758,232.6873169 413.6930237,269.0690613 444.6697083,275.3215027       "
   id="polygon184"
   style="stroke:none" />
		<g
   id="g190"
   style="stroke:none">
			<path
   class="st7"
   d="M468.9631653,220.2237396c-0.5987549,0.0093231-6.1066895,1.0022888-6.2553711,1.8107605     s-0.0357666,9.2086945,0.363739,9.1892395c3.7469482-0.1825714,3.9640198-5.1932983,3.9640198-5.1932983     s3.0878296,4.2454071,5.7701111,2.8401947c2.682312-1.4051666,2.634491-4.7811279,2.634491-4.7811279     S469.5618591,220.2144775,468.9631653,220.2237396z"
   id="path186"
   style="stroke:none" />
			<path
   class="st6"
   d="M471.8756104,229.1457825c-2.417511,0.2153473-4.8400269-3.1153717-4.8400269-3.1153717     s-0.2170715,5.0107727-3.9640198,5.1933136c-0.3041077,0.0148163-0.4421692-4.8493195-0.4251709-7.5296021"
   id="path188"
   style="stroke:none" />
		</g>
		<polygon
   class="st1"
   points="369.0886536,215.7415466 368.9776001,215.7191315 360.3812561,258.3084717 390.5220032,264.3921814       "
   id="polygon192"
   style="stroke:none" />
		<path
   class="st2"
   d="M451.3858032,276.6770935l-38.6065369-7.79245c3.3484192,3.4710083,4.7638855,8.6789856,3.0436707,13.7578735    c-1.9661255,5.8048706-7.8110657,9.5982056-13.9151306,9.0481262c-8.1490173-0.734375-13.639801-8.3166199-12.0663757-16.1119385    c0.9101257-4.5091248,3.9699097-8.0436096,7.901123-9.729126l-42.3166504-8.5412903l8.5412903-42.3166046    c-3.488678,3.3525238-8.6958313,4.7698059-13.7730408,3.0366058c-5.7975464-1.9790955-9.5796204-7.8251343-9.0213318-13.9256744    c0.4654846-5.08638,3.5995178-9.1346893,7.7862244-11.0718231"
   id="path194"
   style="stroke:none" />
	</g>
</g>
<g
   id="PLANT"
   style="stroke:none">
	<g
   id="g239"
   style="stroke:none">
		<g
   id="g229"
   style="stroke:none">
			<g
   id="g203"
   style="stroke:none">
				<path
   class="st1"
   d="M409.7026062,419.8052063c0,0,33.0779724,5.0919495,39.2633057-26.8974609      C448.9659119,392.9077454,416.9941406,387.5666809,409.7026062,419.8052063z"
   id="path199"
   style="stroke:none" />
				<line
   class="st9"
   x1="413.1723938"
   y1="417.4282227"
   x2="445.4961243"
   y2="395.284729"
   id="line201"
   style="stroke:none" />
			</g>
			<g
   id="g209"
   style="stroke:none">
				<path
   class="st10"
   d="M401.7301941,422.0031128c0,0-8.2463989-47.01651,37.1852722-56.7896118      C438.9154663,365.213501,447.4841614,410.6452026,401.7301941,422.0031128z"
   id="path205"
   style="stroke:none;fill:#9ab3da;fill-opacity:1" />
				<line
   class="st11"
   x1="405.0163269"
   y1="416.9844971"
   x2="435.6293335"
   y2="370.2321167"
   id="line207"
   style="stroke:none" />
			</g>
			<g
   id="g215"
   style="stroke:none">
				<path
   class="st1"
   d="M398.9911804,420.6116333c0,0-35.6376038-38.3626099,0.3553772-74.4602661      C399.3465576,346.1513672,434.3354492,382.862793,398.9911804,420.6116333z"
   id="path211"
   style="stroke:none" />
				<line
   class="st9"
   x1="399.022583"
   y1="414.0314026"
   x2="399.315155"
   y2="352.7315979"
   id="line213"
   style="stroke:none" />
			</g>
			<g
   id="g221"
   style="stroke:none">
				<path
   class="st1"
   d="M393.8561096,418.7067871c0,0-32.6897278,7.173584-40.8856812-24.3606262      C352.9704285,394.3461609,384.5404663,386.9938965,393.8561096,418.7067871z"
   id="path217"
   style="stroke:none" />
				<line
   class="st9"
   x1="390.242981"
   y1="416.5539856"
   x2="356.5835876"
   y2="396.4989319"
   id="line219"
   style="stroke:none" />
			</g>
			<g
   id="g227"
   style="stroke:none">
				<path
   class="st10"
   d="M402.7739563,422.0213013c0,0,3.2389526-47.0466003-41.5832825-56.8259888      C361.1906738,365.1953125,357.4816895,410.6560669,402.7739563,422.0213013z"
   id="path223"
   style="stroke:none;fill:#9ab3da;fill-opacity:1" />
				<line
   class="st11"
   x1="399.0991516"
   y1="416.9994812"
   x2="364.8654785"
   y2="370.2171631"
   id="line225"
   style="stroke:none" />
			</g>
		</g>
		<g
   id="g237"
   style="stroke:none">
			<path
   class="st10"
   d="M429.334259,448.0532837c-0.7685242,3.7126465-1.8252258,7.4761047-3.2662354,11.1152954     c-1.5596008,3.9499817-3.5657043,7.7473755-6.1425171,11.1605225h-40.6864319     c-6.882782-9.120575-9.7082214-20.9930725-10.7536316-31.1307678c-1.2149658-11.793396-0.022644-21.2360535-0.022644-21.2360535     h62.2446289C430.707428,417.9622803,432.5496216,432.5133057,429.334259,448.0532837z"
   id="path231"
   style="stroke:none;fill:#9ab3da;fill-opacity:1" />
			<path
   class="st7"
   d="M429.334259,448.0532837c-0.7685242,3.7126465-1.8252258,7.4761047-3.2662354,11.1152954     c-3.0684204-4.4529114-9.1488037-8.7193298-21.1399841-7.3687439     c-16.0372314,1.8026123-29.2490234-3.7578735-36.4425964-12.6015015     c-1.2149658-11.793396-0.022644-21.2360535-0.022644-21.2360535h13.8390808     c3.3001099,6.7980042,11.1096497,16.6757812,28.763031,17.7211914     C422.1802368,436.3446045,427.2377625,441.8146973,429.334259,448.0532837z"
   id="path233"
   style="stroke:none;fill:#c6d9f6;fill-opacity:0.58641136" />
			<path
   class="st7"
   d="M407.7476501,458.6459656c-13.1255798,1.7106323-9.4190063,11.092865,2.6466675,8.1910095     C421.0023193,464.285675,414.9597778,457.7060242,407.7476501,458.6459656z"
   id="path235"
   style="stroke:none;fill:#b3c9ea;fill-opacity:1" />
		</g>
	</g>
</g>
<g
   id="MAN_HEAD"
   style="stroke:none">
	<g
   id="g266"
   style="stroke:none">
		<g
   id="g244"
   style="stroke:none">
			<circle
   class="st6"
   cx="514.4163818"
   cy="149.0275421"
   r="3.1464801"
   id="circle242"
   style="stroke:none" />
		</g>
		<path
   class="st7"
   d="M530.6151733,153.3453217c-0.3820801,0.8816071-0.8424683,1.6848297-1.3615723,2.3803253    c-3.203125,4.2609558-7.2779541,4.2609558-10.3537598,1.9002991c-1.2440186-0.9599762-2.3312988-2.3019409-3.1345215-3.9084015    c-1.0480957,0.4114532-2.1157837,0.1567688-2.4488525-0.6366577c-0.65625-1.5672913,1.2244263-2.5272217,1.2244263-2.5272217    l-0.3427734-2.6447601c-1.1068726-6.3865509-0.274292-13.3609161,5.3776245-14.00737    C532.1529541,132.4616394,533.9847412,145.7539062,530.6151733,153.3453217z"
   id="path246"
   style="stroke:none" />
		<path
   class="st1"
   d="M530.6151733,153.3453217c-0.3820801,0.8816071-0.8424683,1.6848297-1.3615723,2.3803253    c-3.203125,4.2609558-7.2779541,4.2609558-10.3537598,1.9002991c0.7445068,0.2056732,1.616272,0.3232117,2.6546021,0.2840424    c4.5939941-0.1763,6.2493896-5.2503052,6.5628662-5.4854431    C528.1173096,152.4245453,529.2241821,152.8261871,530.6151733,153.3453217z"
   id="path248"
   style="stroke:none" />
		<g
   id="g252"
   style="stroke:none">
			<path
   class="st7"
   d="M531.8513184,171.1682587c0,0-2.3483887,1.6325226-5.5610962,0.4365082l-1.1086426-7.8833313     l-1.2223511-8.6515198l7.7699585-6.6698303l0.0697021-0.0611115v0.5412598l0.008728,4.4523926L531.8513184,171.1682587z"
   id="path250"
   style="stroke:none" />
		</g>
		<path
   class="st1"
   d="M531.8493042,156.7051849c-3.1932373-0.7444611-5.6616821,0-5.6616821,0v-8.5024414l-2.7035522-0.068512    l0.2155762-5.1719818c0,0-3.447998,1.99823-10.2166748,2.5370331c-6.7685547,0.5582733-12.8808594-5.1523895-12.058075-7.6208344    c0.7836914-2.3509216,4.2805786-0.4309998,4.5548706-0.2742462c-0.4015808-0.4212494-8.1889038-8.4436646-4.8291016-14.3502426    c3.4381714-6.0437241,16.6325378,1.7533569,24.3316345,6.5531082c1.1853027,0.7346497,2.3313599,1.4007263,3.4186401,2.0276489    c-0.8424072-1.4497528-2.135437-3.8006134-3.2520752-6.278862c-1.8513184-4.0944595,4.7997437-3.7711945,6.0535889,7.8069382    c0,0,3.6536255-6.8274002,6.6020508-5.6225357c2.4782104,0.9990921-0.9795532,5.05439-4.4666748,6.9057236    c3.5164795,2.0668182,5.9555664,3.8985443,6.5432739,6.5727234    C541.3606567,145.6853943,531.8493042,156.7051849,531.8493042,156.7051849z"
   id="path254"
   style="stroke:none" />
		<line
   class="st6"
   x1="511.4049683"
   y1="148.1234589"
   x2="524.3279419"
   y2="147.9311676"
   id="line256"
   style="stroke:none" />
		<g
   id="g264"
   style="stroke:none">
			<path
   class="st7"
   d="M523.8587036,149.0574951c0,0,0.6184082-3.0919189,4.0376587-2.9100494     c3.4193115,0.1818848,2.7645874,7.8207397-4.1467896,7.5661163L523.8587036,149.0574951z"
   id="path258"
   style="stroke:none" />
			<path
   class="st6"
   d="M524.7680664,151.5310211c0,0,0.5820312-3.019165,3.3465576-3.6739197"
   id="path260"
   style="stroke:none" />
			<path
   class="st6"
   d="M527.350769,150.9126434c0,0-0.2053833-1.1196594-1.2636108-1.8851013"
   id="path262"
   style="stroke:none" />
		</g>
	</g>
</g>
<g
   id="MAN_RIGHT_LEG"
   style="stroke:none">
	<g
   id="g293"
   style="stroke:none">
		<g
   id="g283"
   style="stroke:none">
			<g
   id="g273"
   style="stroke:none">
				<path
   class="st7"
   d="M555.9199829,433.9272766c0,0,0.331665,1.8944702,0.7506714,4.269165      c0.6722412,3.9372864,1.5802002,9.1927185,1.5802002,9.332428c0,0.2182617,4.295166,1.4578552,4.295166,1.4578552      l4.5048828-1.7460022l-0.4889526-6.9578857l-0.4539795-6.434082L555.9199829,433.9272766z"
   id="path269"
   style="stroke:none" />
				<path
   class="st1"
   d="M555.9199829,433.9272766c0,0,0.331665,1.8944702,0.7506714,4.269165      c2.2961426,0.480072,6.4516602,1.370575,9.8912964,2.0863953l-0.4539795-6.434082L555.9199829,433.9272766z"
   id="path271"
   style="stroke:none" />
			</g>
			<g
   id="g281"
   style="stroke:none">
				<path
   class="st1"
   d="M567.4174805,445.5646057c0,0-4.9470825,1.89151-10.1851196,0.2909851      c0,0-9.166626,6.6203613-14.9866943,8.7301331c-5.8201294,2.1097717-11.3491821,3.6375427-11.3491821,12.8041687h41.8317871      C572.7282715,467.3898926,574.0378418,453.0579529,567.4174805,445.5646057z"
   id="path275"
   style="stroke:none" />
				<path
   class="st9"
   d="M561.8884277,448.1108704c0,0-6.6931152,5.2380676-12.0039673,7.8571167"
   id="path277"
   style="stroke:none" />
				<path
   class="st10"
   d="M551.1576538,461.7153015c0,0-2.0734253-6.6567078-6.6567383-8.9483643      c0,0-7.7479858,2.6190491-11.0217896,4.4741821c-3.2738037,1.8551636-3.4920044,5.8928528-3.4920044,10.1487732h43.5414429      v-5.6745911H551.1576538z"
   id="path279"
   style="stroke:none;fill:#ffffff;fill-opacity:1" />
			</g>
		</g>
		<g
   id="g291"
   style="stroke:none">
			<path
   class="st10"
   d="M522.9638062,272.708252c0,0,12.8070068,82.9361267,15.1378784,94.5733337     c2.3223267,11.6459656,15.1293335,68.6798706,15.1293335,68.6798706s7.350708,0.6547852,16.8754272-0.8729858     c0-0.8730164-4.8015747-62.1322937-5.0897217-67.6584167c-0.1658325-3.1429443,0.4714355-24.2173462,1.0475464-42.0791321     c0.296875-9.0270386,0.5762329-17.2332458,0.7246704-21.8864746c0.0785522-2.3308716,0.1221313-3.7714844,0.1221313-3.9809875     c0-1.4578552,2.3048706-36.1426697-10.1879883-49.4735107     C544.2302246,236.6790466,521.8026123,248.2639313,522.9638062,272.708252z"
   id="path285"
   style="stroke:none;fill:#ffffff;fill-opacity:1" />
			<path
   class="st11"
   d="M542.2121582,381.3438416c1.1947632-2.3175659,1.5860596-5.587677,0.8670044-9.0135193     c-0.7514038-3.5797424-2.5444336-6.5163269-4.6929932-8.1181335"
   id="path287"
   style="stroke:none" />
			<path
   class="st11"
   d="M535.251709,285.0589905c0,0,10.8859863,82.0797424,11.4457397,88.1651306     s10.3374634,58.3722839,10.3374634,58.3722839"
   id="path289"
   style="stroke:none" />
		</g>
	</g>
</g>
<g
   id="MAN_LEFT_LEG"
   style="stroke:none">
	<g
   id="g322"
   style="stroke:none">
		<g
   id="g310"
   style="stroke:none">
			<g
   id="g300"
   style="stroke:none">
				<path
   class="st7"
   d="M470.485321,425.4125671c0,0-2.0450134,8.3720398-2.6437073,10.7079163      c-1.0131836,3.863678-2.355835,9.025238-2.4135132,9.1524658c-0.0900879,0.1987915,3.3101807,3.1010437,3.3101807,3.1010437      l4.8238831,0.2694702l2.427124-6.5391541l4.535675-12.108429L470.485321,425.4125671z"
   id="path296"
   style="stroke:none" />
				<path
   class="st1"
   d="M470.485321,425.4125671c0,0-2.0450134,8.3720398-2.6437073,10.7079163      c1.8931274,1.3851929,5.3103638,3.9118347,8.1476746,5.9838257l4.535675-12.108429L470.485321,425.4125671z"
   id="path298"
   style="stroke:none" />
			</g>
			<g
   id="g308"
   style="stroke:none">
				<path
   class="st1"
   d="M475.8688965,444.7352905c0,0-6.4020996,1.89151-11.6401672,0.2909851      c0,0-9.166626,6.6203613-14.9866943,8.7301331c-5.8200989,2.1097717-11.3491516,3.6375427-11.3491516,12.8041687h41.8318176      C479.7247009,466.5605774,480.5249634,452.1121826,475.8688965,444.7352905z"
   id="path302"
   style="stroke:none" />
				<path
   class="st9"
   d="M457.7718811,454.7312317c0,0,5.1289673-3.0009766,9.8213806-7.1477966"
   id="path304"
   style="stroke:none" />
				<path
   class="st10"
   d="M458.1540222,460.8859863c0,0-2.0733948-6.6567078-6.6567078-8.9483643      c0,0-7.7479858,2.6190491-11.0217896,4.4741821c-3.2737732,1.8551636-3.4920349,5.8928528-3.4920349,10.1487732h43.5414734      v-5.6745911H458.1540222z"
   id="path306"
   style="stroke:none;fill:#ffffff;fill-opacity:1" />
			</g>
		</g>
		<g
   id="g320"
   style="stroke:none">
			<path
   class="st10"
   d="M548.7855835,270.1453857c-0.9012451,20.0021362-15.6824341,32.2463379-15.6824341,32.2463379     s-29.3861084,64.1694946-29.6113892,64.815979c-0.2155151,0.6562805-22.8036499,69.5177917-22.8036499,69.5177917     l-15.8195496-4.3687744c0,0,10.4712524-57.7241211,12.4401245-64.2674255     c1.9590759-6.5531006,12.8711548-69.4099731,24.6549988-103.233429     c5.8967896-16.9264374,14.1837158-20.2372131,20.883667-17.7590179     C533.1717529,246.4797363,549.5888062,252.2883911,548.7855835,270.1453857z"
   id="path312"
   style="stroke:none;fill:#ffffff;fill-opacity:1" />
			<path
   class="st11"
   d="M524.3150635,247.0530243c10.336853-0.010849,25.2366333,6.0603638,24.47052,23.0923615     c-0.9012451,20.0021362-15.6824341,32.2463379-15.6824341,32.2463379s-0.8278198,1.8077393-2.206665,4.819397"
   id="path314"
   style="stroke:none" />
			<path
   class="st11"
   d="M481.4437561,354.5658264c1.4302063,2.2457275,2.0777893,5.5881958,1.5506287,9.1688843     c-0.6590881,4.4769287-2.9693298,8.0680542-5.7133484,9.3873901"
   id="path316"
   style="stroke:none" />
			<polyline
   class="st11"
   points="511.04776,278.3088989 487.8455811,360.0004578 472.8964844,429.091095    "
   id="polyline318"
   style="stroke:none" />
		</g>
	</g>
</g>
<g
   id="MAN_BODY"
   style="stroke:none">
	<g
   id="g339"
   style="stroke:none">
		<g
   id="g333"
   style="stroke:none">
			<g
   id="g331"
   style="stroke:none">
				<path
   class="st1"
   d="M516.8085938,170.453125c0,0,4.2623901-8.6427307,15.0203247-8.4092407      c10.7579956,0.23349,12.9765015,6.4940643,12.9765015,6.4940643L516.8085938,170.453125z"
   id="path325"
   style="stroke:none" />
				<path
   class="st0"
   d="M565.9162598,236.4782715c-0.3147583-3.1470947-2.2177124-33.5217438-3.255188-50.2274475      c-0.434082-6.9897308-4.9200439-13.0739594-11.4750977-15.5388641      c-7.2351685-2.7206421-15.1658936-4.603241-21.9828491-3.6629791      c-12.6586304,1.7460327-27.8149719,7.2275238-27.8149719,7.2275238      c-4.3650513,24.0078278,4.9450378,50.6343536,3.4172668,62.8565216s-12.8769531,39.7220459-12.8769531,39.7220459      c11.2541199,8.3959045,40.1721191,12.3936157,49.1269531,10.763031      c2.493042-4.2030334,7.7279053-17.4708252,7.7279053-17.4708252l9.2822266,17.2393188      c16.5602417-4.6042175,20.5093384-13.5870667,20.5093384-13.5870667S566.3527222,240.8433228,565.9162598,236.4782715z"
   id="path327"
   style="stroke:none" />
				<path
   class="st6"
   d="M501.8797302,179.1508179c-2.0711365,13.3186035-0.3483276,26.4174652,1.2415771,37.4266663      l1.6635437,13.3952332"
   id="path329"
   style="stroke:none" />
			</g>
		</g>
		<path
   class="st6"
   d="M539.211853,172.796402c0,0,9.3104858,9.4972534,7.6811523,61.9861298c0,0,0,19.5519562,1.6293335,32.1210632    "
   id="path335"
   style="stroke:none" />
		<path
   class="st6"
   d="M527.350769,230.5928345c0,0,9.2682495,5.5320282,19.5422363,4.1896973    c11.579895-1.5129547,15.9441528-10.707016,15.9441528-10.707016"
   id="path337"
   style="stroke:none" />
	</g>
</g>
<g
   id="MAN_LEFTARM"
   style="stroke:none">
	<g
   id="g360"
   style="stroke:none">
		<g
   id="g346"
   style="stroke:none">
			<path
   class="st7"
   d="M411.0502625,184.1480713c0,0-6.7345581-4.7126312-17.5777893-4.2570038     c-0.7424927,0.031189-1.3654785,0.5805664-1.5178223,1.3079529l0,0c-0.1874695,0.89505,0.382843,1.7683258,1.27948,1.947998     c2.5564575,0.5122528,7.5842285,1.6510773,11.0397034,3.2769165c0,0-6.8705139-0.484024-13.3912354,0.4136505     c-0.9391479,0.1292877-1.6210632,0.9601746-1.5556335,1.9059143l0.1483459,2.1439514     c0.0661011,0.9553833,0.8631897,1.6885529,1.8206482,1.6691742c2.6402893-0.0534058,7.8436584-0.007019,11.9066772,0.9729919     c0,0-4.5114746,0.327301-8.3421936,1.3632812c-1.0791626,0.2918396-1.6983337,1.425705-1.3998718,2.5030518l0,0     c0.2671204,0.964325,1.1879578,1.5878601,2.1825867,1.478241c2.6618347-0.293335,8.0271301-0.6038971,13.151062,0.7838287     c7.191925,1.9477997,9.6976318-0.3907318,9.6976318-0.3907318l14.9494934,3.9204407l-0.2444153-11.4822083l-14.6764832-5.2347107     c0,0-5.0889893-6.0169067-7.2115784-10.1031494c-0.3766174-0.7250214-1.1956482-1.1012115-1.9797058-0.8714905     l-0.0982666,0.0288086c-0.8360596,0.2449646-1.3493347,1.08284-1.1767883,1.9367981     C408.3840942,179.0949707,409.1781921,181.7722778,411.0502625,184.1480713z"
   id="path342"
   style="stroke:none" />
			<path
   class="st6"
   d="M391.6080322,189.3596191c0,0,7.1566162-0.8649292,13.7919922,0.3329926"
   id="path344"
   style="stroke:none" />
		</g>
		<polygon
   class="st3"
   points="432.213623,205.463623 424.8433228,203.662323 424.4335327,187.7865143 431.4836426,189.1460114       "
   id="polygon348"
   style="stroke:none" />
		<g
   id="g358"
   style="stroke:none">
			<path
   class="st0"
   d="M514.1728516,184.6805878c0.1651611,5.347641-2.7815247,11.3898773-10.6608582,15.0273132     c-9.6985168,4.4763794-22.5118713,8.5184937-32.2301025,10.8325958     c-4.2713318,1.0217743-7.9442444,1.7118378-10.485321,1.9401703l-0.0163879,0.0860596     c-4.3869019,1.369873-30.3008423-3.5565796-30.3008423-3.5565796l-1.1838074-21.2236328l33.6676941,3.6563263     c7.403595-3.808609,33.5182495-17.0176086,40.8441162-17.7102814     C509.5786743,173.1934662,513.9837646,178.4543304,514.1728516,184.6805878z"
   id="path350"
   style="stroke:none" />
			<path
   class="st6"
   d="M464.868927,211.9032288c-1.5544739,0.278183-2.9281311,0.4746246-4.0723572,0.5774384l-0.0163879,0.0860596     c-4.3869019,1.369873-30.3008423-3.5565796-30.3008423-3.5565796l-1.1838074-21.2236328l33.6676941,3.6563263     c1.0265198-0.5280609,2.4127197-1.2368469,4.0586853-2.0679321"
   id="path352"
   style="stroke:none" />
			<path
   class="st6"
   d="M507.7587891,174.308609c3.7241516,1.5187378,6.2713013,5.6700745,6.4140625,10.3719788     c0.1651611,5.347641-2.7815247,11.3898773-10.6608582,15.0273132"
   id="path354"
   style="stroke:none" />
			<circle
   class="st1"
   cx="436.4911804"
   cy="205.0579987"
   r="1.8551501"
   id="circle356"
   style="stroke:none" />
		</g>
	</g>
</g>
<g
   id="WOMAN_BACK_SHIRT"
   style="stroke:none">
	<path
   class="st0"
   d="M34.6414642,301.8169861c0,0,14.3241577,16.3988647,48.5344086,14.0341187   c34.2102432-2.3647766,43.7481232-21.2040405,43.7481232-21.2040405l-8.2734299-38.3091736l-69.6422195,8.8610229   L34.6414642,301.8169861z"
   id="path363"
   style="stroke:none" />
</g>
<g
   id="WOMAN_LEFT_ELG"
   style="stroke:none">
	<g
   id="g382"
   style="stroke:none">
		<g
   id="g374"
   style="stroke:none">
			<path
   class="st7"
   d="M102.8034058,429.9115295l-0.5517731,12.6908875c0,0-2.8377228,1.8918152-6.3060379,0l-0.9459076-13.6367798     L102.8034058,429.9115295z"
   id="path366"
   style="stroke:none" />
			<g
   id="g372"
   style="stroke:none">
				<path
   class="st1"
   d="M91.2160645,453.7167664c-0.3396454,3.322937,0.0738449,7.4528198,1.0247116,12.158905l2.7589111-0.0000305      c0,0,1.2612076-7.4292908,2.680069-10.7399597C99.0986099,451.8250122,92.5561218,450.8003235,91.2160645,453.7167664z"
   id="path368"
   style="stroke:none" />
				<path
   class="st10"
   d="M94.9996872,440.7106323c0,0,2.995369,1.4976807,8.1978455,0      c0,0,8.5131531,14.3462219,11.4296951,16.9474487c2.9165421,2.6012573,9.3013992,5.4389648,11.5085144,6.6213379      c2.2071075,1.1824036-14.6615372,2.049469-18.6028061,1.3400574c-3.9412766-0.7094421-7.2519455-5.6754456-10.5626144-8.3554993      c-3.3106689-2.6800842-5.7542572-3.5471497-5.7542572-3.5471497S92.0831451,446.3860474,94.9996872,440.7106323z"
   id="path370"
   style="stroke:none" />
			</g>
		</g>
		<g
   id="g380"
   style="stroke:none">
			<path
   class="st1"
   d="M115.6519547,260.2003174c0,0,5.1236572,26.8823242,4.4142303,37.9953003     c-0.7094345,11.1129761-6.8578186,58.4082336-6.8578186,58.4082336l-7.8037186,74.4900513     c0,0-8.8678665,1.6553345-13.0062027-0.5911865c0,0-1.3006134-20.809906-2.7194748-31.6878357     c-1.4188614-10.8778992,0-21.2828674,0.9459076-29.9142456c0,0-6.0301514-35.944397-7.4490051-67.6322327     c-1.4188614-31.6878357,2.8377151-49.187088,15.1344833-50.3694763     C110.6071243,249.7165527,115.6519547,260.2003174,115.6519547,260.2003174z"
   id="path376"
   style="stroke:none;fill:#ffffff;fill-opacity:1" />
			<path
   class="st8"
   d="M96.4185486,428.5715027c0,0-2.995369-27.7465515-2.8377151-34.3678894     c0.1576462-6.6213379,2.0494614-25.0664978,2.0494614-25.0664978l-5.0672531-69.0104065"
   id="path378"
   style="stroke:none" />
		</g>
	</g>
</g>
<g
   id="WOMAN_RIGHT_LEG"
   style="stroke:none">
	<g
   id="g407"
   style="stroke:none">
		<g
   id="g393"
   style="stroke:none">
			<path
   class="st7"
   d="M49.4246826,429.9115295l-1.4982529,13.6373596c0,0-2.8377151,1.8918152-6.3060341,0l0.0005646-14.583252     L49.4246826,429.9115295z"
   id="path385"
   style="stroke:none" />
			<g
   id="g391"
   style="stroke:none">
				<path
   class="st1"
   d="M36.8908653,454.663269c-0.3396454,3.3229065,0.0738411,7.4527893,1.0247116,12.1588745      l2.7589111-0.0000305c0,0,1.2612076-7.4292908,2.6800652-10.7399597S38.2309189,451.7467957,36.8908653,454.663269z"
   id="path387"
   style="stroke:none" />
				<path
   class="st10"
   d="M40.6744881,441.6571045c0,0,2.995369,1.4976807,8.1978493,0      c0,0,8.5131493,14.3462219,11.4296875,16.9474487c2.9165421,2.6012573,9.3014069,5.4389648,11.5085144,6.6213379      c2.2071152,1.1824036-14.6615295,2.049469-18.6028023,1.3400574c-3.9412727-0.7094421-7.2519417-5.6754456-10.5626106-8.3554993      c-3.3106689-2.6800842-5.754261-3.5471497-5.754261-3.5471497S37.757946,447.3325195,40.6744881,441.6571045z"
   id="path389"
   style="stroke:none" />
			</g>
		</g>
		<g
   id="g405"
   style="stroke:none">
			<path
   class="st1"
   d="M89.3833771,275.0195312L87.314209,302.844574c0,0-18.3269196,53.2863464-22.1105423,64.8736877     s-12.1391182,61.6414795-12.1391182,61.6414795s-2.5224152,2.3216858-8.0401993,2.3216858     s-6.7789879-2.6369629-6.7789879-2.6369629s-1.1823807-37.6785889,0-47.374115s4.9660034-24.3570557,5.2024803-31.2148743     s-0.2364769-44.45755,1.4188576-60.0650024c1.6553345-15.6074219,8.9861031-39.6775208,25.894165-39.5845337     S90.205658,263.9618835,89.3833771,275.0195312z"
   id="path395"
   style="stroke:none;fill:#ffffff;fill-opacity:1" />
			<path
   class="st8"
   d="M53.0645485,276.1230774c0,0-3.6259727,46.9799805-3.6259727,55.9660645     c0,8.9861145-1.4188576,20.1793213-2.2071114,26.3276978c-0.7882538,6.148407-3.6259727,22.2287903-4.0989265,34.2102661     c-0.47295,11.9814453-0.7882538,34.8408508-0.7882538,34.8408508"
   id="path397"
   style="stroke:none" />
			<g
   id="g403"
   style="stroke:none">
				<path
   class="st8"
   d="M94.2902603,272.8912354l-1.2503738,22.29953c-0.1074905,1.9170227-1.004158,3.703949-2.4768448,4.9359436      l-3.2488327,2.717865"
   id="path399"
   style="stroke:none" />
				<line
   class="st8"
   x1="89.3833771"
   y1="273.5415344"
   x2="87.314209"
   y2="302.844574"
   id="line401"
   style="stroke:none" />
			</g>
		</g>
	</g>
</g>
<g
   id="WOMAN_LEFT_ARM"
   style="stroke:none">
	<g
   id="g426"
   style="stroke:none">
		<path
   class="st10"
   d="M107.4146957,173.4529266c0,0,7.9219589,7.9219513,17.065712,42.7628021l-0.9459076,19.1545868    c0,0-6.4242706,2.877121-10.2078934,1.4582672s-7.212532-10.8779144-10.0502472-29.4412994    S107.4146957,173.4529266,107.4146957,173.4529266z"
   id="path410"
   style="stroke:none;fill:#9ab3da;fill-opacity:1" />
		<path
   class="st1"
   d="M122.0171127,215.427475c0,0-6.8443909,7.2752533-4.2431488,18.0904388    c1.9179382,7.9742279,7.3764572,9.22258,7.3764572,9.22258l5.9907379-3.231842c0,0,3.1136017-7.7643127,2.4830017-15.3315582    c-0.6306-7.5672302-3.9412689-11.7449799-3.9412689-11.7449799L122.0171127,215.427475z"
   id="path412"
   style="stroke:none" />
		<g
   id="g424"
   style="stroke:none">
			<path
   class="st7"
   d="M180.9683075,202.2864685c0.9325104-1.5047607,0.7290649-2.5023956-0.3246918-2.1511536     c-0.4717865,0.1572723-1.5086823,0.6389923-2.6885223,1.2164459c0.8521423-1.5769348,0.1415558-2.8115082-1.2133331-2.2017822     c-0.3493958,0.1571503-0.9314728,0.5037842-1.6159668,0.9393311c0.116394-1.1946259-0.6582642-1.8527374-1.6990967-1.2008667     c-0.8650665,0.5417786-3.1404572,2.5919495-4.8627625,4.183548c-0.8209839-0.1285248-1.5839844-0.2458344-2.2340546-0.3383789     c0.8405914-1.4451904,1.8787537-3.2904053,2.0169678-3.8201141c0.2364807-0.9064636-0.3154602-1.7341309-0.9066467-1.4188538     c-0.42099,0.2245789-5.0298615,4.437973-7.6536102,6.8498993c-2.2333679,1.0374756-4.3671875,2.1362-4.3671875,2.1362     l-26.7218323,9.4590607c0,0-3.3106689,9.3014374-0.4729614,17.5781097c0,0,29.9537506-22.071167,32.003067-23.0170746     c2.04953-0.9458923,14.2675629-1.5764618,15.8439178-2.0494232c1.5765839-0.4729462,6.4638367-5.2024689,6.779068-6.3060455     C182.9811401,201.6888733,182.108902,201.883316,180.9683075,202.2864685z"
   id="path414"
   style="stroke:none" />
			<g
   id="g422"
   style="stroke:none">
				<polyline
   class="st6"
   points="168.5639343,203.071991 176.0223999,204.490448 180.9683075,202.2864685     "
   id="polyline416"
   style="stroke:none" />
				<line
   class="st6"
   x1="177.9550934"
   y1="201.3517609"
   x2="175.2834167"
   y2="203.2095337"
   id="line418"
   style="stroke:none" />
				<line
   class="st6"
   x1="175.1257935"
   y1="200.0893097"
   x2="172.4654083"
   y2="202.2806396"
   id="line420"
   style="stroke:none" />
			</g>
		</g>
	</g>
</g>
<g
   id="WOMAN_BODY"
   style="stroke:none">
	<g
   id="g453"
   style="stroke:none">
		<g
   id="g435"
   style="stroke:none">
			<path
   class="st0"
   d="M83.1758728,163.7573853l-17.2627792,15.0162506c0,0-17.7357254,87.7327423-17.0262947,87.7327423     c0.7094269,0,23.8052864,7.3307495,44.7728539,3.3106689c20.9675751-4.0201111,24.7511978-9.4590759,24.7511978-9.4590759     L108.242363,203.603653l-2.246521-27.9042053L83.1758728,163.7573853z"
   id="path429"
   style="stroke:none" />
			<path
   class="st6"
   d="M48.8867989,266.5063782c0.7094269,0,23.8052864,7.3307495,44.7728539,3.3106689     c20.9675751-4.0201111,24.7511978-9.4590759,24.7511978-9.4590759"
   id="path431"
   style="stroke:none" />
			<path
   class="st6"
   d="M59.0552826,264.7722168c0,0,33.8949432,3.3106689,55.8084183-6.6213379"
   id="path433"
   style="stroke:none" />
		</g>
		<path
   class="st10"
   d="M83.1758728,232.9267273c-2.0526047,35.7835693-15.6074448,65.2674866-15.6074448,65.2674866    c-13.4034615,7.5672302-32.9269638,3.6227722-32.9269638,3.6227722s12.7507858-51.3910065,15.9006691-72.2009277    c3.1498795-20.8099213,5.5619278-51.5518494,5.5619278-51.5518494s13.0629539-11.454895,22.3612175-14.9736938    c-0.4256668,4.4173584-1.995903,22.7017212-0.4161987,35.7836151    C79.8652039,213.8477631,83.1758728,232.9267273,83.1758728,232.9267273z"
   id="path437"
   style="stroke:none;fill:#9ab3da;fill-opacity:1" />
		<g
   id="g443"
   style="stroke:none">
			<path
   class="st10"
   d="M87.314209,163.0905151c0,0,10.6414337,3.9775391,20.1004868,10.3624115v5.7936707     c0,0,4.9660034,16.5533447,5.2024841,19.5092926c0.2364731,2.9559479-2.2465286,13.2426758-2.2465286,13.2426758     s14.8980103,57.5820007,16.5533447,82.6484985c0,0-8.8678665-0.4729614-18.0904388-2.7194824     c0,0,0.0394135-21.47995-0.7488403-37.4026794c-0.7882614-15.9227448-3.3106689-26.6430054-3.3106689-26.6430054     s-8.9861069-37.5209198-11.1143951-45.4034576C91.5313644,174.5958862,87.314209,163.0905151,87.314209,163.0905151z"
   id="path439"
   style="stroke:none;fill:#9ab3da;fill-opacity:1" />
			<path
   class="st12"
   d="M107.4146957,175.1676941v4.0789032c0,0,4.9660034,16.5533447,5.2024841,19.5092926     c0.2364731,2.9559479-2.2465286,13.2426758-2.2465286,13.2426758s2.2654495,8.756134,5.1276627,20.925827"
   id="path441"
   style="stroke:none" />
		</g>
		<g
   id="g451"
   style="stroke:none">
			<path
   class="st10"
   d="M81.4417114,160.0131836c-4.7651749,0.7458496-8.90728,11.3508606-10.6808472,20.7310944     l5.3404236,4.8871765l-5.3404236,9.4590454c0,0,8.0007782,20.0216675,12.4150085,37.8362274     c0,0-2.0494614-29.0077667-3.4683228-45.0093384c0.2758865-16.4351044,7.843132-17.033432,13.9521027-1.5765076     c5.911911,17.1051178,11.1143951,41.5410156,11.1143951,41.5410156s0.6306-24.4358978-0.6306076-37.5997467l-7.8825455-6.0695496     l2.3647614-6.1483917C98.6256561,178.064209,90.5066376,158.5943298,81.4417114,160.0131836z"
   id="path445"
   style="stroke:none;fill:#ffffff;fill-opacity:1" />
			<path
   class="st12"
   d="M104.7740479,227.881897c0,0,0.6306-24.4358978-0.6306076-37.5997467l-7.8825455-6.0695496     l2.3647614-6.1483917c0,0-2.7503967-6.5956268-6.8368912-11.8294067"
   id="path447"
   style="stroke:none" />
			<path
   class="st12"
   d="M75.8084717,165.5090332c-2.240509,4.0932465-4.0322266,9.864975-5.0476074,15.2352448l5.3404236,4.8871765     l-5.3404236,9.4590454c0,0,6.1085205,15.2863464,10.5953903,31.0297394"
   id="path449"
   style="stroke:none" />
		</g>
	</g>
</g>
<g
   id="WOMAN_HAIR"
   style="stroke:none">
	<g
   id="g462"
   style="stroke:none">
		<path
   class="st1"
   d="M72.0614777,132.010437c0,0-3.4289017-6.5622177-8.8678589-7.9219589    c-5.4389572-1.3597336-9.0452232,4.2565842-9.7546501,11.055275c-0.7094307,6.7986908,4.357708,12.5609589,11.8829384,6.0892639    C71.2338104,136.1487732,72.0614777,132.010437,72.0614777,132.010437z"
   id="path456"
   style="stroke:none" />
		<path
   class="st1"
   d="M70.6426239,132.1286774c0,0-8.690506,4.7295227-7.7446022,12.6514893    c0.9459076,7.9219513,14.7797737,14.070343,22.2287788,9.5772858c7.4490051-4.493042,5.6163101-10.937027,5.6163101-10.937027    s6.5622253-0.5911865,6.6804581-6.9169312c0.1182404-6.3257446-3.1333084-7.4490051-6.5030975-6.7987061    c0,0,1.2415009-7.8628311-6.0301514-8.5722656C77.6186752,120.4230957,72.1205978,124.3249588,70.6426239,132.1286774z"
   id="path458"
   style="stroke:none" />
		<path
   class="st8"
   d="M70.6426239,132.1286774c-0.0031204,0.0016937-6.3884125,3.4779816-7.6143723,9.4608612"
   id="path460"
   style="stroke:none" />
	</g>
</g>
<g
   id="WOMAN_NECK"
   style="stroke:none">
	<g
   id="g469"
   style="stroke:none">
		<path
   class="st7"
   d="M93.656517,186.3408813c-1.1823807,4.3321991-4.5687408,6.2240143-4.5687408,6.2240143    c-5.041687-0.3877869-9.3833618-4.6443634-9.3833618-4.6443634v-16.638504    c-0.0567551-4.5308685-1.1067505-15.4371338-1.5040131-19.4099426c-0.094574-0.9270325-0.1513214-1.4756165-0.1513214-1.4756165    l7.8037186,1.6648102c0,0,0.1702576,3.6795197,0.4918289,7.7753143c0.3121643,3.8971252,0.7851181,8.1820984,1.3999786,10.0265808    C89.0120926,173.6467896,93.656517,186.3408813,93.656517,186.3408813z"
   id="path465"
   style="stroke:none" />
		<path
   class="st1"
   d="M86.3446274,159.8365936c-4.4930496-1.3904572-6.8956299-5.0227509-8.1442261-7.9645081    c-0.094574-0.9270325-0.1513214-1.4756165-0.1513214-1.4756165l7.8037186,1.6648102    C85.8527985,152.0612793,86.023056,155.740799,86.3446274,159.8365936z"
   id="path467"
   style="stroke:none" />
	</g>
</g>
<g
   id="WOMAN_HEAD"
   style="stroke:none">
	<g
   id="g488"
   style="stroke:none">
		<path
   class="st7"
   d="M89.3242569,136.0896606c0,0,3.4289093,5.4980774,3.6062622,12.651474    c0.1773605,7.1534119-5.4980774,7.9219666-11.2326279,5.4980774c-5.7345505-2.4238739-9.2816925-10.6414337-9.2816925-10.6414337    s-2.6012421-7.0942841,2.1874008-10.3458405C79.3922501,130.0003967,85.8362274,130.8871765,89.3242569,136.0896606z"
   id="path472"
   style="stroke:none" />
		<path
   class="st1"
   d="M75.3130341,135.4984589c0,0,7.626358,6.0301514,17.0854111,2.0691681    c0,0-6.9760513-13.1244354-18.0904388-6.739563c-11.1143875,6.3848572-5.7936707,15.3709564,0.2364731,16.7898102    C74.5444794,147.6178741,77.8551483,143.7160187,75.3130341,135.4984589z"
   id="path474"
   style="stroke:none" />
		<g
   id="g486"
   style="stroke:none">
			<g
   id="g482"
   style="stroke:none">
				<path
   class="st7"
   d="M78.4463425,150.6329498l-2.7983017-4.0200958c0,0-2.9559555-2.680069-5.7542572-0.9459076      C67.0954742,147.4011078,70.0514297,155.2442474,78.4463425,150.6329498z"
   id="path476"
   style="stroke:none" />
				<path
   class="st6"
   d="M70.7608643,147.410965c0,0,3.2219849-0.3251648,5.8527832,1.7440033"
   id="path478"
   style="stroke:none" />
				<path
   class="st6"
   d="M73.2143021,150.2930145c0,0-0.2812881-1.2391815-0.0593567-2.703537"
   id="path480"
   style="stroke:none" />
			</g>
			<path
   class="st13"
   d="M75.7465744,150.3964691c1.2733688,0,2.3056412,1.746933,2.3056412,3.9018707     s-1.0322723,3.9018555-2.3056412,3.9018555c-1.2733765,0-2.3056488-1.7469177-2.3056488-3.9018555     c0-0.8315125,0.1536942-1.6022797,0.4156342-2.2353668"
   id="path484"
   style="stroke:none" />
		</g>
	</g>
</g>
<g
   id="WOMAN_FACE"
   style="stroke:none">
	<g
   id="g511"
   style="stroke:none">
		<path
   class="st1"
   d="M78.017334,142.2873993c0,0,0.4519272-3.1533661,2.85009-2.7934723    c0,0-0.1464615-0.6345673,0.3876877-0.8249512c0.5341415-0.1903687,1.1408081,1.4770966,1.1408081,1.4770966    S79.8573456,140.7533875,78.017334,142.2873993z"
   id="path491"
   style="stroke:none" />
		<path
   class="st1"
   d="M90.0148849,139.7820892c0,0-1.0725555-2.7087097-2.4163971-1.4190216    c0,0-0.2082062-0.4966736-0.5732422-0.4406433c-0.6313629,0.0968781-0.2331467,1.7238922-0.2331467,1.7238922    S88.5233994,139.1128845,90.0148849,139.7820892z"
   id="path493"
   style="stroke:none" />
		<g
   id="g499"
   style="stroke:none">
			
				<ellipse
   transform="matrix(0.9594598 -0.2818454 0.2818454 0.9594598 -37.4122505 28.9652462)"
   class="st1"
   cx="81.98069"
   cy="144.5322876"
   rx="1.1960152"
   ry="1.4787098"
   id="ellipse495"
   style="stroke:none" />
			<circle
   class="st3"
   cx="82.0858078"
   cy="143.9546356"
   r="0.3180313"
   id="circle497"
   style="stroke:none" />
		</g>
		<g
   id="g505"
   style="stroke:none">
			
				<ellipse
   transform="matrix(0.9594598 -0.2818454 0.2818454 0.9594598 -36.5785179 30.7900143)"
   class="st1"
   cx="88.7406769"
   cy="142.5465088"
   rx="1.1960152"
   ry="1.4787098"
   id="ellipse501"
   style="stroke:none" />
			<circle
   class="st3"
   cx="88.8457947"
   cy="141.9688568"
   r="0.3180313"
   id="circle503"
   style="stroke:none" />
		</g>
		<path
   class="st6"
   d="M85.6663971,143.1286774l0.8361893,2.7687531c0,0,1.9906387-0.5675507,1.8793182,0.6942291    c-0.1093521,1.2394409-1.7703552,1.307663-1.7703552,1.307663"
   id="path507"
   style="stroke:none" />
		<path
   class="st6"
   d="M88.3409348,150.6738739c0,0-2.3076401,1.663681-5.5244751-0.1646118"
   id="path509"
   style="stroke:none" />
	</g>
</g>
<g
   id="WOMAN_RIGHT_ARM"
   style="stroke:none">
	<g
   id="g526"
   style="stroke:none">
		<g
   id="g520"
   style="stroke:none">
			<path
   class="st10"
   d="M56.1040611,178.064209c-5.373764,4.3354034-9.2667236,18.7709198,0,30.0325012     c8.2879829,10.0721436,30.3824806,30.1507263,35.2302437,31.0966339s9.6955338-5.2024689,9.6955338-5.2024689     s0.4729462-13.6934662-1.0641479-16.6013947c-1.5370941-2.9079132-4.0200958-3.262619-4.0200958-3.262619l-3.1924286,1.8917999     c0,0-13.8256073-20.3369598-21.0422668-27.5494995C64.4942398,181.2566376,56.1040611,178.064209,56.1040611,178.064209z"
   id="path514"
   style="stroke:none;fill:#9ab3da;fill-opacity:1" />
			<path
   class="st12"
   d="M56.5891266,208.6789856c8.6328354,10.2428284,29.9891357,29.5863495,34.7451782,30.5143585     c4.8477631,0.9459076,9.6955338-5.2024689,9.6955338-5.2024689s0.4729462-13.6934662-1.0641479-16.6013947     c-1.5370941-2.9079132-4.0200958-3.262619-4.0200958-3.262619l-3.1924286,1.8917999     c0,0-13.8256073-20.3369598-21.0422668-27.5494995c-3.9043274-3.9020844-8.1521378-6.6275024-11.2289848-8.307312"
   id="path516"
   style="stroke:none" />
			<path
   class="st1"
   d="M93.015976,214.4608002l7.4701843-4.7057953c0,0,4.741127,1.8297272,6.2191086,8.9240265     c1.4779739,7.0942841-0.819603,15.0149078-0.819603,15.0149078s-6.9841156,5.4402924-6.9841156,5.2629395     c0-0.1773682-4.8674774-2.6982117-7.527832-10.088089C88.713356,221.4788971,93.015976,214.4608002,93.015976,214.4608002z"
   id="path518"
   style="stroke:none" />
		</g>
		<g
   id="g524"
   style="stroke:none">
			<path
   class="st7"
   d="M100.546669,213.215332c-3.6123657,11.7511597,4.3062134,16.9475098,4.3062134,16.9475098     c5.2024536-4.887207,26.8660507-24.5786896,28.3047562-25.8547363c0.0617676-0.0547791-1.2676392-7.6461182-1.2676392-7.6461182     L100.546669,213.215332z"
   id="path522"
   style="stroke:none" />
		</g>
	</g>
</g>
<g
   id="PUZZLE_1"
   style="stroke:none">
	<g
   id="g551"
   style="stroke:none">
		<path
   class="st0"
   d="M263.2361755,204.9604492c0.3919067,6.1181335-3.5553894,11.8630219-9.4117889,13.6761932    c-5.1100006,1.5820618-10.2531891,0.040451-13.6472931-3.3793793l7.5370331,42.506958l-42.4971008,7.5352783    c4.3862762,2.0048828,7.6094818,6.3335266,7.8672485,11.6896057c0.2946014,6.1217041-3.7567139,11.7908936-9.6386566,13.5128479    c-7.8524475,2.2987671-15.7372437-2.7481384-17.1256866-10.5785828c-0.8031158-4.5293884,0.7509613-8.938446,3.7926788-11.9456787    l-42.506958,7.5370178l-14.8469391-83.7330627c-1.6035919-9.0438843,4.427948-17.6753693,13.471817-19.2789612    l83.733078-14.8469391l7.5352783,42.4970856c1.7879791-3.8918915,5.3840637-6.865387,9.9134521-7.6685028    C255.2528687,191.094101,262.7121277,196.7793274,263.2361755,204.9604492z"
   id="path529"
   style="stroke:none;fill:#e2f6ff;fill-opacity:1" />
		<path
   class="st1"
   d="M207.6182861,240.333725l-2.7727966-15.6379089l-55.4028931,9.8236389l2.7727966,15.6379089    l19.2120361-3.4065399l4.2186279,23.7919617l14.4665527-2.565094c-3.0417175,3.0072327-4.5957947,7.4162903-3.7926788,11.9456787    c0.9298859,5.2442932,4.7787933,9.2261963,9.5752563,10.6029663l-8.2711639-46.6473694L207.6182861,240.333725z"
   id="path531"
   style="stroke:none" />
		<polygon
   class="st1"
   points="246.6050415,251.5092316 230.6428375,254.3395386 227.5332947,236.802536 243.4954987,233.9722443     240.722702,218.3343201 208.5639191,224.0364838 215.5553436,263.4663696 247.7141266,257.7642212   "
   id="polygon533"
   style="stroke:none" />
		<path
   class="st2"
   d="M255.008606,193.3353119c4.5092468,1.9060974,7.8814087,6.2210999,8.2275696,11.6251373    c0.3919067,6.1181335-3.5553894,11.8630219-9.4117889,13.6761932c-5.1100006,1.5820618-10.2531891,0.040451-13.6472931-3.3793793    l7.5370331,42.506958l-42.4971008,7.5352783c4.3862762,2.0048828,7.6094818,6.3335266,7.8672485,11.6896057    c0.2946014,6.1217041-3.7567139,11.7908936-9.6386566,13.5128479    c-7.8524475,2.2987671-15.7372437-2.7481384-17.1256866-10.5785828c-0.8031158-4.5293884,0.7509613-8.938446,3.7926788-11.9456787    l-39.2902069,6.9666443"
   id="path535"
   style="stroke:none" />
		<g
   id="g549"
   style="stroke:none">
			<path
   class="st7"
   d="M140.1842804,189.2789764c-1.2217255,0.0610962-10.2772369,2.7326813-10.8712921,3.7425842     c-0.5940552,1.0098877-0.2376251,1.7227631,0.7128754,2.732666c0,0-1.5611572,2.1361694,0.2376251,3.353775     c0,0-1.0822601,1.8267975,0.6534576,3.2402802c0,0-1.0693054,1.9604034,0.891098,3.0297089     c1.9603882,1.0693054,11.2871246-2.376236,12.2376251-4.0990143c0.9504852-1.7227631-1.5001526-2.2552185-1.5001526-2.2552185     s2.5991516-3.418045-0.2523346-3.418045c0,0,2.6435699-3.1188202-0.8613739-2.7623749     C141.4318085,192.843338,143.7486267,189.100769,140.1842804,189.2789764z"
   id="path537"
   style="stroke:none" />
			<path
   class="st6"
   d="M129.5902863,198.3795166c0.1347656,0.2606964,0.3496246,0.5094604,0.6732025,0.7284851     c0,0-1.0822601,1.8267975,0.6534576,3.2402802c0,0-0.8186798,1.5009308,0.2899475,2.592514"
   id="path539"
   style="stroke:none" />
			<g
   id="g547"
   style="stroke:none">
				<line
   class="st6"
   x1="131.5704193"
   y1="195.4554443"
   x2="139.8872528"
   y2="192.9009857"
   id="line541"
   style="stroke:none" />
				<line
   class="st6"
   x1="132.5004883"
   y1="198.7970276"
   x2="141.1941833"
   y2="195.9306946"
   id="line543"
   style="stroke:none" />
				<line
   class="st6"
   x1="133.1597137"
   y1="202.2864685"
   x2="141.5506134"
   y2="199.257431"
   id="line545"
   style="stroke:none" />
			</g>
		</g>
	</g>
</g>
</svg>
